{
.appVersion = "1352";
copyright = "Copyright 2020 The Preahvihear Project Authors (https://github.com/danhhong/Preahvihear)";
customParameters = (
{
name = "Use Typo Metrics";
value = 1;
},
{
name = license;
value = "This Font Software is licensed under the SIL Open Font License, Version 1.1. This license is available with a FAQ at: https://scripts.sil.org/OFL";
},
{
name = licenseURL;
value = "https://scripts.sil.org/OFL";
},
{
name = fsType;
value = (
);
}
);
date = "2021-10-28 13:38:25 +0000";
designer = "Danh Hong";
designerURL = "http://www.nextspell.com";
disablesAutomaticAlignment = 1;
disablesNiceNames = 1;
familyName = Preahvihear;
featurePrefixes = (
{
code = "lookup lookup_0 {\012sub uni17B7 by uni17B7.r;\012sub uni17B8 by uni17B8.r;\012sub uni17B9 by uni17B9.r;\012sub uni17BA by uni17BA.r;\012sub uni17BE by uni17B8.r;\012sub uni17C6 by uni17C6.r;\012sub uni17C9 by uni17C9.r;\012sub uni17CD by uni17CD.r;\012sub uni17B7_17CD by iMark_17CDkhmer.r;\012} lookup_0;\012";
name = lookup_0;
},
{
code = "lookup lookup_1 {\012sub uni17B7 by uni17B7.a;\012sub uni17B8 by uni17B8.a;\012sub uni17B9 by uni17B9.a;\012sub uni17BA by uni17BA.a;\012sub uni17BE by uni17B8.a;\012sub uni17C6 by uni17C6.a;\012sub uni17CE by uni17CE.a;\012sub uni17D0 by uni17D0.a;\012} lookup_1;\012";
name = lookup_1;
},
{
code = "lookup lookup_10 {\012sub uni17BB by uni17BB.n;\012sub uni17BC by uni17BC.n;\012sub uni17BD by uni17BD.n;\012} lookup_10;\012";
name = lookup_10;
},
{
code = "lookup lookup_11 {\012sub uni17BB.b by uni17BB.n2;\012sub uni17BC.b by uni17BC.n2;\012sub uni17BD.b by uni17BD.n2;\012} lookup_11;\012";
name = lookup_11;
},
{

glyphs = (
{
glyphname = A;
lastChange = "2021-04-30 12:39:38 +0000";
layers = (
{
layerId = "60F86E82-B86D-46D3-A6A0-C6D09B755248";
paths = (
{
closed = 1;
nodes = (
"1371 484 OFFCURVE",
"1183 962 OFFCURVE",
"954 1425 CURVE",
"674 1430 LINE",
"415 951 OFFCURVE",
"184 465 OFFCURVE",
"-4 -39 CURVE",
"223 -70 LINE",
"266 59 OFFCURVE",
"311 185 OFFCURVE",
"360 313 CURVE",
"1165 348 LINE",
"1210 212 OFFCURVE",
"1251 79 OFFCURVE",
"1290 -57 CURVE",
"1526 -23 LINE"
);
},
{
closed = 1;
nodes = (
"912 1016 OFFCURVE",
"1015 772 OFFCURVE",
"1106 516 CURVE",
"430 487 LINE",
"539 751 OFFCURVE",
"658 1008 OFFCURVE",
"793 1264 CURVE"
);
}
);
width = 1575;
}
);
note = A;
unicode = 0041;
},
{
glyphname = B;
lastChange = "2021-04-30 12:39:38 +0000";
layers = (
{
layerId = "60F86E82-B86D-46D3-A6A0-C6D09B755248";
paths = (
{
closed = 1;
nodes = (
"1433 438 OFFCURVE",
"1422 483 OFFCURVE",
"1404 524 CURVE SMOOTH",
"1368 605 OFFCURVE",
"1307 675 OFFCURVE",
"1200 711 CURVE",
"1288 780 OFFCURVE",
"1348 885 OFFCURVE",
"1348 1034 CURVE SMOOTH",
"1348 1149 OFFCURVE",
"1311 1232 OFFCURVE",
"1251 1292 CURVE SMOOTH",
"1221 1322 OFFCURVE",
"1186 1347 OFFCURVE",
"1145 1366 CURVE SMOOTH",
"1064 1405 OFFCURVE",
"969 1426 OFFCURVE",
"866 1435 CURVE SMOOTH",
"815 1440 OFFCURVE",
"764 1443 OFFCURVE",
"713 1444 CURVE SMOOTH",
"660 1445 OFFCURVE",
"603 1444 OFFCURVE",
"543 1441 CURVE SMOOTH",
"440 1436 OFFCURVE",
"305 1424 OFFCURVE",
"166 1399 CURVE",
"209 -57 LINE",
"370 -70 OFFCURVE",
"505 -76 OFFCURVE",
"616 -76 CURVE SMOOTH",
"725 -76 OFFCURVE",
"855 -72 OFFCURVE",
"979 -50 CURVE SMOOTH",
"1040 -39 OFFCURVE",
"1099 -23 OFFCURVE",
"1156 -2 CURVE SMOOTH",
"1268 41 OFFCURVE",
"1355 108 OFFCURVE",
"1404 209 CURVE SMOOTH",
"1429 260 OFFCURVE",
"1440 320 OFFCURVE",
"1438 391 CURVE"
);
},
{
closed = 1;
nodes = (
"773 1266 OFFCURVE",
"836 1265 OFFCURVE",
"896 1254 CURVE SMOOTH",
"925 1248 OFFCURVE",
"954 1240 OFFCURVE",
"982 1229 CURVE SMOOTH",
"1037 1207 OFFCURVE",
"1081 1172 OFFCURVE",
"1110 1122 CURVE SMOOTH",
"1124 1097 OFFCURVE",
"1133 1067 OFFCURVE",
"1137 1034 CURVE SMOOTH",
"1146 943 OFFCURVE",
"1106 874 OFFCURVE",
"1039 826 CURVE SMOOTH",
"972 778 OFFCURVE",
"879 750 OFFCURVE",
"780 745 CURVE SMOOTH",
"749 742 OFFCURVE",
"713 740 OFFCURVE",
"673 737 CURVE SMOOTH",
"605 733 OFFCURVE",
"510 728 OFFCURVE",
"395 725 CURVE",
"379 1235 LINE",
"470 1248 OFFCURVE",
"552 1256 OFFCURVE",
"615 1259 CURVE SMOOTH",
"652 1261 OFFCURVE",
"686 1262 OFFCURVE",
"717 1262 CURVE"
);
},
{
closed = 1;
nodes = (
"1040 584 OFFCURVE",
"1127 545 OFFCURVE",
"1179 486 CURVE SMOOTH",
"1204 457 OFFCURVE",
"1219 425 OFFCURVE",
"1225 389 CURVE",
"1229 289 OFFCURVE",
"1174 225 OFFCURVE",
"1091 183 CURVE SMOOTH",
"1049 162 OFFCURVE",
"1002 146 OFFCURVE",
"950 135 CURVE SMOOTH",
"845 113 OFFCURVE",
"738 105 OFFCURVE",
"643 105 CURVE SMOOTH",
"595 104 OFFCURVE",
"555 104 OFFCURVE",
"524 104 CURVE SMOOTH",
"471 104 LINE SMOOTH",
"453 104 OFFCURVE",
"435 105 OFFCURVE",
"416 106 CURVE",
"401 549 LINE",
"501 554 OFFCURVE",
"598 561 OFFCURVE",
"670 566 CURVE SMOOTH",
"788 575 LINE SMOOTH",
"798 575 OFFCURVE",
"886 582 OFFCURVE",
"907 584 CURVE"
);
}
);
width = 1516;
}
);
note = B;
unicode = 0042;
},
{
glyphname = C;
lastChange = "2021-04-30 12:39:38 +0000";
layers = (
{
layerId = "60F86E82-B86D-46D3-A6A0-C6D09B755248";
paths = (
{
closed = 1;
nodes = (
"1239 303 OFFCURVE",
"1172 243 OFFCURVE",
"1096 202 CURVE SMOOTH",
"1019 161 OFFCURVE",
"931 137 OFFCURVE",
"838 137 CURVE SMOOTH",
"683 137 OFFCURVE",
"545 202 OFFCURVE",
"444 306 CURVE SMOOTH",
"343 410 OFFCURVE",
"281 554 OFFCURVE",
"281 713 CURVE SMOOTH",
"281 872 OFFCURVE",
"343 1015 OFFCURVE",
"444 1119 CURVE SMOOTH",
"545 1223 OFFCURVE",
"683 1288 OFFCURVE",
"838 1288 CURVE SMOOTH",
"1015 1288 OFFCURVE",
"1168 1206 OFFCURVE",
"1272 1077 CURVE",
"1425 1202 LINE",
"1356 1289 OFFCURVE",
"1268 1361 OFFCURVE",
"1168 1410 CURVE SMOOTH",
"1068 1459 OFFCURVE",
"957 1487 OFFCURVE",
"838 1487 CURVE SMOOTH",
"699 1487 OFFCURVE",
"568 1449 OFFCURVE",
"456 1382 CURVE SMOOTH",
"400 1348 OFFCURVE",
"349 1308 OFFCURVE",
"303 1261 CURVE SMOOTH",
"211 1167 OFFCURVE",
"145 1051 OFFCURVE",
"109 919 CURVE SMOOTH",
"91 853 OFFCURVE",
"82 784 OFFCURVE",
"82 713 CURVE SMOOTH",
"82 570 OFFCURVE",
"120 437 OFFCURVE",
"185 322 CURVE SMOOTH",
"218 265 OFFCURVE",
"257 213 OFFCURVE",
"303 166 CURVE SMOOTH",
"395 72 OFFCURVE",
"508 3 OFFCURVE",
"637 -34 CURVE SMOOTH",
"701 -52 OFFCURVE",
"768 -61 OFFCURVE",
"838 -61 CURVE SMOOTH",
"965 -61 OFFCURVE",
"1084 -29 OFFCURVE",
"1189 27 CURVE SMOOTH",
"1293 83 OFFCURVE",
"1384 163 OFFCURVE",
"1452 262 CURVE",
"1290 375 LINE"
);
}
);
width = 1503;
}
);
note = C;
unicode = 0043;
},
{
glyphname = D;
lastChange = "2021-04-30 12:39:38 +0000";
layers = (
{
layerId = "60F86E82-B86D-46D3-A6A0-C6D09B755248";
paths = (
{
closed = 1;
nodes = (
"1460 951 OFFCURVE",
"1398 1104 OFFCURVE",
"1299 1212 CURVE SMOOTH",
"1249 1265 OFFCURVE",
"1191 1308 OFFCURVE",
"1125 1341 CURVE SMOOTH",
"992 1406 OFFCURVE",
"841 1440 OFFCURVE",
"684 1452 CURVE SMOOTH",
"605 1457 OFFCURVE",
"529 1460 OFFCURVE",
"455 1460 CURVE SMOOTH",
"371 1460 OFFCURVE",
"274 1456 OFFCURVE",
"170 1448 CURVE",
"209 -37 LINE",
"256 -45 OFFCURVE",
"309 -47 OFFCURVE",
"362 -47 CURVE SMOOTH",
"519 -47 OFFCURVE",
"693 -22 OFFCURVE",
"856 31 CURVE SMOOTH",
"937 58 OFFCURVE",
"1015 92 OFFCURVE",
"1088 134 CURVE SMOOTH",
"1235 217 OFFCURVE",
"1347 333 OFFCURVE",
"1412 483 CURVE SMOOTH",
"1444 558 OFFCURVE",
"1460 642 OFFCURVE",
"1460 735 CURVE SMOOTH"
);
},
{
closed = 1;
nodes = (
"1276 618 OFFCURVE",
"1232 509 OFFCURVE",
"1159 421 CURVE SMOOTH",
"1122 376 OFFCURVE",
"1079 337 OFFCURVE",
"1028 303 CURVE SMOOTH",
"927 234 OFFCURVE",
"806 187 OFFCURVE",
"674 163 CURVE SMOOTH",
"608 151 OFFCURVE",
"542 145 OFFCURVE",
"475 145 CURVE SMOOTH",
"441 145 LINE SMOOTH",
"429 145 OFFCURVE",
"417 146 OFFCURVE",
"406 147 CURVE",
"375 1278 LINE",
"435 1285 OFFCURVE",
"492 1288 OFFCURVE",
"543 1288 CURVE SMOOTH",
"662 1288 OFFCURVE",
"781 1271 OFFCURVE",
"888 1234 CURVE SMOOTH",
"941 1215 OFFCURVE",
"991 1192 OFFCURVE",
"1037 1163 CURVE SMOOTH",
"1129 1105 OFFCURVE",
"1199 1025 OFFCURVE",
"1239 921 CURVE SMOOTH",
"1259 868 OFFCURVE",
"1270 810 OFFCURVE",
"1272 745 CURVE SMOOTH"
);
}
);
width = 1546;
}
);
note = D;
unicode = 0044;
},
{
glyphname = E;
lastChange = "2021-04-30 12:39:38 +0000";
layers = (
{
layerId = "60F86E82-B86D-46D3-A6A0-C6D09B755248";
paths = (
{
closed = 1;
nodes = (
"373 1229 LINE",
"1255 1243 LINE",
"1262 1434 LINE",
"176 1417 LINE",
"199 -8 LINE",
"1255 49 LINE",
"1251 246 LINE",
"387 197 LINE",
"383 510 LINE",
"977 539 LINE",
"973 731 LINE",
"379 707 LINE"
);
}
);
width = 1350;
}
);
note = E;
unicode = 0045;
},
{
glyphname = F;
lastChange = "2021-04-30 12:39:38 +0000";
layers = (
{
layerId = "60F86E82-B86D-46D3-A6A0-C6D09B755248";
paths = (
{
closed = 1;
nodes = (
"373 1229 LINE",
"1255 1243 LINE",
"1262 1434 LINE",
"176 1417 LINE",
"199 -8 LINE",
"391 0 LINE",
"383 510 LINE",
"977 539 LINE",
"973 731 LINE",
"381 707 LINE"
);
}
);
width = 1290;
}
);
note = F;
unicode = 0046;
},
{
glyphname = G;
lastChange = "2021-04-30 12:39:38 +0000";
layers = (
{
layerId = "60F86E82-B86D-46D3-A6A0-C6D09B755248";
paths = (
{
closed = 1;
nodes = (
"629 508 LINE",
"1241 532 LINE",
"1245 319 LINE",
"1142 206 OFFCURVE",
"999 137 OFFCURVE",
"838 137 CURVE SMOOTH",
"683 137 OFFCURVE",
"545 202 OFFCURVE",
"444 306 CURVE SMOOTH",
"343 410 OFFCURVE",
"281 554 OFFCURVE",
"281 713 CURVE SMOOTH",
"281 872 OFFCURVE",
"343 1015 OFFCURVE",
"444 1119 CURVE SMOOTH",
"545 1223 OFFCURVE",
"683 1288 OFFCURVE",
"838 1288 CURVE SMOOTH",
"1015 1288 OFFCURVE",
"1168 1206 OFFCURVE",
"1272 1077 CURVE",
"1425 1202 LINE",
"1356 1289 OFFCURVE",
"1268 1361 OFFCURVE",
"1168 1410 CURVE SMOOTH",
"1068 1459 OFFCURVE",
"957 1487 OFFCURVE",
"838 1487 CURVE SMOOTH",
"699 1487 OFFCURVE",
"568 1449 OFFCURVE",
"456 1382 CURVE SMOOTH",
"400 1348 OFFCURVE",
"349 1308 OFFCURVE",
"303 1261 CURVE SMOOTH",
"211 1167 OFFCURVE",
"145 1051 OFFCURVE",
"109 919 CURVE SMOOTH",
"91 853 OFFCURVE",
"82 784 OFFCURVE",
"82 713 CURVE SMOOTH",
"82 570 OFFCURVE",
"120 437 OFFCURVE",
"185 322 CURVE SMOOTH",
"218 265 OFFCURVE",
"257 213 OFFCURVE",
"303 166 CURVE SMOOTH",
"395 72 OFFCURVE",
"508 3 OFFCURVE",
"637 -34 CURVE SMOOTH",
"701 -52 OFFCURVE",
"768 -61 OFFCURVE",
"838 -61 CURVE SMOOTH",
"965 -61 OFFCURVE",
"1084 -29 OFFCURVE",
"1189 27 CURVE SMOOTH",
"1293 83 OFFCURVE",
"1384 163 OFFCURVE",
"1452 262 CURVE",
"1436 743 LINE",
"629 717 LINE"
);
}
);
width = 1548;
}
);
note = G;
unicode = 0047;
},
{
glyphname = H;
lastChange = "2021-04-30 12:39:38 +0000";
layers = (
{
layerId = "60F86E82-B86D-46D3-A6A0-C6D09B755248";
paths = (
{
closed = 1;
nodes = (
"199 0 LINE",
"408 8 LINE",
"401 457 LINE",
"1284 496 LINE",
"1290 18 LINE",
"1505 35 LINE",
"1493 1409 LINE",
"1270 1425 LINE",
"1280 682 LINE",
"399 639 LINE",
"391 1440 LINE",
"180 1430 LINE"
);
}
);
width = 1686;
}
);
note = H;
unicode = 0048;
},
{
glyphname = I;
lastChange = "2021-04-30 12:39:38 +0000";
layers = (
{
layerId = "60F86E82-B86D-46D3-A6A0-C6D09B755248";
paths = (
{
closed = 1;
nodes = (
"207 35 LINE",
"408 35 LINE",
"395 1417 LINE",
"172 1425 LINE"
);
}
);
width = 590;
}
);
note = I;
unicode = 0049;
},
{
glyphname = J;
lastChange = "2021-04-30 12:39:38 +0000";
layers = (
{
layerId = "60F86E82-B86D-46D3-A6A0-C6D09B755248";
paths = (
{
closed = 1;
nodes = (
"1192 619 OFFCURVE",
"1191 755 OFFCURVE",
"1188 892 CURVE SMOOTH",
"1187 960 OFFCURVE",
"1185 1027 OFFCURVE",
"1184 1092 CURVE SMOOTH",
"1180 1222 OFFCURVE",
"1177 1327 OFFCURVE",
"1174 1390 CURVE SMOOTH",
"1172 1421 OFFCURVE",
"1170 1437 OFFCURVE",
"1169 1438 CURVE",
"952 1434 LINE SMOOTH",
"958 1434 OFFCURVE",
"963 1344 OFFCURVE",
"968 1280 CURVE SMOOTH",
"971 1233 OFFCURVE",
"974 1181 OFFCURVE",
"977 1122 CURVE SMOOTH",
"983 1005 OFFCURVE",
"987 883 OFFCURVE",
"991 775 CURVE SMOOTH",
"992 720 OFFCURVE",
"993 674 OFFCURVE",
"993 635 CURVE SMOOTH",
"993 560 OFFCURVE",
"986 484 OFFCURVE",
"966 414 CURVE SMOOTH",
"955 379 OFFCURVE",
"941 346 OFFCURVE",
"923 315 CURVE SMOOTH",
"887 253 OFFCURVE",
"833 204 OFFCURVE",
"755 173 CURVE SMOOTH",
"716 157 OFFCURVE",
"670 147 OFFCURVE",
"618 143 CURVE",
"547 142 OFFCURVE",
"485 158 OFFCURVE",
"430 189 CURVE SMOOTH",
"383 216 OFFCURVE",
"337 257 OFFCURVE",
"305 322 CURVE SMOOTH",
"272 387 OFFCURVE",
"252 477 OFFCURVE",
"256 598 CURVE",
"45 575 LINE",
"49 390 OFFCURVE",
"100 227 OFFCURVE",
"197 112 CURVE SMOOTH",
"293 -3 OFFCURVE",
"435 -69 OFFCURVE",
"623 -57 CURVE SMOOTH",
"786 -48 OFFCURVE",
"928 13 OFFCURVE",
"1030 113 CURVE SMOOTH",
"1132 212 OFFCURVE",
"1192 351 OFFCURVE",
"1192 516 CURVE SMOOTH"
);
}
);
width = 1356;
}
);
note = J;
unicode = 004A;
},
{
glyphname = K;
lastChange = "2021-04-30 12:39:38 +0000";
layers = (
{
layerId = "60F86E82-B86D-46D3-A6A0-C6D09B755248";
paths = (
{
closed = 1;
nodes = (
"199 -8 LINE",
"422 -4 LINE",
"414 293 LINE",
"788 721 LINE",
"1174 -27 LINE",
"1409 8 LINE",
"920 870 LINE",
"1389 1405 LINE",
"1165 1434 LINE",
"408 573 LINE",
"387 1425 LINE",
"176 1409 LINE"
);
}
);
width = 1440;
}
);
note = K;
unicode = 004B;
},
{
glyphname = L;
lastChange = "2021-04-30 12:39:38 +0000";
layers = (
{
layerId = "60F86E82-B86D-46D3-A6A0-C6D09B755248";
paths = (
{
closed = 1;
nodes = (
"391 1434 LINE",
"184 1423 LINE",
"190 -98 LINE",
"1280 -23 LINE",
"1270 190 LINE",
"385 121 LINE"
);
}
);
width = 1323;
}
);
note = L;
unicode = 004C;
},
{
glyphname = M;
lastChange = "2021-04-30 12:39:38 +0000";
layers = (
{
layerId = "60F86E82-B86D-46D3-A6A0-C6D09B755248";
paths = (
{
closed = 1;
nodes = (
"950 297 LINE",
"547 1450 LINE",
"340 1450 LINE",
"63 -8 LINE",
"274 -37 LINE",
"455 1110 LINE",
"829 55 LINE",
"1077 84 LINE",
"1407 1171 LINE",
"1608 -84 LINE",
"1815 -43 LINE",
"1544 1444 LINE",
"1309 1438 LINE"
);
}
);
width = 1880;
}
);
note = M;
unicode = 004D;
},
{
glyphname = N;
lastChange = "2021-04-30 12:39:38 +0000";
layers = (
{
layerId = "60F86E82-B86D-46D3-A6A0-C6D09B755248";
paths = (
{
closed = 1;
nodes = (
"199 0 LINE",
"408 8 LINE",
"395 1087 LINE",
"1290 18 LINE",
"1505 35 LINE",
"1493 1409 LINE",
"1270 1425 LINE",
"1286 332 LINE",
"391 1440 LINE",
"180 1430 LINE"
);
}
);
width = 1686;
}
);
note = N;
unicode = 004E;
},
{
glyphname = O;
lastChange = "2021-04-30 12:39:38 +0000";
layers = (
{
layerId = "60F86E82-B86D-46D3-A6A0-C6D09B755248";
paths = (
{
closed = 1;
nodes = (
"1595 850 OFFCURVE",
"1558 983 OFFCURVE",
"1492 1098 CURVE SMOOTH",
"1459 1155 OFFCURVE",
"1419 1208 OFFCURVE",
"1373 1255 CURVE SMOOTH",
"1281 1349 OFFCURVE",
"1167 1417 OFFCURVE",
"1039 1454 CURVE SMOOTH",
"974 1472 OFFCURVE",
"907 1481 OFFCURVE",
"838 1481 CURVE SMOOTH",
"699 1481 OFFCURVE",
"568 1443 OFFCURVE",
"456 1376 CURVE SMOOTH",
"400 1342 OFFCURVE",
"349 1302 OFFCURVE",
"303 1255 CURVE SMOOTH",
"211 1161 OFFCURVE",
"145 1045 OFFCURVE",
"109 913 CURVE SMOOTH",
"91 847 OFFCURVE",
"82 778 OFFCURVE",
"82 707 CURVE SMOOTH",
"82 564 OFFCURVE",
"120 432 OFFCURVE",
"185 317 CURVE SMOOTH",
"218 260 OFFCURVE",
"257 207 OFFCURVE",
"303 160 CURVE SMOOTH",
"395 65 OFFCURVE",
"508 -3 OFFCURVE",
"637 -40 CURVE SMOOTH",
"701 -59 OFFCURVE",
"768 -68 OFFCURVE",
"838 -68 CURVE SMOOTH",
"977 -68 OFFCURVE",
"1107 -29 OFFCURVE",
"1220 39 CURVE SMOOTH",
"1276 72 OFFCURVE",
"1327 113 OFFCURVE",
"1373 160 CURVE SMOOTH",
"1465 255 OFFCURVE",
"1532 370 OFFCURVE",
"1568 502 CURVE SMOOTH",
"1586 567 OFFCURVE",
"1595 636 OFFCURVE",
"1595 707 CURVE SMOOTH"
);
},
{
closed = 1;
nodes = (
"1397 600 OFFCURVE",
"1369 501 OFFCURVE",
"1321 416 CURVE SMOOTH",
"1296 373 OFFCURVE",
"1267 335 OFFCURVE",
"1233 300 CURVE SMOOTH",
"1165 230 OFFCURVE",
"1082 179 OFFCURVE",
"987 152 CURVE SMOOTH",
"939 138 OFFCURVE",
"889 131 OFFCURVE",
"838 131 CURVE SMOOTH",
"683 131 OFFCURVE",
"545 196 OFFCURVE",
"444 300 CURVE SMOOTH",
"343 404 OFFCURVE",
"281 548 OFFCURVE",
"281 707 CURVE SMOOTH",
"281 866 OFFCURVE",
"343 1009 OFFCURVE",
"444 1113 CURVE SMOOTH",
"545 1217 OFFCURVE",
"683 1282 OFFCURVE",
"838 1282 CURVE SMOOTH",
"941 1282 OFFCURVE",
"1037 1254 OFFCURVE",
"1120 1204 CURVE SMOOTH",
"1161 1179 OFFCURVE",
"1199 1149 OFFCURVE",
"1233 1114 CURVE SMOOTH",
"1301 1044 OFFCURVE",
"1350 958 OFFCURVE",
"1377 860 CURVE SMOOTH",
"1390 811 OFFCURVE",
"1397 760 OFFCURVE",
"1397 707 CURVE SMOOTH"
);
}
);
width = 1677;
}
);
note = O;
unicode = 004F;
},
{
glyphname = P;
lastChange = "2021-04-30 12:39:38 +0000";
layers = (
{
layerId = "60F86E82-B86D-46D3-A6A0-C6D09B755248";
paths = (
{
closed = 1;
nodes = (
"1437 1060 OFFCURVE",
"1390 1181 OFFCURVE",
"1315 1270 CURVE SMOOTH",
"1277 1314 OFFCURVE",
"1233 1351 OFFCURVE",
"1184 1380 CURVE SMOOTH",
"1084 1439 OFFCURVE",
"975 1473 OFFCURVE",
"871 1487 CURVE SMOOTH",
"818 1494 OFFCURVE",
"770 1497 OFFCURVE",
"727 1497 CURVE SMOOTH",
"676 1496 OFFCURVE",
"621 1492 OFFCURVE",
"562 1485 CURVE SMOOTH",
"462 1473 OFFCURVE",
"327 1452 OFFCURVE",
"186 1405 CURVE",
"186 -10 LINE",
"397 -2 LINE",
"393 399 LINE",
"498 380 OFFCURVE",
"591 377 OFFCURVE",
"666 377 CURVE SMOOTH",
"779 377 OFFCURVE",
"901 393 OFFCURVE",
"1013 429 CURVE SMOOTH",
"1068 446 OFFCURVE",
"1121 469 OFFCURVE",
"1170 496 CURVE SMOOTH",
"1269 551 OFFCURVE",
"1346 628 OFFCURVE",
"1392 729 CURVE SMOOTH",
"1415 779 OFFCURVE",
"1427 836 OFFCURVE",
"1430 899 CURVE SMOOTH"
);
},
{
closed = 1;
nodes = (
"872 1273 OFFCURVE",
"991 1242 OFFCURVE",
"1075 1187 CURVE SMOOTH",
"1158 1131 OFFCURVE",
"1204 1051 OFFCURVE",
"1204 948 CURVE SMOOTH",
"1204 845 OFFCURVE",
"1165 771 OFFCURVE",
"1105 717 CURVE SMOOTH",
"1075 690 OFFCURVE",
"1040 667 OFFCURVE",
"1001 650 CURVE SMOOTH",
"922 615 OFFCURVE",
"836 597 OFFCURVE",
"749 590 CURVE SMOOTH",
"706 586 OFFCURVE",
"665 584 OFFCURVE",
"627 584 CURVE SMOOTH",
"556 584 OFFCURVE",
"474 588 OFFCURVE",
"391 604 CURVE",
"387 1227 LINE",
"462 1254 OFFCURVE",
"544 1267 OFFCURVE",
"612 1272 CURVE SMOOTH",
"651 1275 OFFCURVE",
"689 1276 OFFCURVE",
"727 1276 CURVE SMOOTH"
);
}
);
width = 1479;
}
);
note = P;
unicode = 0050;
},
{
glyphname = Q;
lastChange = "2021-04-30 12:39:38 +0000";
layers = (
{
layerId = "60F86E82-B86D-46D3-A6A0-C6D09B755248";
paths = (
{
closed = 1;
nodes = (
"1420 182 OFFCURVE",
"1484 269 OFFCURVE",
"1528 367 CURVE SMOOTH",
"1571 465 OFFCURVE",
"1595 573 OFFCURVE",
"1595 686 CURVE SMOOTH",
"1595 829 OFFCURVE",
"1558 962 OFFCURVE",
"1492 1077 CURVE SMOOTH",
"1459 1134 OFFCURVE",
"1419 1187 OFFCURVE",
"1373 1234 CURVE SMOOTH",
"1281 1328 OFFCURVE",
"1167 1396 OFFCURVE",
"1039 1433 CURVE SMOOTH",
"974 1451 OFFCURVE",
"907 1460 OFFCURVE",
"838 1460 CURVE SMOOTH",
"699 1460 OFFCURVE",
"568 1422 OFFCURVE",
"456 1355 CURVE SMOOTH",
"400 1321 OFFCURVE",
"349 1281 OFFCURVE",
"303 1234 CURVE SMOOTH",
"211 1140 OFFCURVE",
"145 1024 OFFCURVE",
"109 892 CURVE SMOOTH",
"91 826 OFFCURVE",
"82 757 OFFCURVE",
"82 686 CURVE SMOOTH",
"82 545 OFFCURVE",
"120 411 OFFCURVE",
"185 296 CURVE SMOOTH",
"218 239 OFFCURVE",
"257 186 OFFCURVE",
"303 139 CURVE SMOOTH",
"395 44 OFFCURVE",
"508 -24 OFFCURVE",
"637 -61 CURVE SMOOTH",
"701 -79 OFFCURVE",
"768 -88 OFFCURVE",
"838 -88 CURVE SMOOTH",
"963 -88 OFFCURVE",
"1083 -56 OFFCURVE",
"1188 0 CURVE",
"1430 -258 LINE",
"1573 -131 LINE",
"1343 111 LINE"
);
},
{
closed = 1;
nodes = (
"1397 513 OFFCURVE",
"1324 361 OFFCURVE",
"1208 254 CURVE",
"991 485 LINE",
"856 354 LINE",
"1044 152 LINE",
"980 125 OFFCURVE",
"911 111 OFFCURVE",
"838 111 CURVE SMOOTH",
"683 111 OFFCURVE",
"545 176 OFFCURVE",
"444 280 CURVE SMOOTH",
"343 384 OFFCURVE",
"281 527 OFFCURVE",
"281 686 CURVE SMOOTH",
"281 845 OFFCURVE",
"343 989 OFFCURVE",
"444 1093 CURVE SMOOTH",
"545 1197 OFFCURVE",
"683 1262 OFFCURVE",
"838 1262 CURVE SMOOTH",
"941 1262 OFFCURVE",
"1037 1234 OFFCURVE",
"1120 1184 CURVE SMOOTH",
"1161 1159 OFFCURVE",
"1199 1129 OFFCURVE",
"1233 1094 CURVE SMOOTH",
"1301 1024 OFFCURVE",
"1350 938 OFFCURVE",
"1377 839 CURVE SMOOTH",
"1390 790 OFFCURVE",
"1397 739 OFFCURVE",
"1397 686 CURVE SMOOTH"
);
}
);
width = 1677;
}
);
note = Q;
unicode = 0051;
},
{
glyphname = R;
lastChange = "2021-04-30 12:39:38 +0000";
layers = (
{
layerId = "60F86E82-B86D-46D3-A6A0-C6D09B755248";
paths = (
{
closed = 1;
nodes = (
"1383 1060 OFFCURVE",
"1337 1179 OFFCURVE",
"1262 1264 CURVE SMOOTH",
"1224 1306 OFFCURVE",
"1180 1341 OFFCURVE",
"1131 1368 CURVE SMOOTH",
"1031 1423 OFFCURVE",
"923 1452 OFFCURVE",
"818 1464 CURVE SMOOTH",
"765 1470 OFFCURVE",
"717 1473 OFFCURVE",
"674 1473 CURVE SMOOTH",
"623 1472 OFFCURVE",
"570 1469 OFFCURVE",
"515 1464 CURVE SMOOTH",
"420 1455 OFFCURVE",
"301 1440 OFFCURVE",
"186 1405 CURVE",
"186 -10 LINE",
"397 -2 LINE",
"393 422 LINE",
"480 406 OFFCURVE",
"560 401 OFFCURVE",
"627 401 CURVE SMOOTH",
"710 401 OFFCURVE",
"776 410 OFFCURVE",
"840 422 CURVE",
"1120 -45 LINE",
"1327 23 LINE",
"1036 481 LINE",
"1128 520 OFFCURVE",
"1212 574 OFFCURVE",
"1273 643 CURVE SMOOTH",
"1334 711 OFFCURVE",
"1374 796 OFFCURVE",
"1378 899 CURVE SMOOTH"
);
},
{
closed = 1;
nodes = (
"819 1272 OFFCURVE",
"944 1242 OFFCURVE",
"1032 1187 CURVE SMOOTH",
"1120 1131 OFFCURVE",
"1171 1051 OFFCURVE",
"1171 948 CURVE SMOOTH",
"1171 847 OFFCURVE",
"1102 757 OFFCURVE",
"994 693 CURVE SMOOTH",
"886 629 OFFCURVE",
"738 590 OFFCURVE",
"578 590 CURVE SMOOTH",
"518 590 OFFCURVE",
"454 594 OFFCURVE",
"391 606 CURVE",
"387 1243 LINE",
"451 1258 OFFCURVE",
"523 1264 OFFCURVE",
"579 1268 CURVE SMOOTH",
"612 1271 OFFCURVE",
"643 1272 OFFCURVE",
"674 1272 CURVE SMOOTH"
);
}
);
width = 1462;
}
);
note = R;
unicode = 0052;
},
{
glyphname = S;
lastChange = "2021-04-30 12:39:39 +0000";
layers = (
{
layerId = "60F86E82-B86D-46D3-A6A0-C6D09B755248";
paths = (
{
closed = 1;
nodes = (
"1262 340 OFFCURVE",
"1236 426 OFFCURVE",
"1185 495 CURVE SMOOTH",
"1160 529 OFFCURVE",
"1129 559 OFFCURVE",
"1092 586 CURVE SMOOTH",
"1018 638 OFFCURVE",
"928 675 OFFCURVE",
"832 699 CURVE SMOOTH",
"783 711 OFFCURVE",
"735 720 OFFCURVE",
"686 725 CURVE SMOOTH",
"574 740 OFFCURVE",
"474 778 OFFCURVE",
"402 830 CURVE SMOOTH",
"330 882 OFFCURVE",
"287 948 OFFCURVE",
"287 1016 CURVE SMOOTH",
"287 1085 OFFCURVE",
"322 1161 OFFCURVE",
"387 1219 CURVE SMOOTH",
"451 1277 OFFCURVE",
"547 1317 OFFCURVE",
"668 1317 CURVE SMOOTH",
"717 1315 OFFCURVE",
"768 1307 OFFCURVE",
"819 1293 CURVE SMOOTH",
"909 1268 OFFCURVE",
"1021 1215 OFFCURVE",
"1100 1126 CURVE",
"1212 1303 LINE",
"1110 1400 OFFCURVE",
"980 1455 OFFCURVE",
"865 1484 CURVE SMOOTH",
"802 1500 OFFCURVE",
"739 1510 OFFCURVE",
"676 1513 CURVE SMOOTH",
"585 1514 OFFCURVE",
"492 1501 OFFCURVE",
"407 1469 CURVE SMOOTH",
"364 1453 OFFCURVE",
"324 1433 OFFCURVE",
"287 1409 CURVE SMOOTH",
"211 1360 OFFCURVE",
"152 1292 OFFCURVE",
"116 1206 CURVE SMOOTH",
"97 1163 OFFCURVE",
"86 1114 OFFCURVE",
"82 1061 CURVE SMOOTH",
"73 932 OFFCURVE",
"103 833 OFFCURVE",
"156 758 CURVE SMOOTH",
"182 720 OFFCURVE",
"213 688 OFFCURVE",
"249 661 CURVE SMOOTH",
"321 608 OFFCURVE",
"404 573 OFFCURVE",
"488 551 CURVE SMOOTH",
"530 540 OFFCURVE",
"570 531 OFFCURVE",
"608 524 CURVE SMOOTH",
"671 513 OFFCURVE",
"740 498 OFFCURVE",
"804 478 CURVE SMOOTH",
"835 467 OFFCURVE",
"865 456 OFFCURVE",
"893 443 CURVE SMOOTH",
"949 417 OFFCURVE",
"992 382 OFFCURVE",
"1013 342 CURVE SMOOTH",
"1024 321 OFFCURVE",
"1028 299 OFFCURVE",
"1026 274 CURVE SMOOTH",
"1019 215 OFFCURVE",
"981 161 OFFCURVE",
"919 123 CURVE SMOOTH",
"857 85 OFFCURVE",
"772 63 OFFCURVE",
"676 68 CURVE",
"633 73 OFFCURVE",
"587 84 OFFCURVE",
"540 100 CURVE SMOOTH",
"459 127 OFFCURVE",
"352 176 OFFCURVE",
"248 268 CURVE",
"102 96 LINE",
"194 31 OFFCURVE",
"288 -25 OFFCURVE",
"385 -65 CURVE SMOOTH",
"481 -104 OFFCURVE",
"581 -127 OFFCURVE",
"684 -127 CURVE SMOOTH",
"759 -127 OFFCURVE",
"842 -118 OFFCURVE",
"922 -95 CURVE SMOOTH",
"961 -84 OFFCURVE",
"999 -69 OFFCURVE",
"1036 -51 CURVE SMOOTH",
"1108 -14 OFFCURVE",
"1168 39 OFFCURVE",
"1208 112 CURVE SMOOTH",
"1227 148 OFFCURVE",
"1240 189 OFFCURVE",
"1247 236 CURVE SMOOTH"
);
}
);
width = 1321;
}
);
note = S;
unicode = 0053;
},
{
glyphname = T;
lastChange = "2021-04-30 12:39:39 +0000";
layers = (
{
layerId = "60F86E82-B86D-46D3-A6A0-C6D09B755248";
paths = (
{
closed = 1;
nodes = (
"518 1227 LINE",
"518 -31 LINE",
"739 -27 LINE",
"725 1235 LINE",
"1192 1253 LINE",
"1196 1444 LINE",
"41 1419 LINE",
"45 1208 LINE"
);
}
);
width = 1233;
}
);
note = T;
unicode = 0054;
},
{
glyphname = U;
lastChange = "2021-04-30 12:39:39 +0000";
layers = (
{
layerId = "60F86E82-B86D-46D3-A6A0-C6D09B755248";
paths = (
{
closed = 1;
nodes = (
"1288 749 OFFCURVE",
"1284 819 OFFCURVE",
"1277 896 CURVE SMOOTH",
"1265 1029 OFFCURVE",
"1245 1214 OFFCURVE",
"1202 1434 CURVE",
"989 1405 LINE",
"1029 1212 OFFCURVE",
"1050 1035 OFFCURVE",
"1061 902 CURVE SMOOTH",
"1068 825 OFFCURVE",
"1072 753 OFFCURVE",
"1073 686 CURVE SMOOTH",
"1076 519 OFFCURVE",
"1042 383 OFFCURVE",
"979 288 CURVE SMOOTH",
"916 193 OFFCURVE",
"826 141 OFFCURVE",
"715 141 CURVE SMOOTH",
"608 141 OFFCURVE",
"532 188 OFFCURVE",
"479 258 CURVE SMOOTH",
"452 293 OFFCURVE",
"431 333 OFFCURVE",
"415 378 CURVE SMOOTH",
"382 468 OFFCURVE",
"365 565 OFFCURVE",
"359 657 CURVE SMOOTH",
"356 703 OFFCURVE",
"354 745 OFFCURVE",
"354 782 CURVE SMOOTH",
"354 846 OFFCURVE",
"356 937 OFFCURVE",
"367 1045 CURVE SMOOTH",
"378 1153 OFFCURVE",
"395 1277 OFFCURVE",
"426 1409 CURVE",
"209 1440 LINE",
"172 1237 OFFCURVE",
"156 1054 OFFCURVE",
"149 919 CURVE SMOOTH",
"145 840 OFFCURVE",
"144 768 OFFCURVE",
"145 702 CURVE SMOOTH",
"148 598 OFFCURVE",
"163 481 OFFCURVE",
"196 370 CURVE SMOOTH",
"212 315 OFFCURVE",
"234 262 OFFCURVE",
"261 212 CURVE SMOOTH",
"315 112 OFFCURVE",
"393 33 OFFCURVE",
"500 -12 CURVE SMOOTH",
"553 -34 OFFCURVE",
"615 -45 OFFCURVE",
"686 -45 CURVE SMOOTH",
"826 -45 OFFCURVE",
"942 -6 OFFCURVE",
"1032 62 CURVE SMOOTH",
"1077 95 OFFCURVE",
"1116 135 OFFCURVE",
"1149 181 CURVE SMOOTH",
"1215 272 OFFCURVE",
"1257 382 OFFCURVE",
"1277 503 CURVE SMOOTH",
"1286 563 OFFCURVE",
"1291 624 OFFCURVE",
"1290 686 CURVE SMOOTH"
);
}
);
width = 1427;
}
);
note = U;
unicode = 0055;
},
{
glyphname = V;
lastChange = "2021-04-30 12:39:39 +0000";
layers = (
{
layerId = "60F86E82-B86D-46D3-A6A0-C6D09B755248";
paths = (
{
closed = 1;
nodes = (
"1199 1011 OFFCURVE",
"1001 575 OFFCURVE",
"774 170 CURVE",
"670 383 OFFCURVE",
"579 593 OFFCURVE",
"499 805 CURVE SMOOTH",
"419 1017 OFFCURVE",
"349 1231 OFFCURVE",
"285 1458 CURVE",
"49 1423 LINE",
"203 920 OFFCURVE",
"394 438 OFFCURVE",
"623 -25 CURVE",
"901 -29 LINE",
"1161 448 OFFCURVE",
"1391 936 OFFCURVE",
"1579 1440 CURVE",
"1352 1470 LINE"
);
}
);
width = 1575;
}
);
note = V;
unicode = 0056;
},
{
glyphname = W;
lastChange = "2021-04-30 12:39:39 +0000";
layers = (
{
layerId = "60F86E82-B86D-46D3-A6A0-C6D09B755248";
paths = (
{
closed = 1;
nodes = (
"1077 1331 LINE",
"829 1360 LINE",
"455 305 LINE",
"274 1452 LINE",
"63 1423 LINE",
"340 -35 LINE",
"547 -35 LINE",
"950 1118 LINE",
"1309 -23 LINE",
"1544 -29 LINE",
"1815 1458 LINE",
"1608 1499 LINE",
"1407 244 LINE"
);
}
);
width = 1882;
}
);
note = W;
unicode = 0057;
},
{
glyphname = X;
lastChange = "2021-04-30 12:39:39 +0000";
layers = (
{
layerId = "60F86E82-B86D-46D3-A6A0-C6D09B755248";
paths = (
{
closed = 1;
nodes = (
"276 1423 LINE",
"51 1399 LINE",
"489 725 LINE",
"25 -2 LINE",
"236 -41 LINE",
"608 543 LINE",
"989 -41 LINE",
"1204 -2 LINE",
"727 731 LINE",
"1149 1395 LINE",
"932 1419 LINE",
"608 913 LINE"
);
}
);
width = 1219;
}
);
note = X;
unicode = 0058;
},
{
glyphname = Y;
lastChange = "2021-04-30 12:39:39 +0000";
layers = (
{
layerId = "60F86E82-B86D-46D3-A6A0-C6D09B755248";
paths = (
{
closed = 1;
nodes = (
"242 1430 LINE",
"6 1403 LINE",
"565 451 LINE",
"549 -45 LINE",
"756 -33 LINE",
"756 446 LINE",
"1255 1423 LINE",
"1028 1430 LINE",
"666 662 LINE"
);
}
);
width = 1298;
}
);
note = Y;
unicode = 0059;
},
{
glyphname = Z;
lastChange = "2021-04-30 12:39:39 +0000";
layers = (
{
layerId = "60F86E82-B86D-46D3-A6A0-C6D09B755248";
paths = (
{
closed = 1;
nodes = (
"905 1251 LINE",
"74 162 LINE",
"82 -27 LINE",
"1151 -23 LINE",
"1159 188 LINE",
"332 180 LINE",
"1171 1266 LINE",
"1176 1438 LINE",
"96 1423 LINE",
"109 1208 LINE"
);
}
);
width = 1251;
}
);
note = Z;
unicode = 005A;
},
{
glyphname = a;
lastChange = "2021-04-30 12:39:39 +0000";
layers = (
{
layerId = "60F86E82-B86D-46D3-A6A0-C6D09B755248";
paths = (
{
closed = 1;
nodes = (
"1151 77 OFFCURVE",
"1165 222 OFFCURVE",
"1165 350 CURVE SMOOTH",
"1165 470 OFFCURVE",
"1152 594 OFFCURVE",
"1120 707 CURVE SMOOTH",
"1104 763 OFFCURVE",
"1084 816 OFFCURVE",
"1059 865 CURVE SMOOTH",
"1009 963 OFFCURVE",
"936 1037 OFFCURVE",
"840 1079 CURVE SMOOTH",
"792 1100 OFFCURVE",
"737 1110 OFFCURVE",
"676 1110 CURVE SMOOTH",
"605 1110 OFFCURVE",
"516 1097 OFFCURVE",
"413 1054 CURVE SMOOTH",
"309 1010 OFFCURVE",
"191 937 OFFCURVE",
"63 817 CURVE",
"184 670 LINE",
"292 779 OFFCURVE",
"387 847 OFFCURVE",
"467 887 CURVE SMOOTH",
"547 927 OFFCURVE",
"614 940 OFFCURVE",
"666 940 CURVE SMOOTH",
"821 940 OFFCURVE",
"885 809 OFFCURVE",
"922 668 CURVE",
"863 679 OFFCURVE",
"786 686 OFFCURVE",
"698 686 CURVE SMOOTH",
"603 686 OFFCURVE",
"505 672 OFFCURVE",
"418 643 CURVE SMOOTH",
"374 628 OFFCURVE",
"333 609 OFFCURVE",
"295 586 CURVE SMOOTH",
"219 539 OFFCURVE",
"162 474 OFFCURVE",
"130 389 CURVE SMOOTH",
"114 346 OFFCURVE",
"106 298 OFFCURVE",
"106 244 CURVE SMOOTH",
"106 136 OFFCURVE",
"152 57 OFFCURVE",
"221 6 CURVE SMOOTH",
"289 -46 OFFCURVE",
"383 -70 OFFCURVE",
"479 -70 CURVE SMOOTH",
"615 -70 OFFCURVE",
"775 -26 OFFCURVE",
"938 78 CURVE",
"924 -63 LINE",
"1120 -96 LINE"
);
},
{
closed = 1;
nodes = (
"840 230 OFFCURVE",
"615 115 OFFCURVE",
"467 115 CURVE SMOOTH",
"391 115 OFFCURVE",
"334 143 OFFCURVE",
"315 223 CURVE SMOOTH",
"291 322 OFFCURVE",
"338 400 OFFCURVE",
"419 453 CURVE SMOOTH",
"500 506 OFFCURVE",
"619 535 OFFCURVE",
"739 535 CURVE SMOOTH",
"811 535 OFFCURVE",
"885 522 OFFCURVE",
"950 502 CURVE",
"958 431 OFFCURVE",
"955 368 OFFCURVE",
"952 301 CURVE"
);
}
);
width = 1278;
}
);
note = a;
unicode = 0061;
},
{
glyphname = b;
lastChange = "2021-04-30 12:39:39 +0000";
layers = (
{
layerId = "60F86E82-B86D-46D3-A6A0-C6D09B755248";
paths = (
{
closed = 1;
nodes = (
"346 -47 LINE",
"346 84 LINE",
"433 8 OFFCURVE",
"526 -30 OFFCURVE",
"601 -49 CURVE SMOOTH",
"644 -60 OFFCURVE",
"686 -67 OFFCURVE",
"727 -68 CURVE SMOOTH",
"806 -68 OFFCURVE",
"889 -43 OFFCURVE",
"965 4 CURVE SMOOTH",
"1002 27 OFFCURVE",
"1038 56 OFFCURVE",
"1071 90 CURVE SMOOTH",
"1138 158 OFFCURVE",
"1188 243 OFFCURVE",
"1219 344 CURVE SMOOTH",
"1234 395 OFFCURVE",
"1243 449 OFFCURVE",
"1245 506 CURVE SMOOTH",
"1248 610 OFFCURVE",
"1221 706 OFFCURVE",
"1173 788 CURVE SMOOTH",
"1148 829 OFFCURVE",
"1119 866 OFFCURVE",
"1086 899 CURVE SMOOTH",
"1018 966 OFFCURVE",
"937 1014 OFFCURVE",
"848 1040 CURVE SMOOTH",
"803 1053 OFFCURVE",
"758 1059 OFFCURVE",
"713 1059 CURVE SMOOTH",
"674 1058 OFFCURVE",
"633 1051 OFFCURVE",
"592 1040 CURVE SMOOTH",
"521 1021 OFFCURVE",
"433 984 OFFCURVE",
"356 909 CURVE",
"362 1499 LINE",
"143 1491 LINE",
"160 -51 LINE"
);
},
{
closed = 1;
nodes = (
"1025 384 OFFCURVE",
"985 293 OFFCURVE",
"922 227 CURVE SMOOTH",
"858 161 OFFCURVE",
"771 120 OFFCURVE",
"674 123 CURVE SMOOTH",
"528 126 OFFCURVE",
"397 218 OFFCURVE",
"350 379 CURVE",
"352 618 LINE",
"402 758 OFFCURVE",
"530 865 OFFCURVE",
"692 868 CURVE SMOOTH",
"793 869 OFFCURVE",
"882 825 OFFCURVE",
"943 754 CURVE SMOOTH",
"1003 683 OFFCURVE",
"1037 587 OFFCURVE",
"1030 487 CURVE SMOOTH"
);
}
);
width = 1321;
}
);
note = b;
unicode = 0062;
},
{
glyphname = c;
lastChange = "2021-04-30 12:39:39 +0000";
layers = (
{
layerId = "60F86E82-B86D-46D3-A6A0-C6D09B755248";
paths = (
{
closed = 1;
nodes = (
"1134 850 OFFCURVE",
"1062 927 OFFCURVE",
"973 980 CURVE SMOOTH",
"884 1032 OFFCURVE",
"778 1061 OFFCURVE",
"662 1061 CURVE SMOOTH",
"551 1061 OFFCURVE",
"449 1029 OFFCURVE",
"362 977 CURVE SMOOTH",
"319 950 OFFCURVE",
"279 919 OFFCURVE",
"244 882 CURVE SMOOTH",
"172 809 OFFCURVE",
"122 721 OFFCURVE",
"95 625 CURVE SMOOTH",
"81 576 OFFCURVE",
"74 527 OFFCURVE",
"74 477 CURVE SMOOTH",
"74 310 OFFCURVE",
"146 166 OFFCURVE",
"256 62 CURVE SMOOTH",
"366 -42 OFFCURVE",
"511 -104 OFFCURVE",
"662 -104 CURVE SMOOTH",
"767 -104 OFFCURVE",
"872 -77 OFFCURVE",
"962 -27 CURVE SMOOTH",
"1052 24 OFFCURVE",
"1128 93 OFFCURVE",
"1180 180 CURVE",
"1182 186 LINE",
"1008 285 LINE",
"1004 279 LINE SMOOTH",
"935 160 OFFCURVE",
"801 82 OFFCURVE",
"662 82 CURVE SMOOTH",
"553 82 OFFCURVE",
"455 126 OFFCURVE",
"384 198 CURVE SMOOTH",
"312 270 OFFCURVE",
"268 369 OFFCURVE",
"268 477 CURVE SMOOTH",
"268 586 OFFCURVE",
"312 686 OFFCURVE",
"384 758 CURVE SMOOTH",
"455 830 OFFCURVE",
"553 874 OFFCURVE",
"662 874 CURVE SMOOTH",
"814 874 OFFCURVE",
"947 791 OFFCURVE",
"1016 655 CURVE",
"1018 649 LINE",
"1184 750 LINE",
"1182 754 LINE SMOOTH"
);
}
);
width = 1241;
}
);
note = c;
unicode = 0063;
},
{
glyphname = d;
lastChange = "2021-04-30 12:39:39 +0000";
layers = (
{
layerId = "60F86E82-B86D-46D3-A6A0-C6D09B755248";
paths = (
{
closed = 1;
nodes = (
"927 1017 OFFCURVE",
"831 1057 OFFCURVE",
"752 1076 CURVE SMOOTH",
"706 1087 OFFCURVE",
"661 1093 OFFCURVE",
"616 1094 CURVE SMOOTH",
"485 1094 OFFCURVE",
"351 1041 OFFCURVE",
"249 944 CURVE SMOOTH",
"147 847 OFFCURVE",
"78 703 OFFCURVE",
"78 522 CURVE SMOOTH",
"78 342 OFFCURVE",
"138 196 OFFCURVE",
"237 96 CURVE SMOOTH",
"336 -5 OFFCURVE",
"472 -61 OFFCURVE",
"627 -61 CURVE SMOOTH",
"668 -60 OFFCURVE",
"710 -54 OFFCURVE",
"752 -43 CURVE SMOOTH",
"829 -23 OFFCURVE",
"920 16 OFFCURVE",
"995 86 CURVE",
"993 -41 LINE",
"1198 -41 LINE",
"1202 1434 LINE",
"1014 1448 LINE",
"1006 936 LINE"
);
},
{
closed = 1;
nodes = (
"527 123 OFFCURVE",
"440 163 OFFCURVE",
"380 231 CURVE SMOOTH",
"319 299 OFFCURVE",
"283 394 OFFCURVE",
"283 506 CURVE SMOOTH",
"283 618 OFFCURVE",
"318 716 OFFCURVE",
"378 787 CURVE SMOOTH",
"438 858 OFFCURVE",
"522 901 OFFCURVE",
"621 901 CURVE SMOOTH",
"705 901 OFFCURVE",
"788 872 OFFCURVE",
"856 821 CURVE SMOOTH",
"924 770 OFFCURVE",
"977 697 OFFCURVE",
"1001 612 CURVE",
"999 399 LINE",
"974 318 OFFCURVE",
"923 248 OFFCURVE",
"857 200 CURVE SMOOTH",
"791 151 OFFCURVE",
"710 123 OFFCURVE",
"627 123 CURVE SMOOTH"
);
}
);
width = 1354;
}
);
note = d;
unicode = 0064;
},
{
glyphname = e;
lastChange = "2021-04-30 12:39:39 +0000";
layers = (
{
layerId = "60F86E82-B86D-46D3-A6A0-C6D09B755248";
paths = (
{
closed = 1;
nodes = (
"536 92 OFFCURVE",
"458 120 OFFCURVE",
"400 172 CURVE SMOOTH",
"342 224 OFFCURVE",
"302 300 OFFCURVE",
"293 395 CURVE",
"1159 524 LINE",
"1143 675 OFFCURVE",
"1079 807 OFFCURVE",
"984 903 CURVE SMOOTH",
"889 998 OFFCURVE",
"764 1055 OFFCURVE",
"625 1055 CURVE SMOOTH",
"470 1055 OFFCURVE",
"334 990 OFFCURVE",
"235 883 CURVE SMOOTH",
"136 776 OFFCURVE",
"76 628 OFFCURVE",
"76 461 CURVE SMOOTH",
"76 292 OFFCURVE",
"126 152 OFFCURVE",
"219 55 CURVE SMOOTH",
"312 -42 OFFCURVE",
"449 -98 OFFCURVE",
"625 -98 CURVE SMOOTH",
"744 -98 OFFCURVE",
"854 -58 OFFCURVE",
"945 13 CURVE SMOOTH",
"1036 84 OFFCURVE",
"1106 184 OFFCURVE",
"1143 305 CURVE",
"950 344 LINE",
"912 185 OFFCURVE",
"773 92 OFFCURVE",
"625 92 CURVE SMOOTH"
);
},
{
closed = 1;
nodes = (
"319 696 OFFCURVE",
"373 772 OFFCURVE",
"436 819 CURVE SMOOTH",
"499 866 OFFCURVE",
"569 883 OFFCURVE",
"625 883 CURVE SMOOTH",
"757 883 OFFCURVE",
"844 804 OFFCURVE",
"895 672 CURVE SMOOTH",
"901 653 LINE",
"299 580 LINE"
);
}
);
width = 1214;
}
);
note = e;
unicode = 0065;
},
{
glyphname = f;
lastChange = "2021-04-30 12:39:39 +0000";
layers = (
{
layerId = "60F86E82-B86D-46D3-A6A0-C6D09B755248";
paths = (
{
closed = 1;
nodes = (
"270 821 LINE",
"270 752 LINE",
"267 553 LINE SMOOTH",
"266 484 OFFCURVE",
"264 398 OFFCURVE",
"263 294 CURVE SMOOTH",
"262 190 OFFCURVE",
"260 65 OFFCURVE",
"258 -80 CURVE",
"465 -76 LINE",
"466 12 OFFCURVE",
"467 108 OFFCURVE",
"467 200 CURVE SMOOTH",
"468 461 LINE SMOOTH",
"468 553 OFFCURVE",
"468 643 OFFCURVE",
"469 731 CURVE SMOOTH",
"469 819 LINE",
"883 813 LINE",
"905 1010 LINE",
"481 1012 LINE",
"493 1127 OFFCURVE",
"512 1204 OFFCURVE",
"543 1256 CURVE SMOOTH",
"574 1308 OFFCURVE",
"615 1335 OFFCURVE",
"668 1348 CURVE SMOOTH",
"695 1353 OFFCURVE",
"725 1354 OFFCURVE",
"756 1351 CURVE SMOOTH",
"809 1346 OFFCURVE",
"880 1329 OFFCURVE",
"952 1278 CURVE",
"1051 1446 LINE",
"955 1530 OFFCURVE",
"854 1554 OFFCURVE",
"766 1554 CURVE SMOOTH",
"603 1554 OFFCURVE",
"489 1489 OFFCURVE",
"413 1389 CURVE SMOOTH",
"336 1289 OFFCURVE",
"296 1154 OFFCURVE",
"281 1014 CURVE",
"43 1016 LINE",
"43 825 LINE"
);
}
);
width = 907;
}
);
note = f;
unicode = 0066;
},
{
glyphname = g;
lastChange = "2021-04-30 12:39:39 +0000";
layers = (
{
layerId = "60F86E82-B86D-46D3-A6A0-C6D09B755248";
paths = (
{
closed = 1;
nodes = (
"929 995 OFFCURVE",
"832 1039 OFFCURVE",
"753 1064 CURVE SMOOTH",
"707 1079 OFFCURVE",
"661 1089 OFFCURVE",
"616 1094 CURVE",
"485 1094 OFFCURVE",
"351 1041 OFFCURVE",
"249 944 CURVE SMOOTH",
"147 847 OFFCURVE",
"78 703 OFFCURVE",
"78 522 CURVE SMOOTH",
"78 342 OFFCURVE",
"138 196 OFFCURVE",
"237 96 CURVE SMOOTH",
"336 -5 OFFCURVE",
"472 -61 OFFCURVE",
"627 -61 CURVE SMOOTH",
"668 -60 OFFCURVE",
"710 -53 OFFCURVE",
"753 -42 CURVE SMOOTH",
"826 -23 OFFCURVE",
"917 14 OFFCURVE",
"997 90 CURVE",
"997 -41 LINE SMOOTH",
"997 -62 OFFCURVE",
"992 -104 OFFCURVE",
"975 -152 CURVE SMOOTH",
"966 -176 OFFCURVE",
"955 -201 OFFCURVE",
"940 -228 CURVE SMOOTH",
"910 -280 OFFCURVE",
"862 -328 OFFCURVE",
"794 -367 CURVE SMOOTH",
"759 -386 OFFCURVE",
"719 -401 OFFCURVE",
"672 -410 CURVE SMOOTH",
"618 -417 OFFCURVE",
"567 -415 OFFCURVE",
"518 -404 CURVE SMOOTH",
"429 -387 OFFCURVE",
"334 -331 OFFCURVE",
"287 -225 CURVE",
"94 -309 LINE",
"154 -464 OFFCURVE",
"290 -547 OFFCURVE",
"421 -581 CURVE SMOOTH",
"492 -600 OFFCURVE",
"568 -609 OFFCURVE",
"649 -606 CURVE SMOOTH",
"768 -597 OFFCURVE",
"868 -560 OFFCURVE",
"949 -505 CURVE SMOOTH",
"989 -477 OFFCURVE",
"1025 -445 OFFCURVE",
"1056 -410 CURVE SMOOTH",
"1118 -338 OFFCURVE",
"1160 -257 OFFCURVE",
"1181 -171 CURVE SMOOTH",
"1192 -128 OFFCURVE",
"1197 -84 OFFCURVE",
"1198 -41 CURVE SMOOTH",
"1204 1108 LINE",
"1008 1114 LINE",
"1006 915 LINE"
);
},
{
closed = 1;
nodes = (
"528 131 OFFCURVE",
"445 171 OFFCURVE",
"386 237 CURVE SMOOTH",
"326 303 OFFCURVE",
"291 397 OFFCURVE",
"291 506 CURVE SMOOTH",
"291 615 OFFCURVE",
"326 713 OFFCURVE",
"384 782 CURVE SMOOTH",
"442 851 OFFCURVE",
"525 893 OFFCURVE",
"621 893 CURVE SMOOTH",
"709 893 OFFCURVE",
"797 861 OFFCURVE",
"866 805 CURVE SMOOTH",
"935 749 OFFCURVE",
"986 670 OFFCURVE",
"1001 575 CURVE",
"1001 444 LINE",
"984 352 OFFCURVE",
"935 274 OFFCURVE",
"868 219 CURVE SMOOTH",
"800 163 OFFCURVE",
"715 131 OFFCURVE",
"627 131 CURVE SMOOTH"
);
}
);
width = 1352;
}
);
note = g;
unicode = 0067;
},
{
glyphname = h;
lastChange = "2021-04-30 12:39:39 +0000";
layers = (
{
layerId = "60F86E82-B86D-46D3-A6A0-C6D09B755248";
paths = (
{
closed = 1;
nodes = (
"356 -47 LINE",
"362 616 LINE",
"427 739 OFFCURVE",
"508 801 OFFCURVE",
"575 833 CURVE SMOOTH",
"614 852 OFFCURVE",
"652 863 OFFCURVE",
"690 866 CURVE",
"762 866 OFFCURVE",
"841 839 OFFCURVE",
"903 776 CURVE SMOOTH",
"965 712 OFFCURVE",
"1011 614 OFFCURVE",
"1018 471 CURVE SMOOTH",
"1019 420 OFFCURVE",
"1018 367 OFFCURVE",
"1015 311 CURVE SMOOTH",
"1008 215 OFFCURVE",
"995 89 OFFCURVE",
"956 -39 CURVE",
"1184 -55 LINE",
"1205 13 OFFCURVE",
"1217 100 OFFCURVE",
"1225 195 CURVE SMOOTH",
"1232 290 OFFCURVE",
"1233 390 OFFCURVE",
"1233 485 CURVE SMOOTH",
"1226 665 OFFCURVE",
"1173 810 OFFCURVE",
"1085 910 CURVE SMOOTH",
"997 1010 OFFCURVE",
"872 1065 OFFCURVE",
"723 1065 CURVE",
"682 1060 OFFCURVE",
"641 1051 OFFCURVE",
"600 1038 CURVE SMOOTH",
"528 1014 OFFCURVE",
"440 971 OFFCURVE",
"367 891 CURVE",
"373 1499 LINE",
"143 1491 LINE",
"160 -51 LINE"
);
}
);
width = 1346;
}
);
note = h;
unicode = 0068;
},
{
glyphname = i;
lastChange = "2021-04-30 12:39:39 +0000";
layers = (
{
layerId = "60F86E82-B86D-46D3-A6A0-C6D09B755248";
paths = (
{
closed = 1;
nodes = (
"416 1411 OFFCURVE",
"350 1477 OFFCURVE",
"272 1477 CURVE SMOOTH",
"194 1477 OFFCURVE",
"131 1411 OFFCURVE",
"131 1333 CURVE SMOOTH",
"131 1255 OFFCURVE",
"194 1192 OFFCURVE",
"272 1192 CURVE SMOOTH",
"351 1192 OFFCURVE",
"416 1255 OFFCURVE",
"416 1333 CURVE SMOOTH"
);
},
{
closed = 1;
nodes = (
"156 543 LINE SMOOTH",
"153 420 OFFCURVE",
"151 315 OFFCURVE",
"150 230 CURVE SMOOTH",
"148 131 OFFCURVE",
"146 45 OFFCURVE",
"145 -27 CURVE",
"350 -27 LINE",
"350 26 OFFCURVE",
"351 98 OFFCURVE",
"353 190 CURVE SMOOTH",
"354 267 OFFCURVE",
"356 370 OFFCURVE",
"359 501 CURVE SMOOTH",
"369 981 LINE",
"162 973 LINE"
);
}
);
width = 512;
}
);
note = i;
unicode = 0069;
},
{
glyphname = j;
lastChange = "2021-04-30 12:39:39 +0000";
layers = (
{
layerId = "60F86E82-B86D-46D3-A6A0-C6D09B755248";
paths = (
{
closed = 1;
nodes = (
"420 1411 OFFCURVE",
"357 1477 OFFCURVE",
"279 1477 CURVE SMOOTH",
"201 1477 OFFCURVE",
"135 1412 OFFCURVE",
"135 1333 CURVE SMOOTH",
"135 1255 OFFCURVE",
"201 1192 OFFCURVE",
"279 1192 CURVE SMOOTH",
"357 1192 OFFCURVE",
"420 1255 OFFCURVE",
"420 1333 CURVE SMOOTH"
);
},
{
closed = 1;
nodes = (
"158 638 OFFCURVE",
"157 382 OFFCURVE",
"154 209 CURVE SMOOTH",
"153 108 OFFCURVE",
"151 22 OFFCURVE",
"150 -49 CURVE",
"145 -113 OFFCURVE",
"131 -169 OFFCURVE",
"108 -217 CURVE SMOOTH",
"63 -310 OFFCURVE",
"-23 -377 OFFCURVE",
"-162 -362 CURVE",
"-174 -588 LINE",
"-22 -589 OFFCURVE",
"87 -554 OFFCURVE",
"166 -498 CURVE SMOOTH",
"205 -470 OFFCURVE",
"237 -438 OFFCURVE",
"262 -401 CURVE SMOOTH",
"310 -328 OFFCURVE",
"338 -247 OFFCURVE",
"348 -167 CURVE SMOOTH",
"353 -126 OFFCURVE",
"355 -88 OFFCURVE",
"356 -53 CURVE SMOOTH",
"356 -5 OFFCURVE",
"356 64 OFFCURVE",
"357 155 CURVE SMOOTH",
"357 219 OFFCURVE",
"359 366 OFFCURVE",
"360 471 CURVE SMOOTH",
"360 606 OFFCURVE",
"362 772 OFFCURVE",
"365 977 CURVE",
"158 985 LINE"
);
}
);
width = 514;
}
);
note = j;
unicode = 006A;
},
{
glyphname = k;
lastChange = "2021-04-30 12:39:39 +0000";
layers = (
{
layerId = "60F86E82-B86D-46D3-A6A0-C6D09B755248";
paths = (
{
closed = 1;
nodes = (
"352 -10 LINE",
"362 291 LINE",
"528 453 LINE",
"930 -88 LINE",
"1106 41 LINE",
"676 600 LINE",
"1049 969 LINE",
"895 1092 LINE",
"373 567 LINE",
"410 1516 LINE",
"188 1520 LINE",
"137 -23 LINE"
);
}
);
width = 1135;
}
);
note = k;
unicode = 006B;
},
{
glyphname = l;
lastChange = "2021-04-30 12:39:39 +0000";
layers = (
{
layerId = "60F86E82-B86D-46D3-A6A0-C6D09B755248";
paths = (
{
closed = 1;
nodes = (
"458 153 OFFCURVE",
"398 228 OFFCURVE",
"369 319 CURVE SMOOTH",
"352 368 OFFCURVE",
"343 423 OFFCURVE",
"342 485 CURVE SMOOTH",
"343 551 OFFCURVE",
"345 641 OFFCURVE",
"348 756 CURVE SMOOTH",
"351 853 OFFCURVE",
"354 981 OFFCURVE",
"358 1143 CURVE SMOOTH",
"360 1224 OFFCURVE",
"363 1314 OFFCURVE",
"366 1413 CURVE SMOOTH",
"375 1739 LINE",
"166 1739 LINE",
"139 471 LINE",
"147 375 OFFCURVE",
"167 289 OFFCURVE",
"199 213 CURVE SMOOTH",
"226 149 OFFCURVE",
"264 83 OFFCURVE",
"320 35 CURVE SMOOTH",
"375 -14 OFFCURVE",
"446 -48 OFFCURVE",
"541 -49 CURVE",
"567 150 LINE"
);
}
);
width = 575;
}
);
note = l;
unicode = 006C;
},
{
glyphname = m;
lastChange = "2021-04-30 12:39:39 +0000";
layers = (
{
layerId = "60F86E82-B86D-46D3-A6A0-C6D09B755248";
paths = (
{
closed = 1;
nodes = (
"168 -33 LINE",
"367 -23 LINE",
"358 504 LINE",
"376 532 OFFCURVE",
"414 589 OFFCURVE",
"440 627 CURVE SMOOTH",
"456 650 OFFCURVE",
"473 674 OFFCURVE",
"490 697 CURVE SMOOTH",
"525 743 OFFCURVE",
"562 779 OFFCURVE",
"598 802 CURVE SMOOTH",
"616 813 OFFCURVE",
"634 819 OFFCURVE",
"651 819 CURVE SMOOTH",
"702 819 OFFCURVE",
"735 766 OFFCURVE",
"739 657 CURVE",
"743 614 OFFCURVE",
"746 559 OFFCURVE",
"749 493 CURVE SMOOTH",
"754 380 OFFCURVE",
"760 210 OFFCURVE",
"760 -33 CURVE",
"954 -23 LINE",
"954 117 OFFCURVE",
"954 226 OFFCURVE",
"952 315 CURVE SMOOTH",
"950 404 OFFCURVE",
"947 473 OFFCURVE",
"944 532 CURVE",
"964 563 OFFCURVE",
"992 604 OFFCURVE",
"1021 647 CURVE SMOOTH",
"1036 668 OFFCURVE",
"1051 689 OFFCURVE",
"1068 710 CURVE SMOOTH",
"1110 764 OFFCURVE",
"1169 819 OFFCURVE",
"1219 819 CURVE SMOOTH",
"1270 819 OFFCURVE",
"1303 766 OFFCURVE",
"1307 657 CURVE SMOOTH",
"1310 493 LINE SMOOTH",
"1311 380 OFFCURVE",
"1313 210 OFFCURVE",
"1313 -33 CURVE",
"1522 -23 LINE",
"1522 250 OFFCURVE",
"1517 443 OFFCURVE",
"1510 570 CURVE SMOOTH",
"1507 644 OFFCURVE",
"1503 705 OFFCURVE",
"1499 754 CURVE",
"1494 924 OFFCURVE",
"1392 1014 OFFCURVE",
"1262 1014 CURVE SMOOTH",
"1115 1014 OFFCURVE",
"1016 892 OFFCURVE",
"930 784 CURVE",
"915 934 OFFCURVE",
"815 1014 OFFCURVE",
"696 1014 CURVE SMOOTH",
"543 1014 OFFCURVE",
"444 887 OFFCURVE",
"354 774 CURVE",
"350 1065 LINE",
"141 1042 LINE"
);
}
);
width = 1659;
}
);
note = m;
unicode = 006D;
},
{
glyphname = n;
lastChange = "2021-04-30 12:39:39 +0000";
layers = (
{
layerId = "60F86E82-B86D-46D3-A6A0-C6D09B755248";
paths = (
{
closed = 1;
nodes = (
"388 -34 OFFCURVE",
"387 -8 OFFCURVE",
"386 31 CURVE SMOOTH",
"385 64 OFFCURVE",
"383 112 OFFCURVE",
"382 176 CURVE SMOOTH",
"375 432 LINE",
"438 565 OFFCURVE",
"496 666 OFFCURVE",
"551 735 CURVE SMOOTH",
"605 804 OFFCURVE",
"658 842 OFFCURVE",
"711 850 CURVE SMOOTH",
"772 859 OFFCURVE",
"818 841 OFFCURVE",
"850 810 CURVE SMOOTH",
"866 794 OFFCURVE",
"879 776 OFFCURVE",
"889 755 CURVE SMOOTH",
"917 695 OFFCURVE",
"926 630 OFFCURVE",
"926 584 CURVE",
"937 365 OFFCURVE",
"924 152 OFFCURVE",
"913 -63 CURVE",
"1118 -70 LINE",
"1123 179 OFFCURVE",
"1130 408 OFFCURVE",
"1122 637 CURVE SMOOTH",
"1119 688 OFFCURVE",
"1112 752 OFFCURVE",
"1092 814 CURVE SMOOTH",
"1082 845 OFFCURVE",
"1068 875 OFFCURVE",
"1051 904 CURVE SMOOTH",
"1016 962 OFFCURVE",
"964 1005 OFFCURVE",
"889 1029 CURVE SMOOTH",
"851 1041 OFFCURVE",
"807 1045 OFFCURVE",
"756 1042 CURVE SMOOTH",
"675 1037 OFFCURVE",
"600 1003 OFFCURVE",
"535 951 CURVE SMOOTH",
"470 899 OFFCURVE",
"413 830 OFFCURVE",
"369 754 CURVE",
"365 1042 LINE",
"137 1038 LINE",
"138 992 OFFCURVE",
"140 921 OFFCURVE",
"143 826 CURVE SMOOTH",
"145 758 OFFCURVE",
"150 600 OFFCURVE",
"154 487 CURVE SMOOTH",
"174 -74 LINE",
"389 -47 LINE"
);
}
);
width = 1266;
}
);
note = n;
unicode = 006E;
},
{
glyphname = o;
lastChange = "2021-04-30 12:39:39 +0000";
layers = (
{
layerId = "60F86E82-B86D-46D3-A6A0-C6D09B755248";
paths = (
{
closed = 1;
nodes = (
"1149 654 OFFCURVE",
"1089 801 OFFCURVE",
"992 906 CURVE SMOOTH",
"895 1010 OFFCURVE",
"760 1073 OFFCURVE",
"612 1073 CURVE SMOOTH",
"464 1073 OFFCURVE",
"331 1015 OFFCURVE",
"235 912 CURVE SMOOTH",
"138 809 OFFCURVE",
"78 662 OFFCURVE",
"78 485 CURVE SMOOTH",
"78 309 OFFCURVE",
"138 163 OFFCURVE",
"235 60 CURVE SMOOTH",
"331 -44 OFFCURVE",
"464 -102 OFFCURVE",
"612 -102 CURVE SMOOTH",
"760 -102 OFFCURVE",
"895 -39 OFFCURVE",
"992 66 CURVE SMOOTH",
"1089 171 OFFCURVE",
"1149 317 OFFCURVE",
"1149 485 CURVE SMOOTH"
);
},
{
closed = 1;
nodes = (
"938 391 OFFCURVE",
"913 289 OFFCURVE",
"860 211 CURVE SMOOTH",
"807 133 OFFCURVE",
"725 78 OFFCURVE",
"612 78 CURVE SMOOTH",
"504 78 OFFCURVE",
"423 133 OFFCURVE",
"370 211 CURVE SMOOTH",
"317 289 OFFCURVE",
"291 391 OFFCURVE",
"291 487 CURVE SMOOTH",
"291 583 OFFCURVE",
"314 687 OFFCURVE",
"366 765 CURVE SMOOTH",
"418 843 OFFCURVE",
"499 897 OFFCURVE",
"612 897 CURVE SMOOTH",
"729 897 OFFCURVE",
"811 843 OFFCURVE",
"863 765 CURVE SMOOTH",
"915 687 OFFCURVE",
"938 583 OFFCURVE",
"938 487 CURVE SMOOTH"
);
}
);
width = 1225;
}
);
note = o;
unicode = 006F;
},
{
glyphname = p;
lastChange = "2021-04-30 12:39:39 +0000";
layers = (
{
layerId = "60F86E82-B86D-46D3-A6A0-C6D09B755248";
paths = (
{
closed = 1;
nodes = (
"350 -600 LINE",
"356 78 LINE",
"441 5 OFFCURVE",
"534 -31 OFFCURVE",
"607 -50 CURVE SMOOTH",
"649 -61 OFFCURVE",
"690 -67 OFFCURVE",
"731 -68 CURVE SMOOTH",
"811 -68 OFFCURVE",
"893 -43 OFFCURVE",
"969 4 CURVE SMOOTH",
"1006 27 OFFCURVE",
"1042 56 OFFCURVE",
"1075 90 CURVE SMOOTH",
"1142 158 OFFCURVE",
"1192 243 OFFCURVE",
"1223 344 CURVE SMOOTH",
"1238 395 OFFCURVE",
"1247 449 OFFCURVE",
"1249 506 CURVE SMOOTH",
"1253 610 OFFCURVE",
"1225 706 OFFCURVE",
"1177 788 CURVE SMOOTH",
"1153 829 OFFCURVE",
"1124 866 OFFCURVE",
"1090 899 CURVE SMOOTH",
"1022 966 OFFCURVE",
"941 1014 OFFCURVE",
"852 1040 CURVE SMOOTH",
"807 1053 OFFCURVE",
"762 1059 OFFCURVE",
"717 1059 CURVE",
"678 1056 OFFCURVE",
"639 1048 OFFCURVE",
"598 1036 CURVE SMOOTH",
"529 1015 OFFCURVE",
"441 978 OFFCURVE",
"365 903 CURVE",
"367 1049 LINE",
"147 1040 LINE",
"164 -604 LINE"
);
},
{
closed = 1;
nodes = (
"1019 388 OFFCURVE",
"980 301 OFFCURVE",
"919 237 CURVE SMOOTH",
"858 173 OFFCURVE",
"773 134 OFFCURVE",
"680 137 CURVE SMOOTH",
"611 138 OFFCURVE",
"541 162 OFFCURVE",
"483 207 CURVE SMOOTH",
"425 251 OFFCURVE",
"380 318 OFFCURVE",
"360 406 CURVE",
"362 596 LINE",
"404 738 OFFCURVE",
"534 853 OFFCURVE",
"696 856 CURVE SMOOTH",
"795 857 OFFCURVE",
"879 814 OFFCURVE",
"939 746 CURVE SMOOTH",
"998 678 OFFCURVE",
"1029 584 OFFCURVE",
"1024 487 CURVE SMOOTH"
);
}
);
width = 1325;
}
);
note = p;
unicode = 0070;
},
{
glyphname = q;
lastChange = "2021-04-30 12:39:39 +0000";
layers = (
{
layerId = "60F86E82-B86D-46D3-A6A0-C6D09B755248";
paths = (
{
closed = 1;
nodes = (
"926 1013 OFFCURVE",
"831 1052 OFFCURVE",
"752 1072 CURVE SMOOTH",
"706 1084 OFFCURVE",
"661 1091 OFFCURVE",
"616 1094 CURVE",
"485 1094 OFFCURVE",
"351 1041 OFFCURVE",
"249 944 CURVE SMOOTH",
"147 847 OFFCURVE",
"78 703 OFFCURVE",
"78 522 CURVE SMOOTH",
"78 342 OFFCURVE",
"138 196 OFFCURVE",
"237 96 CURVE SMOOTH",
"336 -5 OFFCURVE",
"472 -61 OFFCURVE",
"627 -61 CURVE SMOOTH",
"668 -60 OFFCURVE",
"710 -54 OFFCURVE",
"752 -43 CURVE SMOOTH",
"829 -23 OFFCURVE",
"920 16 OFFCURVE",
"995 86 CURVE",
"987 -594 LINE",
"1198 -594 LINE",
"1202 1085 LINE",
"1008 1100 LINE",
"1006 940 LINE"
);
},
{
closed = 1;
nodes = (
"528 131 OFFCURVE",
"445 171 OFFCURVE",
"386 237 CURVE SMOOTH",
"326 303 OFFCURVE",
"291 397 OFFCURVE",
"291 506 CURVE SMOOTH",
"291 615 OFFCURVE",
"326 713 OFFCURVE",
"384 782 CURVE SMOOTH",
"442 851 OFFCURVE",
"525 893 OFFCURVE",
"621 893 CURVE SMOOTH",
"708 893 OFFCURVE",
"794 862 OFFCURVE",
"863 808 CURVE SMOOTH",
"931 754 OFFCURVE",
"982 676 OFFCURVE",
"1001 584 CURVE",
"999 432 LINE",
"980 343 OFFCURVE",
"930 267 OFFCURVE",
"863 215 CURVE SMOOTH",
"796 162 OFFCURVE",
"712 131 OFFCURVE",
"627 131 CURVE SMOOTH"
);
}
);
width = 1352;
}
);
note = q;
unicode = 0071;
},
{
glyphname = r;
lastChange = "2021-04-30 12:39:39 +0000";
layers = (
{
layerId = "60F86E82-B86D-46D3-A6A0-C6D09B755248";
paths = (
{
closed = 1;
nodes = (
"1088 741 OFFCURVE",
"1066 816 OFFCURVE",
"1035 872 CURVE SMOOTH",
"1003 927 OFFCURVE",
"965 961 OFFCURVE",
"928 982 CURVE SMOOTH",
"884 1007 OFFCURVE",
"835 1019 OFFCURVE",
"782 1016 CURVE",
"687 1004 OFFCURVE",
"604 950 OFFCURVE",
"534 885 CURVE SMOOTH",
"464 820 OFFCURVE",
"408 741 OFFCURVE",
"369 680 CURVE",
"369 719 OFFCURVE",
"369 760 OFFCURVE",
"368 801 CURVE SMOOTH",
"367 836 OFFCURVE",
"367 875 OFFCURVE",
"367 918 CURVE SMOOTH",
"366 960 OFFCURVE",
"366 1001 OFFCURVE",
"365 1042 CURVE",
"137 1038 LINE",
"138 992 OFFCURVE",
"140 921 OFFCURVE",
"143 826 CURVE SMOOTH",
"145 758 OFFCURVE",
"150 600 OFFCURVE",
"154 487 CURVE SMOOTH",
"174 -74 LINE",
"389 -47 LINE",
"385 -6 OFFCURVE",
"382 64 OFFCURVE",
"380 148 CURVE SMOOTH",
"378 217 OFFCURVE",
"374 348 OFFCURVE",
"373 430 CURVE",
"402 474 OFFCURVE",
"441 530 OFFCURVE",
"482 584 CURVE SMOOTH",
"503 611 OFFCURVE",
"524 637 OFFCURVE",
"547 663 CURVE SMOOTH",
"591 714 OFFCURVE",
"636 756 OFFCURVE",
"678 782 CURVE SMOOTH",
"699 795 OFFCURVE",
"718 802 OFFCURVE",
"737 805 CURVE",
"766 806 OFFCURVE",
"793 798 OFFCURVE",
"816 781 CURVE SMOOTH",
"865 745 OFFCURVE",
"897 676 OFFCURVE",
"899 563 CURVE",
"1096 637 LINE"
);
}
);
width = 1116;
}
);
note = r;
unicode = 0072;
},
{
glyphname = s;
lastChange = "2021-04-30 12:39:39 +0000";
layers = (
{
layerId = "60F86E82-B86D-46D3-A6A0-C6D09B755248";
paths = (
{
closed = 1;
nodes = (
"1065 290 OFFCURVE",
"1043 356 OFFCURVE",
"988 409 CURVE SMOOTH",
"933 462 OFFCURVE",
"846 504 OFFCURVE",
"715 524 CURVE SMOOTH",
"622 538 OFFCURVE",
"485 543 OFFCURVE",
"420 557 CURVE SMOOTH",
"344 573 OFFCURVE",
"297 604 OFFCURVE",
"297 684 CURVE SMOOTH",
"297 797 OFFCURVE",
"420 856 OFFCURVE",
"629 844 CURVE SMOOTH",
"660 841 OFFCURVE",
"694 836 OFFCURVE",
"730 828 CURVE SMOOTH",
"791 813 OFFCURVE",
"873 790 OFFCURVE",
"961 743 CURVE",
"1030 926 LINE",
"962 975 OFFCURVE",
"880 1004 OFFCURVE",
"803 1020 CURVE SMOOTH",
"726 1036 OFFCURVE",
"652 1040 OFFCURVE",
"600 1040 CURVE SMOOTH",
"512 1040 OFFCURVE",
"424 1025 OFFCURVE",
"347 994 CURVE SMOOTH",
"308 978 OFFCURVE",
"273 958 OFFCURVE",
"240 935 CURVE SMOOTH",
"175 887 OFFCURVE",
"130 825 OFFCURVE",
"108 746 CURVE SMOOTH",
"97 706 OFFCURVE",
"93 662 OFFCURVE",
"98 614 CURVE SMOOTH",
"110 513 OFFCURVE",
"170 447 OFFCURVE",
"258 406 CURVE SMOOTH",
"345 365 OFFCURVE",
"460 347 OFFCURVE",
"580 342 CURVE SMOOTH",
"664 338 OFFCURVE",
"724 324 OFFCURVE",
"767 304 CURVE SMOOTH",
"788 293 OFFCURVE",
"806 282 OFFCURVE",
"819 269 CURVE SMOOTH",
"854 233 OFFCURVE",
"865 190 OFFCURVE",
"854 154 CURVE SMOOTH",
"833 92 OFFCURVE",
"768 45 OFFCURVE",
"641 45 CURVE SMOOTH",
"552 45 OFFCURVE",
"468 62 OFFCURVE",
"388 90 CURVE SMOOTH",
"308 117 OFFCURVE",
"231 154 OFFCURVE",
"158 193 CURVE",
"61 41 LINE",
"165 -41 OFFCURVE",
"308 -91 OFFCURVE",
"416 -110 CURVE SMOOTH",
"479 -122 OFFCURVE",
"541 -128 OFFCURVE",
"602 -129 CURVE",
"722 -124 OFFCURVE",
"838 -100 OFFCURVE",
"924 -46 CURVE SMOOTH",
"1010 9 OFFCURVE",
"1065 92 OFFCURVE",
"1065 219 CURVE SMOOTH"
);
}
);
width = 1135;
}
);
note = s;
unicode = 0073;
},
{
glyphname = t;
lastChange = "2021-04-30 12:39:39 +0000";
layers = (
{
layerId = "60F86E82-B86D-46D3-A6A0-C6D09B755248";
paths = (
{
closed = 1;
nodes = (
"27 979 LINE",
"23 795 LINE",
"369 803 LINE",
"352 -68 LINE",
"563 -63 LINE",
"571 809 LINE",
"946 819 LINE",
"961 1006 LINE",
"573 993 LINE",
"580 1440 LINE",
"381 1427 LINE",
"373 989 LINE"
);
}
);
width = 971;
}
);
note = t;
unicode = 0074;
},
{
glyphname = u;
lastChange = "2021-04-30 12:39:39 +0000";
layers = (
{
layerId = "60F86E82-B86D-46D3-A6A0-C6D09B755248";
paths = (
{
closed = 1;
nodes = (
"1142 -22 OFFCURVE",
"1141 49 OFFCURVE",
"1138 144 CURVE SMOOTH",
"1136 211 OFFCURVE",
"1131 370 OFFCURVE",
"1127 483 CURVE SMOOTH",
"1124 556 OFFCURVE",
"1122 639 OFFCURVE",
"1119 732 CURVE SMOOTH",
"1108 1042 LINE",
"893 1018 LINE",
"894 1003 OFFCURVE",
"895 975 OFFCURVE",
"896 936 CURVE SMOOTH",
"897 903 OFFCURVE",
"898 854 OFFCURVE",
"900 791 CURVE SMOOTH",
"905 537 LINE",
"844 406 OFFCURVE",
"785 308 OFFCURVE",
"730 245 CURVE SMOOTH",
"674 182 OFFCURVE",
"620 146 OFFCURVE",
"569 139 CURVE SMOOTH",
"493 128 OFFCURVE",
"443 164 OFFCURVE",
"409 224 CURVE SMOOTH",
"392 253 OFFCURVE",
"378 287 OFFCURVE",
"369 325 CURVE SMOOTH",
"350 401 OFFCURVE",
"342 482 OFFCURVE",
"341 551 CURVE SMOOTH",
"340 586 OFFCURVE",
"340 614 OFFCURVE",
"340 637 CURVE SMOOTH",
"340 737 OFFCURVE",
"346 869 OFFCURVE",
"367 1034 CURVE",
"162 1040 LINE",
"139 892 OFFCURVE",
"127 751 OFFCURVE",
"127 612 CURVE SMOOTH",
"127 513 OFFCURVE",
"131 406 OFFCURVE",
"150 306 CURVE SMOOTH",
"159 256 OFFCURVE",
"173 209 OFFCURVE",
"191 164 CURVE SMOOTH",
"226 74 OFFCURVE",
"284 3 OFFCURVE",
"370 -38 CURVE SMOOTH",
"413 -59 OFFCURVE",
"464 -70 OFFCURVE",
"524 -72 CURVE SMOOTH",
"605 -75 OFFCURVE",
"680 -41 OFFCURVE",
"745 12 CURVE SMOOTH",
"810 64 OFFCURVE",
"867 136 OFFCURVE",
"911 215 CURVE",
"915 -72 LINE",
"1143 -68 LINE"
);
}
);
width = 1280;
}
);
note = u;
unicode = 0075;
},
{
glyphname = v;
lastChange = "2021-04-30 12:39:39 +0000";
layers = (
{
layerId = "60F86E82-B86D-46D3-A6A0-C6D09B755248";
paths = (
{
closed = 1;
nodes = (
"264 1006 LINE",
"61 975 LINE",
"412 -35 LINE",
"694 -39 LINE",
"1087 1014 LINE",
"881 1042 LINE",
"563 147 LINE"
);
}
);
width = 1130;
}
);
note = v;
unicode = 0076;
},
{
glyphname = w;
lastChange = "2021-04-30 12:39:39 +0000";
layers = (
{
layerId = "60F86E82-B86D-46D3-A6A0-C6D09B755248";
paths = (
{
closed = 1;
nodes = (
"915 1010 LINE",
"723 1022 LINE",
"426 182 LINE",
"274 1022 LINE",
"68 1006 LINE",
"262 -31 LINE",
"561 -8 LINE",
"803 692 LINE",
"979 -43 LINE",
"1276 -35 LINE",
"1475 1010 LINE",
"1253 1018 LINE",
"1118 160 LINE"
);
}
);
width = 1538;
}
);
note = w;
unicode = 0077;
},
{
glyphname = x;
lastChange = "2021-04-30 12:39:39 +0000";
layers = (
{
layerId = "60F86E82-B86D-46D3-A6A0-C6D09B755248";
paths = (
{
closed = 1;
nodes = (
"432 494 LINE",
"49 6 LINE",
"260 -51 LINE",
"561 336 LINE",
"883 -55 LINE",
"1067 20 LINE",
"682 492 LINE",
"1047 958 LINE",
"858 1032 LINE",
"555 647 LINE",
"246 1026 LINE",
"37 977 LINE"
);
}
);
width = 1106;
}
);
note = x;
unicode = 0078;
},
{
glyphname = y;
lastChange = "2021-04-30 12:39:39 +0000";
layers = (
{
layerId = "60F86E82-B86D-46D3-A6A0-C6D09B755248";
paths = (
{
closed = 1;
nodes = (
"799 847 OFFCURVE",
"745 675 OFFCURVE",
"697 520 CURVE SMOOTH",
"648 365 OFFCURVE",
"603 228 OFFCURVE",
"571 129 CURVE",
"276 1010 LINE",
"47 979 LINE",
"469 -141 LINE",
"444 -188 OFFCURVE",
"411 -244 OFFCURVE",
"368 -296 CURVE SMOOTH",
"346 -322 OFFCURVE",
"322 -347 OFFCURVE",
"296 -370 CURVE SMOOTH",
"243 -417 OFFCURVE",
"181 -450 OFFCURVE",
"109 -466 CURVE SMOOTH",
"72 -473 OFFCURVE",
"33 -474 OFFCURVE",
"-8 -469 CURVE",
"31 -664 LINE",
"178 -657 OFFCURVE",
"294 -613 OFFCURVE",
"386 -549 CURVE SMOOTH",
"431 -516 OFFCURVE",
"471 -480 OFFCURVE",
"506 -439 CURVE SMOOTH",
"574 -357 OFFCURVE",
"625 -267 OFFCURVE",
"661 -179 CURVE SMOOTH",
"678 -134 OFFCURVE",
"694 -92 OFFCURVE",
"707 -53 CURVE SMOOTH",
"726 -2 OFFCURVE",
"751 72 OFFCURVE",
"784 167 CURVE SMOOTH",
"808 235 OFFCURVE",
"860 387 OFFCURVE",
"896 494 CURVE SMOOTH",
"943 633 OFFCURVE",
"1000 804 OFFCURVE",
"1071 1012 CURVE",
"848 1014 LINE"
);
}
);
width = 1124;
}
);
note = y;
unicode = 0079;
},
{
glyphname = z;
lastChange = "2021-04-30 12:39:39 +0000";
layers = (
{
layerId = "60F86E82-B86D-46D3-A6A0-C6D09B755248";
paths = (
{
closed = 1;
nodes = (
"1038 801 LINE",
"1022 1018 LINE",
"119 993 LINE",
"121 793 LINE",
"780 817 LINE",
"63 131 LINE",
"90 -76 LINE",
"1055 -35 LINE",
"1047 164 LINE",
"319 125 LINE"
);
}
);
width = 1139;
}
);
note = z;
unicode = 007A;
},
{
glyphname = uni1780;
lastChange = "2021-04-30 12:39:39 +0000";
layers = (
{
layerId = "60F86E82-B86D-46D3-A6A0-C6D09B755248";
paths = (
{
closed = 1;
nodes = (
"150 1500 LINE",
"150 1300 LINE",
"1150 1300 LINE",
"1150 1500 LINE"
);
},
{
closed = 1;
nodes = (
"1150 967 OFFCURVE",
"983 1100 OFFCURVE",
"650 1100 CURVE SMOOTH",
"317 1100 OFFCURVE",
"150 967 OFFCURVE",
"150 700 CURVE SMOOTH",
"150 0 LINE",
"350 0 LINE",
"350 700 LINE SMOOTH",
"350 833 OFFCURVE",
"450 900 OFFCURVE",
"650 900 CURVE SMOOTH",
"850 900 OFFCURVE",
"950 833 OFFCURVE",
"950 700 CURVE SMOOTH",
"950 0 LINE",
"1150 0 LINE",
"1150 700 LINE SMOOTH"
);
}
);
width = 1300;
}
);
note = uni1780;
unicode = 1780;
},
{
glyphname = uni1781;
lastChange = "2021-04-30 12:39:39 +0000";
layers = (
{
layerId = "60F86E82-B86D-46D3-A6A0-C6D09B755248";
paths = (
{
closed = 1;
nodes = (
"1150 1367 OFFCURVE",
"983 1500 OFFCURVE",
"650 1500 CURVE SMOOTH",
"317 1500 OFFCURVE",
"150 1367 OFFCURVE",
"150 1100 CURVE SMOOTH",
"150 1050 LINE SMOOTH",
"150 950 OFFCURVE",
"200 900 OFFCURVE",
"300 900 CURVE SMOOTH",
"450 900 LINE",
"450 1100 LINE",
"350 1100 LINE",
"350 1233 OFFCURVE",
"450 1300 OFFCURVE",
"650 1300 CURVE SMOOTH",
"850 1300 OFFCURVE",
"950 1233 OFFCURVE",
"950 1100 CURVE SMOOTH",
"950 942 OFFCURVE",
"767 818 OFFCURVE",
"400 729 CURVE SMOOTH",
"150 668 LINE",
"150 400 LINE SMOOTH",
"150 133 OFFCURVE",
"317 0 OFFCURVE",
"650 0 CURVE SMOOTH",
"983 0 OFFCURVE",
"1150 133 OFFCURVE",
"1150 400 CURVE SMOOTH",
"1150 600 LINE",
"950 600 LINE",
"950 400 LINE SMOOTH",
"950 267 OFFCURVE",
"850 200 OFFCURVE",
"650 200 CURVE SMOOTH",
"450 200 OFFCURVE",
"350 267 OFFCURVE",
"350 400 CURVE SMOOTH",
"350 511 LINE",
"450 536 LINE SMOOTH",
"917 650 OFFCURVE",
"1150 838 OFFCURVE",
"1150 1100 CURVE SMOOTH"
);
}
);
width = 1300;
}
);
note = uni1781;
unicode = 1781;
},
{
glyphname = uni1782;
lastChange = "2021-04-30 12:39:39 +0000";
layers = (
{
layerId = "60F86E82-B86D-46D3-A6A0-C6D09B755248";
paths = (
{
closed = 1;
nodes = (
"150 1500 LINE",
"150 1300 LINE",
"1150 1300 LINE",
"1150 1500 LINE"
);
},
{
closed = 1;
nodes = (
"350 354 LINE",
"350 700 LINE SMOOTH",
"350 833 OFFCURVE",
"450 900 OFFCURVE",
"650 900 CURVE SMOOTH",
"850 900 OFFCURVE",
"950 833 OFFCURVE",
"950 700 CURVE SMOOTH",
"950 0 LINE",
"1150 0 LINE",
"1150 700 LINE SMOOTH",
"1150 967 OFFCURVE",
"983 1100 OFFCURVE",
"650 1100 CURVE SMOOTH",
"317 1100 OFFCURVE",
"150 967 OFFCURVE",
"150 700 CURVE SMOOTH",
"150 0 LINE",
"350 0 LINE",
"350 30 LINE",
"700 476 LINE",
"543 600 LINE"
);
}
);
width = 1300;
}
);
note = uni1782;
unicode = 1782;
},
{
glyphname = uni1783;
lastChange = "2021-04-30 12:39:39 +0000";
layers = (
{
layerId = "60F86E82-B86D-46D3-A6A0-C6D09B755248";
paths = (
{
closed = 1;
nodes = (
"950 400 LINE SMOOTH",
"950 267 OFFCURVE",
"850 200 OFFCURVE",
"650 200 CURVE SMOOTH",
"454 200 OFFCURVE",
"354 264 OFFCURVE",
"350 392 CURVE",
"550 577 OFFCURVE",
"650 813 OFFCURVE",
"650 1100 CURVE SMOOTH",
"650 1359 OFFCURVE",
"492 1500 OFFCURVE",
"361 1500 CURVE SMOOTH",
"303 1500 OFFCURVE",
"246 1473 OFFCURVE",
"190 1418 CURVE SMOOTH",
"130 1359 OFFCURVE",
"100 1300 OFFCURVE",
"100 1240 CURVE SMOOTH",
"100 1122 OFFCURVE",
"129 1033 OFFCURVE",
"187 974 CURVE",
"254 890 LINE",
"408 997 LINE",
"349 1095 LINE SMOOTH",
"320 1148 OFFCURVE",
"306 1190 OFFCURVE",
"306 1221 CURVE SMOOTH",
"306 1240 OFFCURVE",
"312 1256 OFFCURVE",
"323 1267 CURVE SMOOTH",
"336 1280 OFFCURVE",
"348 1286 OFFCURVE",
"361 1286 CURVE SMOOTH",
"377 1286 OFFCURVE",
"393 1276 OFFCURVE",
"408 1257 CURVE SMOOTH",
"436 1221 OFFCURVE",
"450 1169 OFFCURVE",
"450 1100 CURVE SMOOTH",
"450 887 OFFCURVE",
"350 677 OFFCURVE",
"150 470 CURVE",
"150 400 LINE SMOOTH",
"150 133 OFFCURVE",
"317 0 OFFCURVE",
"650 0 CURVE SMOOTH",
"831 0 OFFCURVE",
"963 39 OFFCURVE",
"1046 118 CURVE",
"1123 39 OFFCURVE",
"1245 0 OFFCURVE",
"1413 0 CURVE SMOOTH",
"1721 0 OFFCURVE",
"1875 133 OFFCURVE",
"1875 400 CURVE SMOOTH",
"1875 1500 LINE",
"1675 1500 LINE",
"1675 400 LINE SMOOTH",
"1675 267 OFFCURVE",
"1588 200 OFFCURVE",
"1413 200 CURVE SMOOTH",
"1238 200 OFFCURVE",
"1150 267 OFFCURVE",
"1150 400 CURVE SMOOTH",
"1150 1500 LINE",
"950 1500 LINE"
);
}
);
width = 2025;
}
);
note = uni1783;
unicode = 1783;
},
{
glyphname = uni1784;
lastChange = "2021-04-30 12:39:39 +0000";
layers = (
{
layerId = "60F86E82-B86D-46D3-A6A0-C6D09B755248";
paths = (
{
closed = 1;
nodes = (
"914 1045 OFFCURVE",
"950 978 OFFCURVE",
"950 900 CURVE SMOOTH",
"950 287 LINE",
"650 596 LINE",
"350 287 LINE",
"350 1000 LINE",
"100 1000 LINE",
"100 800 LINE",
"150 800 LINE",
"150 0 LINE",
"350 0 LINE",
"650 309 LINE",
"950 0 LINE",
"1150 0 LINE",
"1150 900 LINE SMOOTH",
"1150 996 OFFCURVE",
"1120 1079 OFFCURVE",
"1059 1148 CURVE",
"1120 1181 OFFCURVE",
"1150 1232 OFFCURVE",
"1150 1300 CURVE SMOOTH",
"1150 1433 OFFCURVE",
"1092 1500 OFFCURVE",
"975 1500 CURVE SMOOTH",
"858 1500 OFFCURVE",
"800 1433 OFFCURVE",
"800 1300 CURVE",
"500 1300 LINE SMOOTH",
"400 1300 OFFCURVE",
"350 1333 OFFCURVE",
"350 1400 CURVE SMOOTH",
"350 1600 LINE",
"150 1600 LINE",
"150 1400 LINE SMOOTH",
"150 1200 OFFCURVE",
"267 1100 OFFCURVE",
"500 1100 CURVE SMOOTH",
"800 1100 LINE SMOOTH",
"815 1100 OFFCURVE",
"829 1100 OFFCURVE",
"843 1101 CURVE"
);
}
);
width = 1300;
}
);
note = uni1784;
unicode = 1784;
},
{
glyphname = uni1785;
lastChange = "2021-04-30 12:39:39 +0000";
layers = (
{
layerId = "60F86E82-B86D-46D3-A6A0-C6D09B755248";
paths = (
{
closed = 1;
nodes = (
"1150 1025 OFFCURVE",
"1075 1100 OFFCURVE",
"925 1100 CURVE SMOOTH",
"775 1100 OFFCURVE",
"700 1025 OFFCURVE",
"700 875 CURVE SMOOTH",
"700 725 OFFCURVE",
"775 650 OFFCURVE",
"925 650 CURVE SMOOTH",
"934 650 OFFCURVE",
"942 650 OFFCURVE",
"950 651 CURVE",
"950 400 LINE SMOOTH",
"950 267 OFFCURVE",
"850 200 OFFCURVE",
"650 200 CURVE SMOOTH",
"450 200 OFFCURVE",
"350 267 OFFCURVE",
"350 400 CURVE SMOOTH",
"350 760 LINE SMOOTH",
"350 853 OFFCURVE",
"400 929 OFFCURVE",
"500 990 CURVE",
"500 1110 LINE",
"400 1130 LINE SMOOTH",
"333 1143 OFFCURVE",
"300 1175 OFFCURVE",
"300 1225 CURVE SMOOTH",
"300 1300 LINE",
"1150 1300 LINE",
"1150 1500 LINE",
"100 1500 LINE",
"100 1225 LINE SMOOTH",
"100 1103 OFFCURVE",
"144 1022 OFFCURVE",
"233 981 CURVE",
"178 912 OFFCURVE",
"150 839 OFFCURVE",
"150 760 CURVE SMOOTH",
"150 400 LINE SMOOTH",
"150 133 OFFCURVE",
"317 0 OFFCURVE",
"650 0 CURVE SMOOTH",
"983 0 OFFCURVE",
"1150 133 OFFCURVE",
"1150 400 CURVE SMOOTH",
"1150 875 LINE SMOOTH"
);
},
{
closed = 1;
nodes = (
"875 800 OFFCURVE",
"850 825 OFFCURVE",
"850 875 CURVE SMOOTH",
"850 925 OFFCURVE",
"875 950 OFFCURVE",
"925 950 CURVE SMOOTH",
"975 950 OFFCURVE",
"1000 925 OFFCURVE",
"1000 875 CURVE SMOOTH",
"1000 825 OFFCURVE",
"975 800 OFFCURVE",
"925 800 CURVE SMOOTH"
);
}
);
width = 1300;
}
);
note = uni1785;
unicode = 1785;
},
{
glyphname = uni1786;
lastChange = "2021-04-30 12:39:39 +0000";
layers = (
{
layerId = "60F86E82-B86D-46D3-A6A0-C6D09B755248";
paths = (
{
closed = 1;
nodes = (
"60 1300 LINE SMOOTH",
"253 1300 OFFCURVE",
"363 1083 OFFCURVE",
"392 650 CURVE",
"269 627 OFFCURVE",
"184 586 OFFCURVE",
"137 526 CURVE",
"79 467 OFFCURVE",
"50 378 OFFCURVE",
"50 260 CURVE SMOOTH",
"50 200 OFFCURVE",
"80 141 OFFCURVE",
"140 82 CURVE SMOOTH",
"196 27 OFFCURVE",
"253 0 OFFCURVE",
"311 0 CURVE SMOOTH",
"442 0 OFFCURVE",
"600 141 OFFCURVE",
"600 400 CURVE SMOOTH",
"600 835 OFFCURVE",
"545 1135 OFFCURVE",
"435 1300 CURVE",
"1400 1300 LINE",
"1400 1500 LINE",
"50 1500 LINE",
"50 1300 LINE"
);
},
{
closed = 1;
nodes = (
"1400 1025 OFFCURVE",
"1325 1100 OFFCURVE",
"1175 1100 CURVE SMOOTH",
"1025 1100 OFFCURVE",
"950 1025 OFFCURVE",
"950 875 CURVE SMOOTH",
"950 725 OFFCURVE",
"1025 650 OFFCURVE",
"1175 650 CURVE SMOOTH",
"1184 650 OFFCURVE",
"1192 650 OFFCURVE",
"1200 651 CURVE",
"1200 513 LINE",
"1075 618 OFFCURVE",
"892 670 OFFCURVE",
"650 670 CURVE",
"650 470 LINE",
"1017 470 OFFCURVE",
"1200 313 OFFCURVE",
"1200 0 CURVE",
"1400 0 LINE",
"1400 875 LINE SMOOTH"
);
},
{
closed = 1;
nodes = (
"1125 800 OFFCURVE",
"1100 825 OFFCURVE",
"1100 875 CURVE SMOOTH",
"1100 925 OFFCURVE",
"1125 950 OFFCURVE",
"1175 950 CURVE SMOOTH",
"1225 950 OFFCURVE",
"1250 925 OFFCURVE",
"1250 875 CURVE SMOOTH",
"1250 825 OFFCURVE",
"1225 800 OFFCURVE",
"1175 800 CURVE SMOOTH"
);
},
{
closed = 1;
nodes = (
"400 331 OFFCURVE",
"386 279 OFFCURVE",
"358 244 CURVE SMOOTH",
"343 224 OFFCURVE",
"327 214 OFFCURVE",
"311 214 CURVE SMOOTH",
"298 214 OFFCURVE",
"286 221 OFFCURVE",
"273 234 CURVE SMOOTH",
"262 245 OFFCURVE",
"256 260 OFFCURVE",
"256 279 CURVE SMOOTH",
"256 310 OFFCURVE",
"270 352 OFFCURVE",
"299 405 CURVE",
"318 432 OFFCURVE",
"351 450 OFFCURVE",
"400 460 CURVE",
"400 400 LINE SMOOTH"
);
}
);
width = 1550;
}
);
note = uni1786;
unicode = 1786;
},
{
glyphname = uni1787;
lastChange = "2021-04-30 12:39:39 +0000";
layers = (
{
layerId = "60F86E82-B86D-46D3-A6A0-C6D09B755248";
paths = (
{
closed = 1;
nodes = (
"350 853 OFFCURVE",
"400 929 OFFCURVE",
"500 990 CURVE",
"500 1110 LINE",
"400 1130 LINE SMOOTH",
"333 1143 OFFCURVE",
"300 1175 OFFCURVE",
"300 1225 CURVE SMOOTH",
"300 1300 LINE",
"360 1300 LINE",
"449 1272 OFFCURVE",
"594 1250 OFFCURVE",
"750 1250 CURVE SMOOTH",
"1017 1250 OFFCURVE",
"1150 1350 OFFCURVE",
"1150 1550 CURVE SMOOTH",
"1150 1600 LINE",
"950 1600 LINE",
"950 1550 LINE SMOOTH",
"950 1483 OFFCURVE",
"883 1450 OFFCURVE",
"750 1450 CURVE SMOOTH",
"639 1450 OFFCURVE",
"548 1458 OFFCURVE",
"479 1475 CURVE SMOOTH",
"410 1492 OFFCURVE",
"357 1500 OFFCURVE",
"320 1500 CURVE SMOOTH",
"100 1500 LINE",
"100 1225 LINE SMOOTH",
"100 1103 OFFCURVE",
"144 1022 OFFCURVE",
"233 981 CURVE",
"178 912 OFFCURVE",
"150 839 OFFCURVE",
"150 760 CURVE SMOOTH",
"150 0 LINE",
"350 0 LINE",
"650 309 LINE",
"950 0 LINE",
"1150 0 LINE",
"1150 1100 LINE",
"950 1100 LINE",
"950 287 LINE",
"650 596 LINE",
"350 287 LINE",
"350 760 LINE SMOOTH"
);
}
);
width = 1300;
}
);
note = uni1787;
unicode = 1787;
},
{
glyphname = uni1788;
lastChange = "2021-04-30 12:39:39 +0000";
layers = (
{
layerId = "60F86E82-B86D-46D3-A6A0-C6D09B755248";
paths = (
{
closed = 1;
nodes = (
"1150 1367 OFFCURVE",
"983 1500 OFFCURVE",
"650 1500 CURVE SMOOTH",
"317 1500 OFFCURVE",
"150 1367 OFFCURVE",
"150 1100 CURVE SMOOTH",
"150 1005 OFFCURVE",
"196 935 OFFCURVE",
"287 890 CURVE",
"196 785 OFFCURVE",
"150 622 OFFCURVE",
"150 400 CURVE SMOOTH",
"150 141 OFFCURVE",
"308 0 OFFCURVE",
"439 0 CURVE SMOOTH",
"497 0 OFFCURVE",
"554 27 OFFCURVE",
"610 82 CURVE SMOOTH",
"670 141 OFFCURVE",
"700 200 OFFCURVE",
"700 260 CURVE SMOOTH",
"700 378 OFFCURVE",
"671 467 OFFCURVE",
"613 526 CURVE",
"546 610 LINE",
"392 503 LINE",
"451 405 LINE SMOOTH",
"480 352 OFFCURVE",
"494 310 OFFCURVE",
"494 279 CURVE SMOOTH",
"494 260 OFFCURVE",
"488 245 OFFCURVE",
"477 234 CURVE SMOOTH",
"464 221 OFFCURVE",
"452 214 OFFCURVE",
"439 214 CURVE SMOOTH",
"423 214 OFFCURVE",
"407 224 OFFCURVE",
"392 244 CURVE SMOOTH",
"364 279 OFFCURVE",
"350 331 OFFCURVE",
"350 400 CURVE SMOOTH",
"350 687 OFFCURVE",
"447 830 OFFCURVE",
"640 830 CURVE",
"640 1030 LINE",
"447 1030 OFFCURVE",
"350 1053 OFFCURVE",
"350 1100 CURVE SMOOTH",
"350 1233 OFFCURVE",
"450 1300 OFFCURVE",
"650 1300 CURVE SMOOTH",
"850 1300 OFFCURVE",
"950 1233 OFFCURVE",
"950 1100 CURVE SMOOTH",
"950 400 LINE SMOOTH",
"950 133 OFFCURVE",
"1098 0 OFFCURVE",
"1394 0 CURVE SMOOTH",
"1549 0 OFFCURVE",
"1664 37 OFFCURVE",
"1738 110 CURVE",
"1811 37 OFFCURVE",
"1926 0 OFFCURVE",
"2081 0 CURVE SMOOTH",
"2377 0 OFFCURVE",
"2525 133 OFFCURVE",
"2525 400 CURVE SMOOTH",
"2525 1500 LINE",
"2325 1500 LINE",
"2325 400 LINE SMOOTH",
"2325 267 OFFCURVE",
"2244 200 OFFCURVE",
"2081 200 CURVE SMOOTH",
"1919 200 OFFCURVE",
"1838 267 OFFCURVE",
"1838 400 CURVE SMOOTH",
"1838 1500 LINE",
"1638 1500 LINE",
"1638 400 LINE SMOOTH",
"1638 267 OFFCURVE",
"1557 200 OFFCURVE",
"1394 200 CURVE SMOOTH",
"1231 200 OFFCURVE",
"1150 267 OFFCURVE",
"1150 400 CURVE SMOOTH",
"1150 1100 LINE SMOOTH"
);
}
);
width = 2675;
}
);
note = uni1788;
unicode = 1788;
},
{
glyphname = uni1789;
lastChange = "2021-04-30 12:39:39 +0000";
layers = (
{
layerId = "60F86E82-B86D-46D3-A6A0-C6D09B755248";
paths = (
{
closed = 1;
nodes = (
"1550 1300 OFFCURVE",
"1600 1233 OFFCURVE",
"1600 1100 CURVE SMOOTH",
"1600 0 LINE",
"1800 0 LINE",
"1800 1100 LINE SMOOTH",
"1800 1367 OFFCURVE",
"1683 1500 OFFCURVE",
"1450 1500 CURVE SMOOTH",
"893 1500 LINE",
"650 1265 LINE",
"407 1500 LINE",
"150 1500 LINE",
"150 1100 LINE SMOOTH",
"150 978 OFFCURVE",
"196 895 OFFCURVE",
"287 850 CURVE",
"196 772 OFFCURVE",
"150 622 OFFCURVE",
"150 400 CURVE SMOOTH",
"150 141 OFFCURVE",
"308 0 OFFCURVE",
"439 0 CURVE SMOOTH",
"497 0 OFFCURVE",
"554 27 OFFCURVE",
"610 82 CURVE SMOOTH",
"670 141 OFFCURVE",
"700 200 OFFCURVE",
"700 260 CURVE SMOOTH",
"700 378 OFFCURVE",
"671 467 OFFCURVE",
"613 526 CURVE",
"546 610 LINE",
"392 503 LINE",
"451 405 LINE SMOOTH",
"480 352 OFFCURVE",
"494 310 OFFCURVE",
"494 279 CURVE SMOOTH",
"494 260 OFFCURVE",
"488 245 OFFCURVE",
"477 234 CURVE SMOOTH",
"464 221 OFFCURVE",
"452 214 OFFCURVE",
"439 214 CURVE SMOOTH",
"423 214 OFFCURVE",
"407 224 OFFCURVE",
"392 244 CURVE SMOOTH",
"364 279 OFFCURVE",
"350 331 OFFCURVE",
"350 400 CURVE SMOOTH",
"350 653 OFFCURVE",
"429 780 OFFCURVE",
"588 780 CURVE SMOOTH",
"600 780 LINE",
"600 980 LINE",
"433 987 OFFCURVE",
"350 1027 OFFCURVE",
"350 1100 CURVE SMOOTH",
"350 1277 LINE",
"559 1075 LINE",
"741 1075 LINE",
"950 1277 LINE",
"950 0 LINE",
"1150 0 LINE",
"1150 1300 LINE",
"1450 1300 LINE SMOOTH"
);
},
{
closed = 1;
nodes = (
"565 -400 OFFCURVE",
"693 -437 OFFCURVE",
"784 -512 CURVE SMOOTH",
"936 -637 OFFCURVE",
"1125 -700 OFFCURVE",
"1350 -700 CURVE SMOOTH",
"1650 -700 OFFCURVE",
"1800 -600 OFFCURVE",
"1800 -400 CURVE SMOOTH",
"1800 -200 OFFCURVE",
"1700 -100 OFFCURVE",
"1500 -100 CURVE SMOOTH",
"1300 -100 LINE",
"1300 -300 LINE",
"1500 -300 LINE SMOOTH",
"1567 -300 OFFCURVE",
"1600 -333 OFFCURVE",
"1600 -400 CURVE SMOOTH",
"1600 -467 OFFCURVE",
"1517 -500 OFFCURVE",
"1350 -500 CURVE SMOOTH",
"1186 -500 OFFCURVE",
"1045 -450 OFFCURVE",
"926 -350 CURVE SMOOTH",
"807 -250 OFFCURVE",
"632 -200 OFFCURVE",
"400 -200 CURVE SMOOTH",
"150 -200 LINE",
"150 -400 LINE",
"400 -400 LINE SMOOTH"
);
}
);
width = 1950;
}
);
note = uni1789;
unicode = 1789;
},
{
glyphname = uni178A;
lastChange = "2021-04-30 12:39:39 +0000";
layers = (
{
layerId = "60F86E82-B86D-46D3-A6A0-C6D09B755248";
paths = (
{
closed = 1;
nodes = (
"1033 1150 OFFCURVE",
"1150 1267 OFFCURVE",
"1150 1500 CURVE SMOOTH",
"1150 1600 LINE",
"950 1600 LINE",
"950 1500 LINE SMOOTH",
"950 1400 OFFCURVE",
"900 1350 OFFCURVE",
"800 1350 CURVE SMOOTH",
"350 1350 LINE",
"350 1500 LINE",
"150 1500 LINE",
"150 1150 LINE",
"800 1150 LINE SMOOTH"
);
},
{
closed = 1;
nodes = (
"350 0 LINE",
"650 309 LINE",
"950 0 LINE",
"1150 0 LINE",
"1150 1000 LINE",
"950 1000 LINE",
"950 287 LINE",
"650 596 LINE",
"350 287 LINE",
"350 1000 LINE",
"150 1000 LINE",
"150 0 LINE"
);
}
);
width = 1300;
}
);
note = uni178A;
unicode = 178A;
},
{
glyphname = uni178B;
lastChange = "2021-04-30 12:39:39 +0000";
layers = (
{
layerId = "60F86E82-B86D-46D3-A6A0-C6D09B755248";
paths = (
{
closed = 1;
nodes = (
"1150 835 OFFCURVE",
"1095 1135 OFFCURVE",
"985 1300 CURVE",
"1200 1300 LINE",
"1200 1650 LINE",
"1000 1650 LINE",
"1000 1500 LINE",
"600 1500 LINE",
"600 1300 LINE",
"610 1300 LINE SMOOTH",
"837 1300 OFFCURVE",
"950 1000 OFFCURVE",
"950 400 CURVE SMOOTH",
"950 267 OFFCURVE",
"850 200 OFFCURVE",
"650 200 CURVE SMOOTH",
"450 200 OFFCURVE",
"350 267 OFFCURVE",
"350 400 CURVE SMOOTH",
"350 1500 LINE",
"100 1500 LINE",
"100 1300 LINE",
"150 1300 LINE",
"150 400 LINE SMOOTH",
"150 133 OFFCURVE",
"317 0 OFFCURVE",
"650 0 CURVE SMOOTH",
"983 0 OFFCURVE",
"1150 133 OFFCURVE",
"1150 400 CURVE SMOOTH"
);
}
);
width = 1300;
}
);
note = uni178B;
unicode = 178B;
},
{
glyphname = uni178C;
lastChange = "2021-04-30 12:39:39 +0000";
layers = (
{
layerId = "60F86E82-B86D-46D3-A6A0-C6D09B755248";
paths = (
{
closed = 1;
nodes = (
"741 1075 LINE",
"950 1277 LINE",
"950 1100 LINE SMOOTH",
"950 942 OFFCURVE",
"767 818 OFFCURVE",
"400 729 CURVE SMOOTH",
"150 668 LINE",
"150 400 LINE SMOOTH",
"150 133 OFFCURVE",
"250 0 OFFCURVE",
"450 0 CURVE",
"663 51 OFFCURVE",
"830 126 OFFCURVE",
"950 225 CURVE",
"950 0 LINE",
"1150 0 LINE",
"1150 600 LINE",
"950 600 LINE",
"950 510 LINE",
"897 397 OFFCURVE",
"730 293 OFFCURVE",
"450 200 CURVE",
"383 200 OFFCURVE",
"350 267 OFFCURVE",
"350 400 CURVE SMOOTH",
"350 511 LINE",
"450 536 LINE SMOOTH",
"917 650 OFFCURVE",
"1150 838 OFFCURVE",
"1150 1100 CURVE SMOOTH",
"1150 1500 LINE",
"893 1500 LINE",
"650 1265 LINE",
"407 1500 LINE",
"150 1500 LINE",
"150 1050 LINE SMOOTH",
"150 950 OFFCURVE",
"200 900 OFFCURVE",
"300 900 CURVE SMOOTH",
"450 900 LINE",
"450 1100 LINE",
"350 1100 LINE",
"350 1277 LINE",
"559 1075 LINE"
);
}
);
width = 1300;
}
);
note = uni178C;
unicode = 178C;
},
{
glyphname = uni178D;
lastChange = "2021-04-30 12:39:39 +0000";
layers = (
{
layerId = "60F86E82-B86D-46D3-A6A0-C6D09B755248";
paths = (
{
closed = 1;
nodes = (
"883 439 OFFCURVE",
"850 371 OFFCURVE",
"850 270 CURVE SMOOTH",
"850 166 OFFCURVE",
"883 76 OFFCURVE",
"950 0 CURVE",
"1150 0 LINE",
"1150 300 LINE",
"1250 300 LINE SMOOTH",
"1417 300 OFFCURVE",
"1533 200 OFFCURVE",
"1600 0 CURVE",
"1800 0 LINE",
"1800 1500 LINE",
"1600 1500 LINE",
"1600 365 LINE",
"1491 455 OFFCURVE",
"1374 500 OFFCURVE",
"1250 500 CURVE SMOOTH",
"1150 500 LINE",
"1150 1500 LINE",
"893 1500 LINE",
"650 1265 LINE",
"407 1500 LINE",
"150 1500 LINE",
"150 1100 LINE SMOOTH",
"150 978 OFFCURVE",
"196 895 OFFCURVE",
"287 850 CURVE",
"196 772 OFFCURVE",
"150 622 OFFCURVE",
"150 400 CURVE SMOOTH",
"150 141 OFFCURVE",
"308 0 OFFCURVE",
"439 0 CURVE SMOOTH",
"497 0 OFFCURVE",
"554 27 OFFCURVE",
"610 82 CURVE SMOOTH",
"670 141 OFFCURVE",
"700 200 OFFCURVE",
"700 260 CURVE SMOOTH",
"700 378 OFFCURVE",
"671 467 OFFCURVE",
"613 526 CURVE",
"546 610 LINE",
"392 503 LINE",
"451 405 LINE SMOOTH",
"480 352 OFFCURVE",
"494 310 OFFCURVE",
"494 279 CURVE SMOOTH",
"494 260 OFFCURVE",
"488 245 OFFCURVE",
"477 234 CURVE SMOOTH",
"464 221 OFFCURVE",
"452 214 OFFCURVE",
"439 214 CURVE SMOOTH",
"423 214 OFFCURVE",
"407 224 OFFCURVE",
"392 244 CURVE SMOOTH",
"364 279 OFFCURVE",
"350 331 OFFCURVE",
"350 400 CURVE SMOOTH",
"350 653 OFFCURVE",
"429 780 OFFCURVE",
"588 780 CURVE SMOOTH",
"600 780 LINE",
"600 980 LINE",
"433 987 OFFCURVE",
"350 1027 OFFCURVE",
"350 1100 CURVE SMOOTH",
"350 1277 LINE",
"559 1075 LINE",
"741 1075 LINE",
"950 1277 LINE",
"950 472 LINE"
);
}
);
width = 1950;
}
);
note = uni178D;
unicode = 178D;
},
{
glyphname = uni178E;
lastChange = "2021-04-30 12:39:39 +0000";
layers = (
{
layerId = "60F86E82-B86D-46D3-A6A0-C6D09B755248";
paths = (
{
closed = 1;
nodes = (
"1150 287 LINE",
"1150 1100 LINE SMOOTH",
"1150 1367 OFFCURVE",
"983 1500 OFFCURVE",
"650 1500 CURVE SMOOTH",
"317 1500 OFFCURVE",
"150 1367 OFFCURVE",
"150 1100 CURVE SMOOTH",
"150 1005 OFFCURVE",
"196 935 OFFCURVE",
"287 890 CURVE",
"196 785 OFFCURVE",
"150 622 OFFCURVE",
"150 400 CURVE SMOOTH",
"150 141 OFFCURVE",
"308 0 OFFCURVE",
"439 0 CURVE SMOOTH",
"497 0 OFFCURVE",
"554 27 OFFCURVE",
"610 82 CURVE SMOOTH",
"670 141 OFFCURVE",
"700 200 OFFCURVE",
"700 260 CURVE SMOOTH",
"700 378 OFFCURVE",
"671 467 OFFCURVE",
"613 526 CURVE",
"546 610 LINE",
"392 503 LINE",
"451 405 LINE SMOOTH",
"480 352 OFFCURVE",
"494 310 OFFCURVE",
"494 279 CURVE SMOOTH",
"494 260 OFFCURVE",
"488 245 OFFCURVE",
"477 234 CURVE SMOOTH",
"464 221 OFFCURVE",
"452 214 OFFCURVE",
"439 214 CURVE SMOOTH",
"423 214 OFFCURVE",
"407 224 OFFCURVE",
"392 244 CURVE SMOOTH",
"364 279 OFFCURVE",
"350 331 OFFCURVE",
"350 400 CURVE SMOOTH",
"350 687 OFFCURVE",
"447 830 OFFCURVE",
"640 830 CURVE",
"640 1030 LINE",
"447 1030 OFFCURVE",
"350 1053 OFFCURVE",
"350 1100 CURVE SMOOTH",
"350 1233 OFFCURVE",
"450 1300 OFFCURVE",
"650 1300 CURVE SMOOTH",
"850 1300 OFFCURVE",
"950 1233 OFFCURVE",
"950 1100 CURVE SMOOTH",
"950 0 LINE",
"1150 0 LINE",
"1400 258 LINE",
"1650 0 LINE",
"1850 0 LINE",
"1850 1100 LINE SMOOTH",
"1850 1233 OFFCURVE",
"1933 1300 OFFCURVE",
"2100 1300 CURVE SMOOTH",
"2267 1300 OFFCURVE",
"2350 1233 OFFCURVE",
"2350 1100 CURVE SMOOTH",
"2350 0 LINE",
"2550 0 LINE",
"2550 1100 LINE SMOOTH",
"2550 1367 OFFCURVE",
"2400 1500 OFFCURVE",
"2100 1500 CURVE SMOOTH",
"1800 1500 OFFCURVE",
"1650 1367 OFFCURVE",
"1650 1100 CURVE SMOOTH",
"1650 287 LINE",
"1400 545 LINE"
);
}
);
width = 2700;
}
);
note = uni178E;
unicode = 178E;
},
{
glyphname = uni178F;
lastChange = "2021-04-30 12:39:39 +0000";
layers = (
{
layerId = "60F86E82-B86D-46D3-A6A0-C6D09B755248";
paths = (
{
closed = 1;
nodes = (
"150 1500 LINE",
"150 1300 LINE",
"1150 1300 LINE",
"1150 1500 LINE"
);
},
{
closed = 1;
nodes = (
"150 141 OFFCURVE",
"308 0 OFFCURVE",
"439 0 CURVE SMOOTH",
"497 0 OFFCURVE",
"554 27 OFFCURVE",
"610 82 CURVE SMOOTH",
"670 141 OFFCURVE",
"700 200 OFFCURVE",
"700 260 CURVE SMOOTH",
"700 378 OFFCURVE",
"671 467 OFFCURVE",
"613 526 CURVE",
"546 610 LINE",
"392 503 LINE",
"451 405 LINE SMOOTH",
"480 352 OFFCURVE",
"494 310 OFFCURVE",
"494 279 CURVE SMOOTH",
"494 260 OFFCURVE",
"488 245 OFFCURVE",
"477 234 CURVE SMOOTH",
"464 221 OFFCURVE",
"452 214 OFFCURVE",
"439 214 CURVE SMOOTH",
"423 214 OFFCURVE",
"407 224 OFFCURVE",
"392 244 CURVE SMOOTH",
"364 279 OFFCURVE",
"350 331 OFFCURVE",
"350 400 CURVE SMOOTH",
"350 700 LINE SMOOTH",
"350 833 OFFCURVE",
"450 900 OFFCURVE",
"650 900 CURVE SMOOTH",
"850 900 OFFCURVE",
"950 833 OFFCURVE",
"950 700 CURVE SMOOTH",
"950 0 LINE",
"1150 0 LINE",
"1150 700 LINE SMOOTH",
"1150 967 OFFCURVE",
"983 1100 OFFCURVE",
"650 1100 CURVE SMOOTH",
"317 1100 OFFCURVE",
"150 967 OFFCURVE",
"150 700 CURVE SMOOTH",
"150 400 LINE SMOOTH"
);
}
);
width = 1300;
}
);
note = uni178F;
unicode = 178F;
},
{
glyphname = uni1790;
lastChange = "2021-04-30 12:39:39 +0000";
layers = (
{
layerId = "60F86E82-B86D-46D3-A6A0-C6D09B755248";
paths = (
{
closed = 1;
nodes = (
"950 267 OFFCURVE",
"850 200 OFFCURVE",
"650 200 CURVE SMOOTH",
"450 200 OFFCURVE",
"350 267 OFFCURVE",
"350 400 CURVE SMOOTH",
"350 760 LINE SMOOTH",
"350 853 OFFCURVE",
"400 929 OFFCURVE",
"500 990 CURVE",
"500 1100 LINE",
"400 1126 LINE SMOOTH",
"333 1142 OFFCURVE",
"300 1175 OFFCURVE",
"300 1225 CURVE SMOOTH",
"300 1300 LINE",
"360 1300 LINE",
"449 1272 OFFCURVE",
"594 1250 OFFCURVE",
"750 1250 CURVE SMOOTH",
"1017 1250 OFFCURVE",
"1150 1350 OFFCURVE",
"1150 1550 CURVE SMOOTH",
"1150 1600 LINE",
"950 1600 LINE",
"950 1550 LINE SMOOTH",
"950 1483 OFFCURVE",
"883 1450 OFFCURVE",
"750 1450 CURVE SMOOTH",
"639 1450 OFFCURVE",
"548 1458 OFFCURVE",
"479 1475 CURVE SMOOTH",
"410 1492 OFFCURVE",
"357 1500 OFFCURVE",
"320 1500 CURVE SMOOTH",
"100 1500 LINE",
"100 1225 LINE SMOOTH",
"100 1103 OFFCURVE",
"144 1022 OFFCURVE",
"233 981 CURVE",
"178 912 OFFCURVE",
"150 839 OFFCURVE",
"150 760 CURVE SMOOTH",
"150 400 LINE SMOOTH",
"150 133 OFFCURVE",
"317 0 OFFCURVE",
"650 0 CURVE SMOOTH",
"983 0 OFFCURVE",
"1150 133 OFFCURVE",
"1150 400 CURVE SMOOTH",
"1150 875 LINE SMOOTH",
"1150 1025 OFFCURVE",
"1075 1100 OFFCURVE",
"925 1100 CURVE SMOOTH",
"775 1100 OFFCURVE",
"700 1025 OFFCURVE",
"700 875 CURVE SMOOTH",
"700 725 OFFCURVE",
"775 650 OFFCURVE",
"925 650 CURVE SMOOTH",
"934 650 OFFCURVE",
"942 650 OFFCURVE",
"950 651 CURVE",
"950 400 LINE SMOOTH"
);
},
{
closed = 1;
nodes = (
"875 800 OFFCURVE",
"850 825 OFFCURVE",
"850 875 CURVE SMOOTH",
"850 925 OFFCURVE",
"875 950 OFFCURVE",
"925 950 CURVE SMOOTH",
"975 950 OFFCURVE",
"1000 925 OFFCURVE",
"1000 875 CURVE SMOOTH",
"1000 825 OFFCURVE",
"975 800 OFFCURVE",
"925 800 CURVE SMOOTH"
);
}
);
width = 1300;
}
);
note = uni1790;
unicode = 1790;
},
{
glyphname = uni1791;
lastChange = "2021-04-30 12:39:39 +0000";
layers = (
{
layerId = "60F86E82-B86D-46D3-A6A0-C6D09B755248";
paths = (
{
closed = 1;
nodes = (
"1117 541 OFFCURVE",
"1150 582 OFFCURVE",
"1150 641 CURVE SMOOTH",
"1150 718 LINE SMOOTH",
"1150 791 OFFCURVE",
"1117 828 OFFCURVE",
"1050 831 CURVE SMOOTH",
"1042 831 LINE SMOOTH",
"979 831 OFFCURVE",
"931 797 OFFCURVE",
"900 729 CURVE",
"533 818 OFFCURVE",
"350 942 OFFCURVE",
"350 1100 CURVE SMOOTH",
"350 1233 OFFCURVE",
"450 1300 OFFCURVE",
"650 1300 CURVE SMOOTH",
"850 1300 OFFCURVE",
"950 1250 OFFCURVE",
"950 1150 CURVE",
"850 1150 LINE",
"850 950 LINE",
"1000 950 LINE SMOOTH",
"1100 950 OFFCURVE",
"1150 1000 OFFCURVE",
"1150 1100 CURVE SMOOTH",
"1150 1150 LINE SMOOTH",
"1150 1383 OFFCURVE",
"983 1500 OFFCURVE",
"650 1500 CURVE SMOOTH",
"317 1500 OFFCURVE",
"150 1367 OFFCURVE",
"150 1100 CURVE SMOOTH",
"150 838 OFFCURVE",
"383 650 OFFCURVE",
"850 536 CURVE",
"850 400 LINE SMOOTH",
"850 267 OFFCURVE",
"775 200 OFFCURVE",
"625 200 CURVE SMOOTH",
"475 200 OFFCURVE",
"400 267 OFFCURVE",
"400 400 CURVE SMOOTH",
"400 600 LINE",
"200 600 LINE",
"200 400 LINE SMOOTH",
"200 133 OFFCURVE",
"342 0 OFFCURVE",
"625 0 CURVE SMOOTH",
"908 0 OFFCURVE",
"1050 133 OFFCURVE",
"1050 400 CURVE SMOOTH",
"1050 518 LINE"
);
}
);
width = 1300;
}
);
note = uni1791;
unicode = 1791;
},
{
glyphname = uni1792;
lastChange = "2021-04-30 12:39:39 +0000";
layers = (
{
layerId = "60F86E82-B86D-46D3-A6A0-C6D09B755248";
paths = (
{
closed = 1;
nodes = (
"350 853 OFFCURVE",
"400 929 OFFCURVE",
"500 990 CURVE",
"500 1110 LINE",
"400 1130 LINE SMOOTH",
"333 1143 OFFCURVE",
"300 1175 OFFCURVE",
"300 1225 CURVE SMOOTH",
"300 1300 LINE",
"1150 1300 LINE",
"1150 1500 LINE",
"100 1500 LINE",
"100 1225 LINE SMOOTH",
"100 1103 OFFCURVE",
"144 1022 OFFCURVE",
"233 981 CURVE",
"178 912 OFFCURVE",
"150 839 OFFCURVE",
"150 760 CURVE SMOOTH",
"150 0 LINE",
"350 0 LINE",
"650 309 LINE",
"950 0 LINE",
"1150 0 LINE",
"1150 875 LINE SMOOTH",
"1150 1025 OFFCURVE",
"1075 1100 OFFCURVE",
"925 1100 CURVE SMOOTH",
"775 1100 OFFCURVE",
"700 1025 OFFCURVE",
"700 875 CURVE SMOOTH",
"700 725 OFFCURVE",
"775 650 OFFCURVE",
"925 650 CURVE SMOOTH",
"934 650 OFFCURVE",
"942 650 OFFCURVE",
"950 651 CURVE",
"950 287 LINE",
"650 596 LINE",
"350 287 LINE",
"350 760 LINE SMOOTH"
);
},
{
closed = 1;
nodes = (
"875 800 OFFCURVE",
"850 825 OFFCURVE",
"850 875 CURVE SMOOTH",
"850 925 OFFCURVE",
"875 950 OFFCURVE",
"925 950 CURVE SMOOTH",
"975 950 OFFCURVE",
"1000 925 OFFCURVE",
"1000 875 CURVE SMOOTH",
"1000 825 OFFCURVE",
"975 800 OFFCURVE",
"925 800 CURVE SMOOTH"
);
}
);
width = 1300;
}
);
note = uni1792;
unicode = 1792;
},
{
glyphname = uni1793;
lastChange = "2021-04-30 12:39:39 +0000";
layers = (
{
layerId = "60F86E82-B86D-46D3-A6A0-C6D09B755248";
paths = (
{
closed = 1;
nodes = (
"350 277 LINE",
"350 600 LINE",
"150 600 LINE",
"150 0 LINE",
"350 0 LINE",
"650 289 LINE",
"950 0 LINE",
"1150 0 LINE",
"1150 801 LINE",
"895 840 LINE SMOOTH",
"532 897 OFFCURVE",
"350 983 OFFCURVE",
"350 1100 CURVE SMOOTH",
"350 1233 OFFCURVE",
"450 1300 OFFCURVE",
"650 1300 CURVE SMOOTH",
"850 1300 OFFCURVE",
"950 1250 OFFCURVE",
"950 1150 CURVE",
"850 1150 LINE",
"850 950 LINE",
"1000 950 LINE SMOOTH",
"1100 950 OFFCURVE",
"1150 1000 OFFCURVE",
"1150 1100 CURVE SMOOTH",
"1150 1150 LINE SMOOTH",
"1150 1383 OFFCURVE",
"983 1500 OFFCURVE",
"650 1500 CURVE SMOOTH",
"317 1500 OFFCURVE",
"150 1367 OFFCURVE",
"150 1100 CURVE SMOOTH",
"150 869 OFFCURVE",
"387 717 OFFCURVE",
"862 644 CURVE SMOOTH",
"950 629 LINE",
"950 277 LINE",
"650 566 LINE"
);
}
);
width = 1300;
}
);
note = uni1793;
unicode = 1793;
},
{
glyphname = uni1794;
lastChange = "2021-04-30 12:39:39 +0000";
layers = (
{
layerId = "60F86E82-B86D-46D3-A6A0-C6D09B755248";
paths = (
{
closed = 1;
nodes = (
"350 853 OFFCURVE",
"400 929 OFFCURVE",
"500 990 CURVE",
"500 1110 LINE",
"400 1130 LINE SMOOTH",
"333 1143 OFFCURVE",
"300 1175 OFFCURVE",
"300 1225 CURVE SMOOTH",
"300 1275 OFFCURVE",
"320 1300 OFFCURVE",
"360 1300 CURVE SMOOTH",
"420 1300 OFFCURVE",
"467 1293 OFFCURVE",
"500 1280 CURVE",
"500 1480 LINE",
"453 1493 OFFCURVE",
"407 1500 OFFCURVE",
"360 1500 CURVE SMOOTH",
"187 1500 OFFCURVE",
"100 1408 OFFCURVE",
"100 1225 CURVE SMOOTH",
"100 1103 OFFCURVE",
"144 1022 OFFCURVE",
"233 981 CURVE",
"178 912 OFFCURVE",
"150 839 OFFCURVE",
"150 760 CURVE SMOOTH",
"150 400 LINE SMOOTH",
"150 133 OFFCURVE",
"317 0 OFFCURVE",
"650 0 CURVE SMOOTH",
"983 0 OFFCURVE",
"1150 133 OFFCURVE",
"1150 400 CURVE SMOOTH",
"1150 1500 LINE",
"950 1500 LINE",
"950 400 LINE SMOOTH",
"950 267 OFFCURVE",
"850 200 OFFCURVE",
"650 200 CURVE SMOOTH",
"450 200 OFFCURVE",
"350 267 OFFCURVE",
"350 400 CURVE SMOOTH",
"350 760 LINE SMOOTH"
);
}
);
width = 1300;
}
);
note = uni1794;
unicode = 1794;
},
{
glyphname = uni1795;
lastChange = "2021-04-30 12:39:39 +0000";
layers = (
{
layerId = "60F86E82-B86D-46D3-A6A0-C6D09B755248";
paths = (
{
closed = 1;
nodes = (
"350 287 LINE",
"350 760 LINE SMOOTH",
"350 853 OFFCURVE",
"400 929 OFFCURVE",
"500 990 CURVE",
"500 1110 LINE",
"400 1130 LINE SMOOTH",
"333 1143 OFFCURVE",
"300 1175 OFFCURVE",
"300 1225 CURVE SMOOTH",
"300 1300 LINE",
"360 1300 LINE",
"449 1272 OFFCURVE",
"594 1250 OFFCURVE",
"750 1250 CURVE SMOOTH",
"1017 1250 OFFCURVE",
"1150 1350 OFFCURVE",
"1150 1550 CURVE SMOOTH",
"1150 1600 LINE",
"950 1600 LINE",
"950 1550 LINE SMOOTH",
"950 1483 OFFCURVE",
"883 1450 OFFCURVE",
"750 1450 CURVE SMOOTH",
"639 1450 OFFCURVE",
"548 1458 OFFCURVE",
"479 1475 CURVE SMOOTH",
"410 1492 OFFCURVE",
"357 1500 OFFCURVE",
"320 1500 CURVE SMOOTH",
"100 1500 LINE",
"100 1225 LINE SMOOTH",
"100 1103 OFFCURVE",
"144 1022 OFFCURVE",
"233 981 CURVE",
"178 912 OFFCURVE",
"150 839 OFFCURVE",
"150 760 CURVE SMOOTH",
"150 0 LINE",
"350 0 LINE",
"650 309 LINE",
"950 0 LINE",
"1150 0 LINE",
"1150 875 LINE SMOOTH",
"1150 1025 OFFCURVE",
"1075 1100 OFFCURVE",
"925 1100 CURVE SMOOTH",
"775 1100 OFFCURVE",
"700 1025 OFFCURVE",
"700 875 CURVE SMOOTH",
"700 725 OFFCURVE",
"775 650 OFFCURVE",
"925 650 CURVE SMOOTH",
"934 650 OFFCURVE",
"942 650 OFFCURVE",
"950 651 CURVE",
"950 287 LINE",
"650 596 LINE"
);
},
{
closed = 1;
nodes = (
"875 800 OFFCURVE",
"850 825 OFFCURVE",
"850 875 CURVE SMOOTH",
"850 925 OFFCURVE",
"875 950 OFFCURVE",
"925 950 CURVE SMOOTH",
"975 950 OFFCURVE",
"1000 925 OFFCURVE",
"1000 875 CURVE SMOOTH",
"1000 825 OFFCURVE",
"975 800 OFFCURVE",
"925 800 CURVE SMOOTH"
);
}
);
width = 1300;
}
);
note = uni1795;
unicode = 1795;
},
{
glyphname = uni1796;
lastChange = "2021-04-30 12:39:39 +0000";
layers = (
{
layerId = "60F86E82-B86D-46D3-A6A0-C6D09B755248";
paths = (
{
closed = 1;
nodes = (
"650 1265 LINE",
"407 1500 LINE",
"150 1500 LINE",
"150 1100 LINE SMOOTH",
"150 978 OFFCURVE",
"196 895 OFFCURVE",
"287 850 CURVE",
"196 772 OFFCURVE",
"150 622 OFFCURVE",
"150 400 CURVE SMOOTH",
"150 141 OFFCURVE",
"308 0 OFFCURVE",
"439 0 CURVE SMOOTH",
"497 0 OFFCURVE",
"554 27 OFFCURVE",
"610 82 CURVE SMOOTH",
"670 141 OFFCURVE",
"700 200 OFFCURVE",
"700 260 CURVE SMOOTH",
"700 378 OFFCURVE",
"671 467 OFFCURVE",
"613 526 CURVE",
"546 610 LINE",
"392 503 LINE",
"451 405 LINE SMOOTH",
"480 352 OFFCURVE",
"494 310 OFFCURVE",
"494 279 CURVE SMOOTH",
"494 260 OFFCURVE",
"488 245 OFFCURVE",
"477 234 CURVE SMOOTH",
"464 221 OFFCURVE",
"452 214 OFFCURVE",
"439 214 CURVE SMOOTH",
"423 214 OFFCURVE",
"407 224 OFFCURVE",
"392 244 CURVE SMOOTH",
"364 279 OFFCURVE",
"350 331 OFFCURVE",
"350 400 CURVE SMOOTH",
"350 653 OFFCURVE",
"429 780 OFFCURVE",
"588 780 CURVE SMOOTH",
"600 780 LINE",
"600 980 LINE",
"433 987 OFFCURVE",
"350 1027 OFFCURVE",
"350 1100 CURVE SMOOTH",
"350 1277 LINE",
"559 1075 LINE",
"741 1075 LINE",
"950 1277 LINE",
"950 0 LINE",
"1150 0 LINE",
"1150 1500 LINE",
"893 1500 LINE"
);
}
);
width = 1300;
}
);
note = uni1796;
unicode = 1796;
},
{
glyphname = uni1797;
lastChange = "2021-04-30 12:39:39 +0000";
layers = (
{
layerId = "60F86E82-B86D-46D3-A6A0-C6D09B755248";
paths = (
{
closed = 1;
nodes = (
"150 1500 LINE",
"150 1300 LINE",
"1150 1300 LINE",
"1150 1500 LINE"
);
},
{
closed = 1;
nodes = (
"445 323 OFFCURVE",
"450 312 OFFCURVE",
"450 301 CURVE SMOOTH",
"450 284 OFFCURVE",
"439 265 OFFCURVE",
"418 244 CURVE SMOOTH",
"397 222 OFFCURVE",
"378 211 OFFCURVE",
"361 211 CURVE SMOOTH",
"350 211 OFFCURVE",
"339 216 OFFCURVE",
"330 225 CURVE SMOOTH",
"318 237 OFFCURVE",
"312 249 OFFCURVE",
"312 261 CURVE SMOOTH",
"312 272 OFFCURVE",
"318 284 OFFCURVE",
"329 296 CURVE SMOOTH",
"364 332 LINE",
"222 472 LINE",
"187 436 LINE SMOOTH",
"129 377 OFFCURVE",
"100 318 OFFCURVE",
"100 260 CURVE SMOOTH",
"100 200 OFFCURVE",
"130 141 OFFCURVE",
"190 82 CURVE SMOOTH",
"246 27 OFFCURVE",
"303 0 OFFCURVE",
"361 0 CURVE SMOOTH",
"426 0 OFFCURVE",
"493 35 OFFCURVE",
"561 104 CURVE SMOOTH",
"628 172 OFFCURVE",
"661 238 OFFCURVE",
"661 302 CURVE SMOOTH",
"661 361 OFFCURVE",
"632 419 OFFCURVE",
"575 475 CURVE SMOOTH",
"350 696 LINE",
"350 700 LINE SMOOTH",
"350 833 OFFCURVE",
"450 900 OFFCURVE",
"650 900 CURVE SMOOTH",
"850 900 OFFCURVE",
"950 833 OFFCURVE",
"950 700 CURVE SMOOTH",
"950 0 LINE",
"1150 0 LINE",
"1150 700 LINE SMOOTH",
"1150 967 OFFCURVE",
"983 1100 OFFCURVE",
"650 1100 CURVE SMOOTH",
"317 1100 OFFCURVE",
"150 967 OFFCURVE",
"150 700 CURVE SMOOTH",
"150 612 LINE",
"435 332 LINE SMOOTH"
);
}
);
width = 1300;
}
);
note = uni1797;
unicode = 1797;
},
{
glyphname = uni1798;
lastChange = "2021-04-30 12:39:39 +0000";
layers = (
{
layerId = "60F86E82-B86D-46D3-A6A0-C6D09B755248";
paths = (
{
closed = 1;
nodes = (
"350 853 OFFCURVE",
"400 929 OFFCURVE",
"500 990 CURVE",
"500 1110 LINE",
"400 1130 LINE SMOOTH",
"333 1143 OFFCURVE",
"300 1175 OFFCURVE",
"300 1225 CURVE SMOOTH",
"300 1275 OFFCURVE",
"320 1300 OFFCURVE",
"360 1300 CURVE SMOOTH",
"420 1300 OFFCURVE",
"467 1293 OFFCURVE",
"500 1280 CURVE",
"500 1480 LINE",
"453 1493 OFFCURVE",
"407 1500 OFFCURVE",
"360 1500 CURVE SMOOTH",
"187 1500 OFFCURVE",
"100 1408 OFFCURVE",
"100 1225 CURVE SMOOTH",
"100 1103 OFFCURVE",
"144 1022 OFFCURVE",
"233 981 CURVE",
"178 912 OFFCURVE",
"150 839 OFFCURVE",
"150 760 CURVE SMOOTH",
"150 400 LINE SMOOTH",
"150 133 OFFCURVE",
"317 0 OFFCURVE",
"650 0 CURVE SMOOTH",
"983 0 OFFCURVE",
"1150 133 OFFCURVE",
"1150 400 CURVE SMOOTH",
"1150 1500 LINE",
"950 1500 LINE",
"950 900 LINE",
"450 900 LINE",
"450 700 LINE",
"950 700 LINE",
"950 400 LINE SMOOTH",
"950 267 OFFCURVE",
"850 200 OFFCURVE",
"650 200 CURVE SMOOTH",
"450 200 OFFCURVE",
"350 267 OFFCURVE",
"350 400 CURVE SMOOTH",
"350 760 LINE SMOOTH"
);
}
);
width = 1300;
}
);
note = uni1798;
unicode = 1798;
},
{
glyphname = uni1799;
lastChange = "2021-04-30 12:39:39 +0000";
layers = (
{
layerId = "60F86E82-B86D-46D3-A6A0-C6D09B755248";
paths = (
{
closed = 1;
nodes = (
"350 1169 OFFCURVE",
"364 1221 OFFCURVE",
"392 1257 CURVE SMOOTH",
"407 1276 OFFCURVE",
"423 1286 OFFCURVE",
"439 1286 CURVE SMOOTH",
"452 1286 OFFCURVE",
"464 1280 OFFCURVE",
"477 1267 CURVE SMOOTH",
"488 1256 OFFCURVE",
"494 1240 OFFCURVE",
"494 1221 CURVE SMOOTH",
"494 1190 OFFCURVE",
"480 1148 OFFCURVE",
"451 1095 CURVE SMOOTH",
"392 997 LINE",
"546 890 LINE",
"613 974 LINE",
"671 1033 OFFCURVE",
"700 1122 OFFCURVE",
"700 1240 CURVE SMOOTH",
"700 1300 OFFCURVE",
"670 1359 OFFCURVE",
"610 1418 CURVE SMOOTH",
"554 1473 OFFCURVE",
"497 1500 OFFCURVE",
"439 1500 CURVE SMOOTH",
"308 1500 OFFCURVE",
"150 1359 OFFCURVE",
"150 1100 CURVE SMOOTH",
"150 400 LINE SMOOTH",
"150 133 OFFCURVE",
"317 0 OFFCURVE",
"650 0 CURVE SMOOTH",
"831 0 OFFCURVE",
"963 39 OFFCURVE",
"1046 118 CURVE",
"1123 39 OFFCURVE",
"1245 0 OFFCURVE",
"1413 0 CURVE SMOOTH",
"1721 0 OFFCURVE",
"1875 133 OFFCURVE",
"1875 400 CURVE SMOOTH",
"1875 1500 LINE",
"1675 1500 LINE",
"1675 400 LINE SMOOTH",
"1675 267 OFFCURVE",
"1588 200 OFFCURVE",
"1413 200 CURVE SMOOTH",
"1238 200 OFFCURVE",
"1150 267 OFFCURVE",
"1150 400 CURVE SMOOTH",
"1150 1500 LINE",
"950 1500 LINE",
"950 400 LINE SMOOTH",
"950 267 OFFCURVE",
"850 200 OFFCURVE",
"650 200 CURVE SMOOTH",
"450 200 OFFCURVE",
"350 267 OFFCURVE",
"350 400 CURVE SMOOTH",
"350 1100 LINE SMOOTH"
);
}
);
width = 2025;
}
);
note = uni1799;
unicode = 1799;
},
{
glyphname = uni179A;
lastChange = "2021-04-30 12:39:39 +0000";
layers = (
{
layerId = "60F86E82-B86D-46D3-A6A0-C6D09B755248";
paths = (
{
closed = 1;
nodes = (
"600 835 OFFCURVE",
"545 1135 OFFCURVE",
"435 1300 CURVE",
"650 1300 LINE",
"650 1500 LINE",
"50 1500 LINE",
"50 1300 LINE",
"60 1300 LINE SMOOTH",
"287 1300 OFFCURVE",
"400 1000 OFFCURVE",
"400 400 CURVE SMOOTH",
"400 331 OFFCURVE",
"386 279 OFFCURVE",
"358 244 CURVE SMOOTH",
"343 224 OFFCURVE",
"327 214 OFFCURVE",
"311 214 CURVE SMOOTH",
"298 214 OFFCURVE",
"286 221 OFFCURVE",
"273 234 CURVE SMOOTH",
"262 245 OFFCURVE",
"256 260 OFFCURVE",
"256 279 CURVE SMOOTH",
"256 310 OFFCURVE",
"270 352 OFFCURVE",
"299 405 CURVE SMOOTH",
"358 503 LINE",
"204 610 LINE",
"137 526 LINE",
"79 467 OFFCURVE",
"50 378 OFFCURVE",
"50 260 CURVE SMOOTH",
"50 200 OFFCURVE",
"80 141 OFFCURVE",
"140 82 CURVE SMOOTH",
"196 27 OFFCURVE",
"253 0 OFFCURVE",
"311 0 CURVE SMOOTH",
"442 0 OFFCURVE",
"600 141 OFFCURVE",
"600 400 CURVE SMOOTH"
);
}
);
width = 750;
}
);
note = uni179A;
unicode = 179A;
},
{
glyphname = uni179B;
lastChange = "2021-04-30 12:39:39 +0000";
layers = (
{
layerId = "60F86E82-B86D-46D3-A6A0-C6D09B755248";
paths = (
{
closed = 1;
nodes = (
"1150 1367 OFFCURVE",
"983 1500 OFFCURVE",
"650 1500 CURVE SMOOTH",
"317 1500 OFFCURVE",
"150 1367 OFFCURVE",
"150 1100 CURVE SMOOTH",
"150 1005 OFFCURVE",
"196 935 OFFCURVE",
"287 890 CURVE",
"196 785 OFFCURVE",
"150 622 OFFCURVE",
"150 400 CURVE SMOOTH",
"150 141 OFFCURVE",
"308 0 OFFCURVE",
"439 0 CURVE SMOOTH",
"497 0 OFFCURVE",
"554 27 OFFCURVE",
"610 82 CURVE SMOOTH",
"670 141 OFFCURVE",
"700 200 OFFCURVE",
"700 260 CURVE SMOOTH",
"700 378 OFFCURVE",
"671 467 OFFCURVE",
"613 526 CURVE",
"546 610 LINE",
"392 503 LINE",
"451 405 LINE SMOOTH",
"480 352 OFFCURVE",
"494 310 OFFCURVE",
"494 279 CURVE SMOOTH",
"494 260 OFFCURVE",
"488 245 OFFCURVE",
"477 234 CURVE SMOOTH",
"464 221 OFFCURVE",
"452 214 OFFCURVE",
"439 214 CURVE SMOOTH",
"423 214 OFFCURVE",
"407 224 OFFCURVE",
"392 244 CURVE SMOOTH",
"364 279 OFFCURVE",
"350 331 OFFCURVE",
"350 400 CURVE SMOOTH",
"350 687 OFFCURVE",
"447 830 OFFCURVE",
"640 830 CURVE",
"640 1030 LINE",
"447 1030 OFFCURVE",
"350 1053 OFFCURVE",
"350 1100 CURVE SMOOTH",
"350 1233 OFFCURVE",
"450 1300 OFFCURVE",
"650 1300 CURVE SMOOTH",
"850 1300 OFFCURVE",
"950 1233 OFFCURVE",
"950 1100 CURVE SMOOTH",
"950 400 LINE SMOOTH",
"950 133 OFFCURVE",
"1104 0 OFFCURVE",
"1413 0 CURVE SMOOTH",
"1721 0 OFFCURVE",
"1875 133 OFFCURVE",
"1875 400 CURVE SMOOTH",
"1875 1500 LINE",
"1675 1500 LINE",
"1675 400 LINE SMOOTH",
"1675 267 OFFCURVE",
"1588 200 OFFCURVE",
"1413 200 CURVE SMOOTH",
"1238 200 OFFCURVE",
"1150 267 OFFCURVE",
"1150 400 CURVE SMOOTH",
"1150 1100 LINE SMOOTH"
);
}
);
width = 2025;
}
);
note = uni179B;
unicode = 179B;
},
{
glyphname = uni179C;
lastChange = "2021-04-30 12:39:39 +0000";
layers = (
{
layerId = "60F86E82-B86D-46D3-A6A0-C6D09B755248";
paths = (
{
closed = 1;
nodes = (
"60 1300 LINE SMOOTH",
"287 1300 OFFCURVE",
"400 1000 OFFCURVE",
"400 400 CURVE SMOOTH",
"400 331 OFFCURVE",
"386 279 OFFCURVE",
"358 244 CURVE SMOOTH",
"343 224 OFFCURVE",
"327 214 OFFCURVE",
"311 214 CURVE SMOOTH",
"298 214 OFFCURVE",
"286 221 OFFCURVE",
"273 234 CURVE SMOOTH",
"262 245 OFFCURVE",
"256 260 OFFCURVE",
"256 279 CURVE SMOOTH",
"256 310 OFFCURVE",
"270 352 OFFCURVE",
"299 405 CURVE SMOOTH",
"358 503 LINE",
"204 610 LINE",
"137 526 LINE",
"79 467 OFFCURVE",
"50 378 OFFCURVE",
"50 260 CURVE SMOOTH",
"50 200 OFFCURVE",
"80 141 OFFCURVE",
"140 82 CURVE SMOOTH",
"196 27 OFFCURVE",
"253 0 OFFCURVE",
"311 0 CURVE SMOOTH",
"442 0 OFFCURVE",
"600 141 OFFCURVE",
"600 400 CURVE SMOOTH",
"600 835 OFFCURVE",
"545 1135 OFFCURVE",
"435 1300 CURVE",
"650 1300 LINE",
"650 1650 LINE",
"450 1650 LINE",
"450 1500 LINE",
"50 1500 LINE",
"50 1300 LINE"
);
}
);
width = 750;
}
);
note = uni179C;
unicode = 179C;
},
{
glyphname = uni179D;
lastChange = "2021-04-30 12:39:39 +0000";
layers = (
{
layerId = "60F86E82-B86D-46D3-A6A0-C6D09B755248";
paths = (
{
closed = 1;
nodes = (
"150 1500 LINE",
"150 1300 LINE",
"1150 1300 LINE",
"1150 1500 LINE"
);
},
{
closed = 1;
nodes = (
"1150 967 OFFCURVE",
"983 1100 OFFCURVE",
"650 1100 CURVE SMOOTH",
"317 1100 OFFCURVE",
"150 967 OFFCURVE",
"150 700 CURVE SMOOTH",
"150 0 LINE",
"350 0 LINE",
"350 30 LINE",
"700 476 LINE",
"543 600 LINE",
"350 354 LINE",
"350 700 LINE SMOOTH",
"350 833 OFFCURVE",
"450 900 OFFCURVE",
"650 900 CURVE SMOOTH",
"850 900 OFFCURVE",
"950 833 OFFCURVE",
"950 700 CURVE SMOOTH",
"950 650 LINE",
"750 650 LINE",
"750 450 LINE",
"950 450 LINE",
"950 0 LINE",
"1150 0 LINE",
"1150 450 LINE",
"1300 450 LINE",
"1300 650 LINE",
"1150 650 LINE",
"1150 700 LINE SMOOTH"
);
}
);
width = 1300;
}
);
note = uni179D;
unicode = 179D;
},
{
glyphname = uni179E;
lastChange = "2021-04-30 12:39:39 +0000";
layers = (
{
layerId = "60F86E82-B86D-46D3-A6A0-C6D09B755248";
paths = (
{
closed = 1;
nodes = (
"350 853 OFFCURVE",
"400 929 OFFCURVE",
"500 990 CURVE",
"500 1110 LINE",
"400 1130 LINE SMOOTH",
"333 1143 OFFCURVE",
"300 1175 OFFCURVE",
"300 1225 CURVE SMOOTH",
"300 1275 OFFCURVE",
"320 1300 OFFCURVE",
"360 1300 CURVE SMOOTH",
"420 1300 OFFCURVE",
"467 1293 OFFCURVE",
"500 1280 CURVE",
"500 1480 LINE",
"453 1493 OFFCURVE",
"407 1500 OFFCURVE",
"360 1500 CURVE SMOOTH",
"187 1500 OFFCURVE",
"100 1408 OFFCURVE",
"100 1225 CURVE SMOOTH",
"100 1103 OFFCURVE",
"144 1022 OFFCURVE",
"233 981 CURVE",
"178 912 OFFCURVE",
"150 839 OFFCURVE",
"150 760 CURVE SMOOTH",
"150 400 LINE SMOOTH",
"150 133 OFFCURVE",
"317 0 OFFCURVE",
"650 0 CURVE SMOOTH",
"983 0 OFFCURVE",
"1150 133 OFFCURVE",
"1150 400 CURVE SMOOTH",
"1150 700 LINE",
"1300 700 LINE",
"1300 900 LINE",
"1150 900 LINE",
"1150 1500 LINE",
"950 1500 LINE",
"950 900 LINE",
"700 900 LINE",
"700 700 LINE",
"950 700 LINE",
"950 400 LINE SMOOTH",
"950 267 OFFCURVE",
"850 200 OFFCURVE",
"650 200 CURVE SMOOTH",
"450 200 OFFCURVE",
"350 267 OFFCURVE",
"350 400 CURVE SMOOTH",
"350 760 LINE SMOOTH"
);
}
);
width = 1300;
}
);
note = uni179E;
unicode = 179E;
},
{
glyphname = uni179F;
lastChange = "2021-04-30 12:39:39 +0000";
layers = (
{
layerId = "60F86E82-B86D-46D3-A6A0-C6D09B755248";
paths = (
{
closed = 1;
nodes = (
"350 833 OFFCURVE",
"450 900 OFFCURVE",
"650 900 CURVE SMOOTH",
"850 900 OFFCURVE",
"950 833 OFFCURVE",
"950 700 CURVE SMOOTH",
"950 400 LINE SMOOTH",
"950 133 OFFCURVE",
"1104 0 OFFCURVE",
"1413 0 CURVE SMOOTH",
"1721 0 OFFCURVE",
"1875 133 OFFCURVE",
"1875 400 CURVE SMOOTH",
"1875 1500 LINE",
"1675 1500 LINE",
"1675 400 LINE SMOOTH",
"1675 267 OFFCURVE",
"1588 200 OFFCURVE",
"1413 200 CURVE SMOOTH",
"1238 200 OFFCURVE",
"1150 267 OFFCURVE",
"1150 400 CURVE SMOOTH",
"1150 700 LINE SMOOTH",
"1150 967 OFFCURVE",
"983 1100 OFFCURVE",
"650 1100 CURVE SMOOTH",
"317 1100 OFFCURVE",
"150 967 OFFCURVE",
"150 700 CURVE SMOOTH",
"150 400 LINE SMOOTH",
"150 141 OFFCURVE",
"308 0 OFFCURVE",
"439 0 CURVE SMOOTH",
"497 0 OFFCURVE",
"554 27 OFFCURVE",
"610 82 CURVE SMOOTH",
"670 141 OFFCURVE",
"700 200 OFFCURVE",
"700 260 CURVE SMOOTH",
"700 378 OFFCURVE",
"671 467 OFFCURVE",
"613 526 CURVE",
"546 610 LINE",
"392 503 LINE",
"451 405 LINE SMOOTH",
"480 352 OFFCURVE",
"494 310 OFFCURVE",
"494 279 CURVE SMOOTH",
"494 260 OFFCURVE",
"488 245 OFFCURVE",
"477 234 CURVE SMOOTH",
"464 221 OFFCURVE",
"452 214 OFFCURVE",
"439 214 CURVE SMOOTH",
"423 214 OFFCURVE",
"407 224 OFFCURVE",
"392 244 CURVE SMOOTH",
"364 279 OFFCURVE",
"350 331 OFFCURVE",
"350 400 CURVE SMOOTH",
"350 700 LINE SMOOTH"
);
},
{
closed = 1;
nodes = (
"200 1500 LINE",
"200 1300 LINE",
"1050 1300 LINE",
"1050 1500 LINE"
);
}
);
width = 2025;
}
);
note = uni179F;
unicode = 179F;
},
{
glyphname = uni17A0;
lastChange = "2021-04-30 12:39:39 +0000";
layers = (
{
layerId = "60F86E82-B86D-46D3-A6A0-C6D09B755248";
paths = (
{
closed = 1;
nodes = (
"350 853 OFFCURVE",
"400 929 OFFCURVE",
"500 990 CURVE",
"500 1110 LINE",
"400 1130 LINE SMOOTH",
"333 1143 OFFCURVE",
"300 1175 OFFCURVE",
"300 1225 CURVE SMOOTH",
"300 1275 OFFCURVE",
"320 1300 OFFCURVE",
"360 1300 CURVE SMOOTH",
"420 1300 OFFCURVE",
"467 1293 OFFCURVE",
"500 1280 CURVE",
"500 1480 LINE",
"453 1493 OFFCURVE",
"407 1500 OFFCURVE",
"360 1500 CURVE SMOOTH",
"187 1500 OFFCURVE",
"100 1408 OFFCURVE",
"100 1225 CURVE SMOOTH",
"100 1103 OFFCURVE",
"144 1022 OFFCURVE",
"233 981 CURVE",
"178 912 OFFCURVE",
"150 839 OFFCURVE",
"150 760 CURVE SMOOTH",
"150 400 LINE SMOOTH",
"150 133 OFFCURVE",
"317 0 OFFCURVE",
"650 0 CURVE SMOOTH",
"983 0 OFFCURVE",
"1150 133 OFFCURVE",
"1150 400 CURVE SMOOTH",
"1150 1100 LINE SMOOTH",
"1150 1233 OFFCURVE",
"1233 1300 OFFCURVE",
"1400 1300 CURVE SMOOTH",
"1567 1300 OFFCURVE",
"1650 1233 OFFCURVE",
"1650 1100 CURVE SMOOTH",
"1650 0 LINE",
"1850 0 LINE",
"1850 1100 LINE SMOOTH",
"1850 1367 OFFCURVE",
"1700 1500 OFFCURVE",
"1400 1500 CURVE SMOOTH",
"1100 1500 OFFCURVE",
"950 1367 OFFCURVE",
"950 1100 CURVE SMOOTH",
"950 400 LINE SMOOTH",
"950 267 OFFCURVE",
"850 200 OFFCURVE",
"650 200 CURVE SMOOTH",
"450 200 OFFCURVE",
"350 267 OFFCURVE",
"350 400 CURVE SMOOTH",
"350 760 LINE SMOOTH"
);
}
);
width = 2000;
}
);
note = uni17A0;
unicode = 17A0;
},
{
glyphname = uni17A1;
lastChange = "2021-04-30 12:39:39 +0000";
layers = (
{
layerId = "60F86E82-B86D-46D3-A6A0-C6D09B755248";
paths = (
{
closed = 1;
nodes = (
"1117 541 OFFCURVE",
"1150 582 OFFCURVE",
"1150 641 CURVE SMOOTH",
"1150 718 LINE SMOOTH",
"1150 791 OFFCURVE",
"1117 828 OFFCURVE",
"1050 831 CURVE SMOOTH",
"1042 831 LINE SMOOTH",
"979 831 OFFCURVE",
"931 797 OFFCURVE",
"900 729 CURVE",
"533 818 OFFCURVE",
"350 942 OFFCURVE",
"350 1100 CURVE SMOOTH",
"350 1233 OFFCURVE",
"450 1300 OFFCURVE",
"650 1300 CURVE SMOOTH",
"850 1300 OFFCURVE",
"950 1250 OFFCURVE",
"950 1150 CURVE",
"850 1150 LINE",
"850 950 LINE",
"1000 950 LINE SMOOTH",
"1100 950 OFFCURVE",
"1150 1000 OFFCURVE",
"1150 1100 CURVE SMOOTH",
"1150 1150 LINE SMOOTH",
"1150 1383 OFFCURVE",
"983 1500 OFFCURVE",
"650 1500 CURVE SMOOTH",
"317 1500 OFFCURVE",
"150 1367 OFFCURVE",
"150 1100 CURVE SMOOTH",
"150 838 OFFCURVE",
"383 650 OFFCURVE",
"850 536 CURVE",
"850 400 LINE SMOOTH",
"850 267 OFFCURVE",
"775 200 OFFCURVE",
"625 200 CURVE SMOOTH",
"475 200 OFFCURVE",
"400 267 OFFCURVE",
"400 400 CURVE SMOOTH",
"400 600 LINE",
"200 600 LINE",
"200 400 LINE SMOOTH",
"200 133 OFFCURVE",
"342 0 OFFCURVE",
"625 0 CURVE SMOOTH",
"908 0 OFFCURVE",
"1050 133 OFFCURVE",
"1050 400 CURVE SMOOTH",
"1050 518 LINE"
);
},
{
closed = 1;
nodes = (
"1300 -495 LINE",
"1450 -650 LINE",
"1650 -650 LINE",
"1650 1500 LINE",
"1450 1500 LINE",
"1450 -413 LINE",
"1300 -258 LINE",
"1150 -413 LINE",
"1150 -100 LINE",
"900 -100 LINE",
"900 -300 LINE",
"950 -300 LINE",
"950 -650 LINE",
"1150 -650 LINE"
);
}
);
width = 1800;
}
);
note = uni17A1;
unicode = 17A1;
},
{
glyphname = uni17A2;
lastChange = "2021-04-30 12:39:39 +0000";
layers = (
{
layerId = "60F86E82-B86D-46D3-A6A0-C6D09B755248";
paths = (
{
closed = 1;
nodes = (
"600 835 OFFCURVE",
"545 1135 OFFCURVE",
"435 1300 CURVE",
"650 1300 LINE",
"650 1500 LINE",
"50 1500 LINE",
"50 1300 LINE",
"60 1300 LINE SMOOTH",
"287 1300 OFFCURVE",
"400 1000 OFFCURVE",
"400 400 CURVE SMOOTH",
"400 331 OFFCURVE",
"386 279 OFFCURVE",
"358 244 CURVE SMOOTH",
"343 224 OFFCURVE",
"327 214 OFFCURVE",
"311 214 CURVE SMOOTH",
"298 214 OFFCURVE",
"286 221 OFFCURVE",
"273 234 CURVE SMOOTH",
"262 245 OFFCURVE",
"256 260 OFFCURVE",
"256 279 CURVE SMOOTH",
"256 310 OFFCURVE",
"270 352 OFFCURVE",
"299 405 CURVE SMOOTH",
"358 503 LINE",
"204 610 LINE",
"137 526 LINE",
"79 467 OFFCURVE",
"50 378 OFFCURVE",
"50 260 CURVE SMOOTH",
"50 200 OFFCURVE",
"80 141 OFFCURVE",
"140 82 CURVE SMOOTH",
"196 27 OFFCURVE",
"253 0 OFFCURVE",
"311 0 CURVE SMOOTH",
"442 0 OFFCURVE",
"600 141 OFFCURVE",
"600 400 CURVE SMOOTH"
);
},
{
closed = 1;
nodes = (
"1400 1500 LINE",
"1200 1500 LINE",
"1200 900 LINE",
"650 900 LINE",
"650 700 LINE",
"1200 700 LINE",
"1200 0 LINE",
"1400 0 LINE"
);
}
);
width = 1550;
}
);
note = uni17A2;
unicode = 17A2;
},
{
glyphname = uni17A5;
lastChange = "2021-04-30 12:39:39 +0000";
layers = (
{
layerId = "60F86E82-B86D-46D3-A6A0-C6D09B755248";
paths = (
{
closed = 1;
nodes = (
"464 1208 LINE",
"453 1233 OFFCURVE",
"441 1257 OFFCURVE",
"427 1279 CURVE",
"531 1260 OFFCURVE",
"639 1250 OFFCURVE",
"750 1250 CURVE SMOOTH",
"1017 1250 OFFCURVE",
"1150 1350 OFFCURVE",
"1150 1550 CURVE SMOOTH",
"1150 1600 LINE",
"950 1600 LINE",
"950 1550 LINE SMOOTH",
"950 1483 OFFCURVE",
"883 1450 OFFCURVE",
"750 1450 CURVE SMOOTH",
"612 1450 OFFCURVE",
"487 1467 OFFCURVE",
"375 1500 CURVE",
"100 1500 LINE",
"100 1300 LINE",
"191 1269 OFFCURVE",
"255 1222 OFFCURVE",
"291 1159 CURVE"
);
},
{
closed = 1;
nodes = (
"150 141 OFFCURVE",
"308 0 OFFCURVE",
"439 0 CURVE SMOOTH",
"497 0 OFFCURVE",
"554 27 OFFCURVE",
"610 82 CURVE SMOOTH",
"670 141 OFFCURVE",
"700 200 OFFCURVE",
"700 260 CURVE SMOOTH",
"700 378 OFFCURVE",
"671 467 OFFCURVE",
"613 526 CURVE",
"546 610 LINE",
"392 503 LINE",
"451 405 LINE SMOOTH",
"480 352 OFFCURVE",
"494 310 OFFCURVE",
"494 279 CURVE SMOOTH",
"494 260 OFFCURVE",
"488 245 OFFCURVE",
"477 234 CURVE SMOOTH",
"464 221 OFFCURVE",
"452 214 OFFCURVE",
"439 214 CURVE SMOOTH",
"423 214 OFFCURVE",
"407 224 OFFCURVE",
"392 244 CURVE SMOOTH",
"364 279 OFFCURVE",
"350 331 OFFCURVE",
"350 400 CURVE SMOOTH",
"350 700 LINE SMOOTH",
"350 833 OFFCURVE",
"450 900 OFFCURVE",
"650 900 CURVE SMOOTH",
"850 900 OFFCURVE",
"950 833 OFFCURVE",
"950 700 CURVE SMOOTH",
"950 0 LINE",
"1150 0 LINE",
"1150 700 LINE SMOOTH",
"1150 967 OFFCURVE",
"983 1100 OFFCURVE",
"650 1100 CURVE SMOOTH",
"317 1100 OFFCURVE",
"150 967 OFFCURVE",
"150 700 CURVE SMOOTH",
"150 400 LINE SMOOTH"
);
}
);
width = 1300;
}
);
note = uni17A5;
unicode = 17A5;
},
{
glyphname = uni17A6;
lastChange = "2021-04-30 12:39:39 +0000";
layers = (
{
layerId = "60F86E82-B86D-46D3-A6A0-C6D09B755248";
paths = (
{
closed = 1;
nodes = (
"1650 1867 OFFCURVE",
"1533 2000 OFFCURVE",
"1300 2000 CURVE SMOOTH",
"1243 2000 OFFCURVE",
"1194 1994 OFFCURVE",
"1151 1982 CURVE",
"1150 2350 LINE",
"950 2350 LINE",
"950 1700 LINE",
"1150 1700 LINE",
"1150 1767 OFFCURVE",
"1200 1800 OFFCURVE",
"1300 1800 CURVE SMOOTH",
"1400 1800 OFFCURVE",
"1450 1733 OFFCURVE",
"1450 1600 CURVE SMOOTH",
"1450 -400 LINE SMOOTH",
"1450 -467 OFFCURVE",
"1417 -500 OFFCURVE",
"1350 -500 CURVE SMOOTH",
"1100 -500 LINE",
"1100 -400 LINE SMOOTH",
"1100 -200 OFFCURVE",
"950 -100 OFFCURVE",
"650 -100 CURVE SMOOTH",
"350 -100 OFFCURVE",
"200 -200 OFFCURVE",
"200 -400 CURVE SMOOTH",
"200 -700 LINE",
"550 -700 LINE",
"550 -500 LINE",
"400 -500 LINE",
"400 -400 LINE SMOOTH",
"400 -300 OFFCURVE",
"483 -250 OFFCURVE",
"650 -250 CURVE SMOOTH",
"817 -250 OFFCURVE",
"900 -300 OFFCURVE",
"900 -400 CURVE SMOOTH",
"900 -700 LINE",
"1350 -700 LINE SMOOTH",
"1550 -700 OFFCURVE",
"1650 -600 OFFCURVE",
"1650 -400 CURVE SMOOTH",
"1650 1600 LINE SMOOTH"
);
},
{
closed = 1;
nodes = (
"350 1233 OFFCURVE",
"450 1300 OFFCURVE",
"650 1300 CURVE SMOOTH",
"850 1300 OFFCURVE",
"950 1233 OFFCURVE",
"950 1100 CURVE SMOOTH",
"950 0 LINE",
"1150 0 LINE",
"1150 1100 LINE SMOOTH",
"1150 1367 OFFCURVE",
"983 1500 OFFCURVE",
"650 1500 CURVE SMOOTH",
"317 1500 OFFCURVE",
"150 1367 OFFCURVE",
"150 1100 CURVE SMOOTH",
"150 400 LINE SMOOTH",
"150 141 OFFCURVE",
"308 0 OFFCURVE",
"439 0 CURVE SMOOTH",
"497 0 OFFCURVE",
"554 27 OFFCURVE",
"610 82 CURVE SMOOTH",
"670 141 OFFCURVE",
"700 200 OFFCURVE",
"700 260 CURVE SMOOTH",
"700 378 OFFCURVE",
"671 467 OFFCURVE",
"613 526 CURVE",
"546 610 LINE",
"392 503 LINE",
"451 405 LINE SMOOTH",
"480 352 OFFCURVE",
"494 310 OFFCURVE",
"494 279 CURVE SMOOTH",
"494 260 OFFCURVE",
"488 245 OFFCURVE",
"477 234 CURVE SMOOTH",
"464 221 OFFCURVE",
"452 214 OFFCURVE",
"439 214 CURVE SMOOTH",
"423 214 OFFCURVE",
"407 224 OFFCURVE",
"392 244 CURVE SMOOTH",
"364 279 OFFCURVE",
"350 331 OFFCURVE",
"350 400 CURVE SMOOTH",
"350 1100 LINE SMOOTH"
);
}
);
width = 1800;
}
);
note = uni17A6;
unicode = 17A6;
},
{
glyphname = uni17A7;
lastChange = "2021-04-30 12:39:39 +0000";
layers = (
{
layerId = "60F86E82-B86D-46D3-A6A0-C6D09B755248";
paths = (
{
closed = 1;
nodes = (
"1150 600 LINE",
"950 600 LINE",
"950 510 LINE",
"897 397 OFFCURVE",
"730 293 OFFCURVE",
"450 200 CURVE",
"383 200 OFFCURVE",
"350 267 OFFCURVE",
"350 400 CURVE SMOOTH",
"350 511 LINE",
"450 536 LINE SMOOTH",
"917 650 OFFCURVE",
"1150 838 OFFCURVE",
"1150 1100 CURVE SMOOTH",
"1150 1367 OFFCURVE",
"983 1500 OFFCURVE",
"650 1500 CURVE SMOOTH",
"317 1500 OFFCURVE",
"150 1367 OFFCURVE",
"150 1100 CURVE SMOOTH",
"150 1050 LINE SMOOTH",
"150 950 OFFCURVE",
"200 900 OFFCURVE",
"300 900 CURVE SMOOTH",
"450 900 LINE",
"450 1100 LINE",
"350 1100 LINE",
"350 1233 OFFCURVE",
"450 1300 OFFCURVE",
"650 1300 CURVE SMOOTH",
"850 1300 OFFCURVE",
"950 1233 OFFCURVE",
"950 1100 CURVE SMOOTH",
"950 942 OFFCURVE",
"767 818 OFFCURVE",
"400 729 CURVE SMOOTH",
"150 668 LINE",
"150 400 LINE SMOOTH",
"150 133 OFFCURVE",
"250 0 OFFCURVE",
"450 0 CURVE",
"663 51 OFFCURVE",
"830 126 OFFCURVE",
"950 225 CURVE",
"950 -50 LINE",
"1150 -50 LINE"
);
}
);
width = 1300;
}
);
note = uni17A7;
unicode = 17A7;
},
{
glyphname = uni17A8;
lastChange = "2021-04-30 12:39:39 +0000";
layers = (
{
layerId = "60F86E82-B86D-46D3-A6A0-C6D09B755248";
paths = (
{
closed = 1;
nodes = (
"150 1900 LINE",
"150 1700 LINE",
"1150 1700 LINE",
"1150 1900 LINE"
);
},
{
closed = 1;
nodes = (
"1150 600 LINE",
"950 600 LINE",
"950 510 LINE",
"897 397 OFFCURVE",
"730 293 OFFCURVE",
"450 200 CURVE",
"383 200 OFFCURVE",
"350 267 OFFCURVE",
"350 400 CURVE SMOOTH",
"350 511 LINE",
"450 536 LINE SMOOTH",
"917 650 OFFCURVE",
"1150 838 OFFCURVE",
"1150 1100 CURVE SMOOTH",
"1150 1367 OFFCURVE",
"983 1500 OFFCURVE",
"650 1500 CURVE SMOOTH",
"317 1500 OFFCURVE",
"150 1367 OFFCURVE",
"150 1100 CURVE SMOOTH",
"150 1050 LINE SMOOTH",
"150 950 OFFCURVE",
"200 900 OFFCURVE",
"300 900 CURVE SMOOTH",
"450 900 LINE",
"450 1100 LINE",
"350 1100 LINE",
"350 1233 OFFCURVE",
"450 1300 OFFCURVE",
"650 1300 CURVE SMOOTH",
"850 1300 OFFCURVE",
"950 1233 OFFCURVE",
"950 1100 CURVE SMOOTH",
"950 942 OFFCURVE",
"767 818 OFFCURVE",
"400 729 CURVE SMOOTH",
"150 668 LINE",
"150 400 LINE SMOOTH",
"150 133 OFFCURVE",
"250 0 OFFCURVE",
"450 0 CURVE",
"663 51 OFFCURVE",
"830 126 OFFCURVE",
"950 225 CURVE",
"950 -50 LINE",
"1150 -50 LINE"
);
}
);
width = 1300;
}
);
note = uni17A8;
unicode = 17A8;
},
{
glyphname = uni17A9;
lastChange = "2021-04-30 12:39:39 +0000";
layers = (
{
layerId = "60F86E82-B86D-46D3-A6A0-C6D09B755248";
paths = (
{
closed = 1;
nodes = (
"1150 600 LINE",
"950 600 LINE",
"950 510 LINE",
"897 397 OFFCURVE",
"730 293 OFFCURVE",
"450 200 CURVE",
"383 200 OFFCURVE",
"350 267 OFFCURVE",
"350 400 CURVE SMOOTH",
"350 511 LINE",
"450 536 LINE SMOOTH",
"917 650 OFFCURVE",
"1150 838 OFFCURVE",
"1150 1100 CURVE SMOOTH",
"1150 1367 OFFCURVE",
"983 1500 OFFCURVE",
"650 1500 CURVE SMOOTH",
"317 1500 OFFCURVE",
"150 1367 OFFCURVE",
"150 1100 CURVE SMOOTH",
"150 1050 LINE SMOOTH",
"150 950 OFFCURVE",
"200 900 OFFCURVE",
"300 900 CURVE SMOOTH",
"450 900 LINE",
"450 1100 LINE",
"350 1100 LINE",
"350 1233 OFFCURVE",
"450 1300 OFFCURVE",
"650 1300 CURVE SMOOTH",
"850 1300 OFFCURVE",
"950 1233 OFFCURVE",
"950 1100 CURVE SMOOTH",
"950 942 OFFCURVE",
"767 818 OFFCURVE",
"400 729 CURVE SMOOTH",
"150 668 LINE",
"150 400 LINE SMOOTH",
"150 133 OFFCURVE",
"250 0 OFFCURVE",
"450 0 CURVE",
"663 51 OFFCURVE",
"830 126 OFFCURVE",
"950 225 CURVE",
"950 -50 LINE",
"1150 -50 LINE"
);
},
{
closed = 1;
nodes = (
"1470 600 LINE",
"1270 600 LINE",
"1270 -50 LINE",
"1470 -50 LINE"
);
}
);
width = 1300;
}
);
note = uni17A9;
unicode = 17A9;
},
{
glyphname = uni17AA;
lastChange = "2021-04-30 12:39:39 +0000";
layers = (
{
layerId = "60F86E82-B86D-46D3-A6A0-C6D09B755248";
paths = (
{
closed = 1;
nodes = (
"464 1608 LINE",
"453 1633 OFFCURVE",
"441 1657 OFFCURVE",
"427 1679 CURVE",
"531 1660 OFFCURVE",
"639 1650 OFFCURVE",
"750 1650 CURVE SMOOTH",
"1017 1650 OFFCURVE",
"1150 1750 OFFCURVE",
"1150 1950 CURVE SMOOTH",
"1150 2000 LINE",
"950 2000 LINE",
"950 1950 LINE SMOOTH",
"950 1883 OFFCURVE",
"883 1850 OFFCURVE",
"750 1850 CURVE SMOOTH",
"612 1850 OFFCURVE",
"487 1867 OFFCURVE",
"375 1900 CURVE",
"100 1900 LINE",
"100 1700 LINE",
"191 1669 OFFCURVE",
"255 1622 OFFCURVE",
"291 1559 CURVE"
);
},
{
closed = 1;
nodes = (
"1150 600 LINE",
"950 600 LINE",
"950 510 LINE",
"897 397 OFFCURVE",
"730 293 OFFCURVE",
"450 200 CURVE",
"383 200 OFFCURVE",
"350 267 OFFCURVE",
"350 400 CURVE SMOOTH",
"350 511 LINE",
"450 536 LINE SMOOTH",
"917 650 OFFCURVE",
"1150 838 OFFCURVE",
"1150 1100 CURVE SMOOTH",
"1150 1367 OFFCURVE",
"983 1500 OFFCURVE",
"650 1500 CURVE SMOOTH",
"317 1500 OFFCURVE",
"150 1367 OFFCURVE",
"150 1100 CURVE SMOOTH",
"150 1050 LINE SMOOTH",
"150 950 OFFCURVE",
"200 900 OFFCURVE",
"300 900 CURVE SMOOTH",
"450 900 LINE",
"450 1100 LINE",
"350 1100 LINE",
"350 1233 OFFCURVE",
"450 1300 OFFCURVE",
"650 1300 CURVE SMOOTH",
"850 1300 OFFCURVE",
"950 1233 OFFCURVE",
"950 1100 CURVE SMOOTH",
"950 942 OFFCURVE",
"767 818 OFFCURVE",
"400 729 CURVE SMOOTH",
"150 668 LINE",
"150 400 LINE SMOOTH",
"150 133 OFFCURVE",
"250 0 OFFCURVE",
"450 0 CURVE",
"663 51 OFFCURVE",
"830 126 OFFCURVE",
"950 225 CURVE",
"950 -50 LINE",
"1150 -50 LINE"
);
}
);
width = 1300;
}
);
note = uni17AA;
unicode = 17AA;
},
{
glyphname = uni17AB;
lastChange = "2021-04-30 12:39:39 +0000";
layers = (
{
layerId = "60F86E82-B86D-46D3-A6A0-C6D09B755248";
paths = (
{
closed = 1;
nodes = (
"350 853 OFFCURVE",
"400 929 OFFCURVE",
"500 990 CURVE",
"500 1110 LINE",
"400 1130 LINE SMOOTH",
"333 1143 OFFCURVE",
"300 1175 OFFCURVE",
"300 1225 CURVE SMOOTH",
"300 1275 OFFCURVE",
"320 1300 OFFCURVE",
"360 1300 CURVE SMOOTH",
"420 1300 OFFCURVE",
"467 1293 OFFCURVE",
"500 1280 CURVE",
"500 1480 LINE",
"453 1493 OFFCURVE",
"407 1500 OFFCURVE",
"360 1500 CURVE SMOOTH",
"187 1500 OFFCURVE",
"100 1408 OFFCURVE",
"100 1225 CURVE SMOOTH",
"100 1103 OFFCURVE",
"144 1022 OFFCURVE",
"233 981 CURVE",
"178 912 OFFCURVE",
"150 839 OFFCURVE",
"150 760 CURVE SMOOTH",
"150 400 LINE SMOOTH",
"150 133 OFFCURVE",
"317 0 OFFCURVE",
"650 0 CURVE SMOOTH",
"983 0 OFFCURVE",
"1150 133 OFFCURVE",
"1150 400 CURVE SMOOTH",
"1150 1500 LINE",
"950 1500 LINE",
"950 400 LINE SMOOTH",
"950 267 OFFCURVE",
"850 200 OFFCURVE",
"650 200 CURVE SMOOTH",
"450 200 OFFCURVE",
"350 267 OFFCURVE",
"350 400 CURVE SMOOTH",
"350 760 LINE SMOOTH"
);
},
{
closed = 1;
nodes = (
"917 -700 OFFCURVE",
"1150 -567 OFFCURVE",
"1150 -300 CURVE SMOOTH",
"1150 -100 LINE",
"650 -100 LINE",
"650 -300 LINE",
"950 -300 LINE",
"950 -433 OFFCURVE",
"783 -500 OFFCURVE",
"450 -500 CURVE SMOOTH",
"150 -500 LINE",
"150 -700 LINE",
"450 -700 LINE SMOOTH"
);
}
);
width = 1300;
}
);
note = uni17AB;
unicode = 17AB;
},
{
glyphname = uni17AC;
lastChange = "2021-04-30 12:39:39 +0000";
layers = (
{
layerId = "60F86E82-B86D-46D3-A6A0-C6D09B755248";
paths = (
{
closed = 1;
nodes = (
"350 853 OFFCURVE",
"400 929 OFFCURVE",
"500 990 CURVE",
"500 1110 LINE",
"400 1130 LINE SMOOTH",
"333 1143 OFFCURVE",
"300 1175 OFFCURVE",
"300 1225 CURVE SMOOTH",
"300 1275 OFFCURVE",
"320 1300 OFFCURVE",
"360 1300 CURVE SMOOTH",
"420 1300 OFFCURVE",
"467 1293 OFFCURVE",
"500 1280 CURVE",
"500 1480 LINE",
"453 1493 OFFCURVE",
"407 1500 OFFCURVE",
"360 1500 CURVE SMOOTH",
"187 1500 OFFCURVE",
"100 1408 OFFCURVE",
"100 1225 CURVE SMOOTH",
"100 1103 OFFCURVE",
"144 1022 OFFCURVE",
"233 981 CURVE",
"178 912 OFFCURVE",
"150 839 OFFCURVE",
"150 760 CURVE SMOOTH",
"150 400 LINE SMOOTH",
"150 133 OFFCURVE",
"317 0 OFFCURVE",
"650 0 CURVE SMOOTH",
"983 0 OFFCURVE",
"1150 133 OFFCURVE",
"1150 400 CURVE SMOOTH",
"1150 1500 LINE",
"950 1500 LINE",
"950 400 LINE SMOOTH",
"950 267 OFFCURVE",
"850 200 OFFCURVE",
"650 200 CURVE SMOOTH",
"450 200 OFFCURVE",
"350 267 OFFCURVE",
"350 400 CURVE SMOOTH",
"350 760 LINE SMOOTH"
);
},
{
closed = 1;
nodes = (
"1139 -411 OFFCURVE",
"1150 -359 OFFCURVE",
"1150 -300 CURVE SMOOTH",
"1150 -100 LINE",
"650 -100 LINE",
"650 -300 LINE",
"950 -300 LINE",
"950 -433 OFFCURVE",
"783 -500 OFFCURVE",
"450 -500 CURVE SMOOTH",
"150 -500 LINE",
"150 -700 LINE",
"450 -700 LINE SMOOTH",
"681 -700 OFFCURVE",
"854 -667 OFFCURVE",
"971 -602 CURVE",
"1038 -667 OFFCURVE",
"1115 -700 OFFCURVE",
"1200 -700 CURVE SMOOTH",
"1300 -700 LINE",
"1300 -500 LINE",
"1200 -500 LINE SMOOTH",
"1174 -500 OFFCURVE",
"1146 -485 OFFCURVE",
"1116 -456 CURVE"
);
}
);
width = 1300;
}
);
note = uni17AC;
unicode = 17AC;
},
{
glyphname = uni17AD;
lastChange = "2021-04-30 12:39:39 +0000";
layers = (
{
layerId = "60F86E82-B86D-46D3-A6A0-C6D09B755248";
paths = (
{
closed = 1;
nodes = (
"650 1265 LINE",
"407 1500 LINE",
"150 1500 LINE",
"150 1100 LINE SMOOTH",
"150 978 OFFCURVE",
"196 895 OFFCURVE",
"287 850 CURVE",
"196 772 OFFCURVE",
"150 622 OFFCURVE",
"150 400 CURVE SMOOTH",
"150 141 OFFCURVE",
"308 0 OFFCURVE",
"439 0 CURVE SMOOTH",
"497 0 OFFCURVE",
"554 27 OFFCURVE",
"610 82 CURVE SMOOTH",
"670 141 OFFCURVE",
"700 200 OFFCURVE",
"700 260 CURVE SMOOTH",
"700 378 OFFCURVE",
"671 467 OFFCURVE",
"613 526 CURVE",
"546 610 LINE",
"392 503 LINE",
"451 405 LINE SMOOTH",
"480 352 OFFCURVE",
"494 310 OFFCURVE",
"494 279 CURVE SMOOTH",
"494 260 OFFCURVE",
"488 245 OFFCURVE",
"477 234 CURVE SMOOTH",
"464 221 OFFCURVE",
"452 214 OFFCURVE",
"439 214 CURVE SMOOTH",
"423 214 OFFCURVE",
"407 224 OFFCURVE",
"392 244 CURVE SMOOTH",
"364 279 OFFCURVE",
"350 331 OFFCURVE",
"350 400 CURVE SMOOTH",
"350 653 OFFCURVE",
"429 780 OFFCURVE",
"588 780 CURVE SMOOTH",
"600 780 LINE",
"600 980 LINE",
"433 987 OFFCURVE",
"350 1027 OFFCURVE",
"350 1100 CURVE SMOOTH",
"350 1277 LINE",
"559 1075 LINE",
"741 1075 LINE",
"950 1277 LINE",
"950 0 LINE",
"1150 0 LINE",
"1150 1500 LINE",
"893 1500 LINE"
);
},
{
closed = 1;
nodes = (
"917 -700 OFFCURVE",
"1150 -567 OFFCURVE",
"1150 -300 CURVE SMOOTH",
"1150 -100 LINE",
"650 -100 LINE",
"650 -300 LINE",
"950 -300 LINE",
"950 -433 OFFCURVE",
"783 -500 OFFCURVE",
"450 -500 CURVE SMOOTH",
"150 -500 LINE",
"150 -700 LINE",
"450 -700 LINE SMOOTH"
);
}
);
width = 1300;
}
);
note = uni17AD;
unicode = 17AD;
},
{
glyphname = uni17AE;
lastChange = "2021-04-30 12:39:39 +0000";
layers = (
{
layerId = "60F86E82-B86D-46D3-A6A0-C6D09B755248";
paths = (
{
closed = 1;
nodes = (
"650 1265 LINE",
"407 1500 LINE",
"150 1500 LINE",
"150 1100 LINE SMOOTH",
"150 978 OFFCURVE",
"196 895 OFFCURVE",
"287 850 CURVE",
"196 772 OFFCURVE",
"150 622 OFFCURVE",
"150 400 CURVE SMOOTH",
"150 141 OFFCURVE",
"308 0 OFFCURVE",
"439 0 CURVE SMOOTH",
"497 0 OFFCURVE",
"554 27 OFFCURVE",
"610 82 CURVE SMOOTH",
"670 141 OFFCURVE",
"700 200 OFFCURVE",
"700 260 CURVE SMOOTH",
"700 378 OFFCURVE",
"671 467 OFFCURVE",
"613 526 CURVE",
"546 610 LINE",
"392 503 LINE",
"451 405 LINE SMOOTH",
"480 352 OFFCURVE",
"494 310 OFFCURVE",
"494 279 CURVE SMOOTH",
"494 260 OFFCURVE",
"488 245 OFFCURVE",
"477 234 CURVE SMOOTH",
"464 221 OFFCURVE",
"452 214 OFFCURVE",
"439 214 CURVE SMOOTH",
"423 214 OFFCURVE",
"407 224 OFFCURVE",
"392 244 CURVE SMOOTH",
"364 279 OFFCURVE",
"350 331 OFFCURVE",
"350 400 CURVE SMOOTH",
"350 653 OFFCURVE",
"429 780 OFFCURVE",
"588 780 CURVE SMOOTH",
"600 780 LINE",
"600 980 LINE",
"433 987 OFFCURVE",
"350 1027 OFFCURVE",
"350 1100 CURVE SMOOTH",
"350 1277 LINE",
"559 1075 LINE",
"741 1075 LINE",
"950 1277 LINE",
"950 0 LINE",
"1150 0 LINE",
"1150 1500 LINE",
"893 1500 LINE"
);
},
{
closed = 1;
nodes = (
"1139 -411 OFFCURVE",
"1150 -359 OFFCURVE",
"1150 -300 CURVE SMOOTH",
"1150 -100 LINE",
"650 -100 LINE",
"650 -300 LINE",
"950 -300 LINE",
"950 -433 OFFCURVE",
"783 -500 OFFCURVE",
"450 -500 CURVE SMOOTH",
"150 -500 LINE",
"150 -700 LINE",
"450 -700 LINE SMOOTH",
"681 -700 OFFCURVE",
"854 -667 OFFCURVE",
"971 -602 CURVE",
"1038 -667 OFFCURVE",
"1115 -700 OFFCURVE",
"1200 -700 CURVE SMOOTH",
"1300 -700 LINE",
"1300 -500 LINE",
"1200 -500 LINE SMOOTH",
"1174 -500 OFFCURVE",
"1146 -485 OFFCURVE",
"1116 -456 CURVE"
);
}
);
width = 1300;
}
);
note = uni17AE;
unicode = 17AE;
},
{
glyphname = uni17AF;
lastChange = "2021-04-30 12:39:39 +0000";
layers = (
{
layerId = "60F86E82-B86D-46D3-A6A0-C6D09B755248";
paths = (
{
closed = 1;
nodes = (
"1150 1367 OFFCURVE",
"983 1500 OFFCURVE",
"650 1500 CURVE SMOOTH",
"527 1500 OFFCURVE",
"427 1484 OFFCURVE",
"350 1453 CURVE",
"350 1850 LINE",
"150 1850 LINE",
"150 1150 LINE",
"350 1150 LINE",
"350 1250 OFFCURVE",
"450 1300 OFFCURVE",
"650 1300 CURVE SMOOTH",
"850 1300 OFFCURVE",
"950 1233 OFFCURVE",
"950 1100 CURVE SMOOTH",
"950 287 LINE",
"650 596 LINE",
"350 287 LINE",
"350 1000 LINE",
"100 1000 LINE",
"100 800 LINE",
"150 800 LINE",
"150 0 LINE",
"350 0 LINE",
"650 309 LINE",
"950 0 LINE",
"1150 0 LINE",
"1150 1100 LINE SMOOTH"
);
}
);
width = 1300;
}
);
note = uni17AF;
unicode = 17AF;
},
{
glyphname = uni17B0;
lastChange = "2021-04-30 12:39:39 +0000";
layers = (
{
layerId = "60F86E82-B86D-46D3-A6A0-C6D09B755248";
paths = (
{
closed = 1;
nodes = (
"650 1265 LINE",
"407 1500 LINE",
"150 1500 LINE",
"150 1100 LINE SMOOTH",
"150 978 OFFCURVE",
"196 895 OFFCURVE",
"287 850 CURVE",
"196 772 OFFCURVE",
"150 622 OFFCURVE",
"150 400 CURVE SMOOTH",
"150 141 OFFCURVE",
"308 0 OFFCURVE",
"439 0 CURVE SMOOTH",
"497 0 OFFCURVE",
"554 27 OFFCURVE",
"610 82 CURVE SMOOTH",
"670 141 OFFCURVE",
"700 200 OFFCURVE",
"700 260 CURVE SMOOTH",
"700 378 OFFCURVE",
"671 467 OFFCURVE",
"613 526 CURVE",
"546 610 LINE",
"392 503 LINE",
"451 405 LINE SMOOTH",
"480 352 OFFCURVE",
"494 310 OFFCURVE",
"494 279 CURVE SMOOTH",
"494 260 OFFCURVE",
"488 245 OFFCURVE",
"477 234 CURVE SMOOTH",
"464 221 OFFCURVE",
"452 214 OFFCURVE",
"439 214 CURVE SMOOTH",
"423 214 OFFCURVE",
"407 224 OFFCURVE",
"392 244 CURVE SMOOTH",
"364 279 OFFCURVE",
"350 331 OFFCURVE",
"350 400 CURVE SMOOTH",
"350 653 OFFCURVE",
"429 780 OFFCURVE",
"588 780 CURVE SMOOTH",
"600 780 LINE",
"600 980 LINE",
"433 987 OFFCURVE",
"350 1027 OFFCURVE",
"350 1100 CURVE SMOOTH",
"350 1277 LINE",
"559 1075 LINE",
"741 1075 LINE",
"950 1277 LINE",
"950 0 LINE",
"1150 0 LINE",
"1150 1500 LINE",
"893 1500 LINE"
);
},
{
closed = 1;
nodes = (
"685 -197 OFFCURVE",
"419 -280 OFFCURVE",
"150 -300 CURVE",
"150 -400 LINE SMOOTH",
"150 -600 OFFCURVE",
"244 -700 OFFCURVE",
"433 -700 CURVE SMOOTH",
"530 -700 OFFCURVE",
"608 -660 OFFCURVE",
"667 -580 CURVE",
"737 -660 OFFCURVE",
"812 -700 OFFCURVE",
"892 -700 CURVE SMOOTH",
"1064 -700 OFFCURVE",
"1150 -600 OFFCURVE",
"1150 -400 CURVE SMOOTH",
"1150 -50 LINE",
"950 -50 LINE"
);
},
{
closed = 1;
nodes = (
"708 -308 OFFCURVE",
"807 -268 OFFCURVE",
"950 -203 CURVE",
"950 -400 LINE SMOOTH",
"950 -467 OFFCURVE",
"931 -500 OFFCURVE",
"892 -500 CURVE SMOOTH",
"801 -500 OFFCURVE",
"721 -441 OFFCURVE",
"652 -323 CURVE"
);
},
{
closed = 1;
nodes = (
"585 -451 OFFCURVE",
"517 -510 OFFCURVE",
"432 -510 CURVE SMOOTH",
"376 -510 OFFCURVE",
"348 -475 OFFCURVE",
"348 -404 CURVE",
"455 -385 OFFCURVE",
"551 -361 OFFCURVE",
"636 -332 CURVE"
);
}
);
width = 1300;
}
);
note = uni17B0;
unicode = 17B0;
},
{
glyphname = uni17B1;
lastChange = "2021-04-30 12:39:39 +0000";
layers = (
{
layerId = "60F86E82-B86D-46D3-A6A0-C6D09B755248";
paths = (
{
closed = 1;
nodes = (
"850 1750 OFFCURVE",
"950 1700 OFFCURVE",
"950 1600 CURVE",
"1150 1600 LINE",
"1150 1833 OFFCURVE",
"983 1950 OFFCURVE",
"650 1950 CURVE SMOOTH",
"427 1950 OFFCURVE",
"285 1922 OFFCURVE",
"100 1850 CURVE",
"100 1650 LINE",
"191 1633 OFFCURVE",
"255 1592 OFFCURVE",
"291 1529 CURVE",
"464 1578 LINE",
"453 1603 OFFCURVE",
"438 1644 OFFCURVE",
"417 1699 CURVE",
"461 1733 OFFCURVE",
"539 1750 OFFCURVE",
"650 1750 CURVE SMOOTH"
);
},
{
closed = 1;
nodes = (
"1150 600 LINE",
"950 600 LINE",
"950 510 LINE",
"897 397 OFFCURVE",
"730 293 OFFCURVE",
"450 200 CURVE",
"383 200 OFFCURVE",
"350 267 OFFCURVE",
"350 400 CURVE SMOOTH",
"350 511 LINE",
"450 536 LINE SMOOTH",
"917 650 OFFCURVE",
"1150 838 OFFCURVE",
"1150 1100 CURVE SMOOTH",
"1150 1367 OFFCURVE",
"983 1500 OFFCURVE",
"650 1500 CURVE SMOOTH",
"317 1500 OFFCURVE",
"150 1367 OFFCURVE",
"150 1100 CURVE SMOOTH",
"150 1050 LINE SMOOTH",
"150 950 OFFCURVE",
"200 900 OFFCURVE",
"300 900 CURVE SMOOTH",
"450 900 LINE",
"450 1100 LINE",
"350 1100 LINE",
"350 1233 OFFCURVE",
"450 1300 OFFCURVE",
"650 1300 CURVE SMOOTH",
"850 1300 OFFCURVE",
"950 1233 OFFCURVE",
"950 1100 CURVE SMOOTH",
"950 942 OFFCURVE",
"767 818 OFFCURVE",
"400 729 CURVE SMOOTH",
"150 668 LINE",
"150 400 LINE SMOOTH",
"150 133 OFFCURVE",
"250 0 OFFCURVE",
"450 0 CURVE",
"663 51 OFFCURVE",
"830 126 OFFCURVE",
"950 225 CURVE",
"950 -50 LINE",
"1150 -50 LINE"
);
}
);
width = 1300;
}
);
note = uni17B1;
unicode = 17B1;
},
{
glyphname = uni17B2;
lastChange = "2021-04-30 12:39:39 +0000";
layers = (
{
layerId = "60F86E82-B86D-46D3-A6A0-C6D09B755248";
paths = (
{
closed = 1;
nodes = (
"150 133 OFFCURVE",
"317 0 OFFCURVE",
"650 0 CURVE SMOOTH",
"983 0 OFFCURVE",
"1150 133 OFFCURVE",
"1150 400 CURVE SMOOTH",
"1150 460 LINE SMOOTH",
"1150 540 OFFCURVE",
"1100 597 OFFCURVE",
"1000 630 CURVE",
"1100 655 OFFCURVE",
"1150 725 OFFCURVE",
"1150 842 CURVE SMOOTH",
"1150 1014 OFFCURVE",
"1033 1100 OFFCURVE",
"800 1100 CURVE SMOOTH",
"700 1100 LINE",
"700 900 LINE",
"800 900 LINE SMOOTH",
"900 900 OFFCURVE",
"950 881 OFFCURVE",
"950 842 CURVE SMOOTH",
"950 803 OFFCURVE",
"929 776 OFFCURVE",
"888 762 CURVE SMOOTH",
"700 700 LINE",
"700 550 LINE",
"867 550 OFFCURVE",
"950 520 OFFCURVE",
"950 460 CURVE SMOOTH",
"950 400 LINE SMOOTH",
"950 267 OFFCURVE",
"850 200 OFFCURVE",
"650 200 CURVE SMOOTH",
"450 200 OFFCURVE",
"350 267 OFFCURVE",
"350 400 CURVE SMOOTH",
"350 1100 LINE SMOOTH",
"350 1233 OFFCURVE",
"450 1300 OFFCURVE",
"650 1300 CURVE SMOOTH",
"850 1300 OFFCURVE",
"950 1267 OFFCURVE",
"950 1200 CURVE",
"1150 1200 LINE",
"1150 1400 OFFCURVE",
"983 1500 OFFCURVE",
"650 1500 CURVE SMOOTH",
"317 1500 OFFCURVE",
"150 1367 OFFCURVE",
"150 1100 CURVE SMOOTH",
"150 400 LINE SMOOTH"
);
}
);
width = 1300;
}
);
note = uni17B2;
unicode = 17B2;
},
{
glyphname = uni17B3;
lastChange = "2021-04-30 12:39:39 +0000";
layers = (
{
layerId = "60F86E82-B86D-46D3-A6A0-C6D09B755248";
paths = (
{
closed = 1;
nodes = (
"861 1936 OFFCURVE",
"765 1950 OFFCURVE",
"650 1950 CURVE SMOOTH",
"427 1950 OFFCURVE",
"285 1922 OFFCURVE",
"100 1850 CURVE",
"100 1650 LINE",
"191 1633 OFFCURVE",
"255 1592 OFFCURVE",
"291 1529 CURVE",
"464 1578 LINE",
"453 1603 OFFCURVE",
"438 1644 OFFCURVE",
"417 1699 CURVE",
"461 1733 OFFCURVE",
"539 1750 OFFCURVE",
"650 1750 CURVE SMOOTH",
"850 1750 OFFCURVE",
"950 1700 OFFCURVE",
"950 1600 CURVE",
"1150 1600 LINE",
"1150 1666 OFFCURVE",
"1137 1723 OFFCURVE",
"1110 1770 CURVE",
"1112 1844 OFFCURVE",
"1179 1921 OFFCURVE",
"1312 2002 CURVE",
"1208 2173 LINE",
"1069 2088 OFFCURVE",
"978 1999 OFFCURVE",
"936 1908 CURVE"
);
},
{
closed = 1;
nodes = (
"1150 600 LINE",
"950 600 LINE",
"950 510 LINE",
"897 397 OFFCURVE",
"730 293 OFFCURVE",
"450 200 CURVE",
"383 200 OFFCURVE",
"350 267 OFFCURVE",
"350 400 CURVE SMOOTH",
"350 511 LINE",
"450 536 LINE SMOOTH",
"917 650 OFFCURVE",
"1150 838 OFFCURVE",
"1150 1100 CURVE SMOOTH",
"1150 1367 OFFCURVE",
"983 1500 OFFCURVE",
"650 1500 CURVE SMOOTH",
"317 1500 OFFCURVE",
"150 1367 OFFCURVE",
"150 1100 CURVE SMOOTH",
"150 1050 LINE SMOOTH",
"150 950 OFFCURVE",
"200 900 OFFCURVE",
"300 900 CURVE SMOOTH",
"450 900 LINE",
"450 1100 LINE",
"350 1100 LINE",
"350 1233 OFFCURVE",
"450 1300 OFFCURVE",
"650 1300 CURVE SMOOTH",
"850 1300 OFFCURVE",
"950 1233 OFFCURVE",
"950 1100 CURVE SMOOTH",
"950 942 OFFCURVE",
"767 818 OFFCURVE",
"400 729 CURVE SMOOTH",
"150 668 LINE",
"150 400 LINE SMOOTH",
"150 133 OFFCURVE",
"250 0 OFFCURVE",
"450 0 CURVE",
"663 51 OFFCURVE",
"830 126 OFFCURVE",
"950 225 CURVE",
"950 -50 LINE",
"1150 -50 LINE"
);
}
);
width = 1300;
}
);
note = uni17B3;
unicode = 17B3;
},
{
glyphname = uni17A3;
lastChange = "2021-04-30 12:39:39 +0000";
layers = (
{
layerId = "60F86E82-B86D-46D3-A6A0-C6D09B755248";
paths = (
{
closed = 1;
nodes = (
"600 835 OFFCURVE",
"545 1135 OFFCURVE",
"435 1300 CURVE",
"650 1300 LINE",
"650 1500 LINE",
"50 1500 LINE",
"50 1300 LINE",
"60 1300 LINE SMOOTH",
"287 1300 OFFCURVE",
"400 1000 OFFCURVE",
"400 400 CURVE SMOOTH",
"400 331 OFFCURVE",
"386 279 OFFCURVE",
"358 244 CURVE SMOOTH",
"343 224 OFFCURVE",
"327 214 OFFCURVE",
"311 214 CURVE SMOOTH",
"298 214 OFFCURVE",
"286 221 OFFCURVE",
"273 234 CURVE SMOOTH",
"262 245 OFFCURVE",
"256 260 OFFCURVE",
"256 279 CURVE SMOOTH",
"256 310 OFFCURVE",
"270 352 OFFCURVE",
"299 405 CURVE SMOOTH",
"358 503 LINE",
"204 610 LINE",
"137 526 LINE",
"79 467 OFFCURVE",
"50 378 OFFCURVE",
"50 260 CURVE SMOOTH",
"50 200 OFFCURVE",
"80 141 OFFCURVE",
"140 82 CURVE SMOOTH",
"196 27 OFFCURVE",
"253 0 OFFCURVE",
"311 0 CURVE SMOOTH",
"442 0 OFFCURVE",
"600 141 OFFCURVE",
"600 400 CURVE SMOOTH"
);
},
{
closed = 1;
nodes = (
"1400 1500 LINE",
"1200 1500 LINE",
"1200 900 LINE",
"650 900 LINE",
"650 700 LINE",
"1200 700 LINE",
"1200 0 LINE",
"1400 0 LINE"
);
}
);
width = 1550;
}
);
note = uni17A3;
unicode = 17A3;
},
{
glyphname = uni17A4;
lastChange = "2021-04-30 12:39:39 +0000";
layers = (
{
layerId = "60F86E82-B86D-46D3-A6A0-C6D09B755248";
paths = (
{
closed = 1;
nodes = (
"442 0 OFFCURVE",
"600 141 OFFCURVE",
"600 400 CURVE SMOOTH",
"600 835 OFFCURVE",
"545 1135 OFFCURVE",
"435 1300 CURVE",
"650 1300 LINE",
"650 1500 LINE",
"50 1500 LINE",
"50 1300 LINE",
"60 1300 LINE SMOOTH",
"287 1300 OFFCURVE",
"400 1000 OFFCURVE",
"400 400 CURVE SMOOTH",
"400 331 OFFCURVE",
"386 279 OFFCURVE",
"358 244 CURVE SMOOTH",
"343 224 OFFCURVE",
"327 214 OFFCURVE",
"311 214 CURVE SMOOTH",
"298 214 OFFCURVE",
"286 221 OFFCURVE",
"273 234 CURVE SMOOTH",
"262 245 OFFCURVE",
"256 260 OFFCURVE",
"256 279 CURVE SMOOTH",
"256 310 OFFCURVE",
"270 352 OFFCURVE",
"299 405 CURVE SMOOTH",
"358 503 LINE",
"204 610 LINE",
"137 526 LINE",
"79 467 OFFCURVE",
"50 378 OFFCURVE",
"50 260 CURVE SMOOTH",
"50 200 OFFCURVE",
"80 141 OFFCURVE",
"140 82 CURVE SMOOTH",
"196 27 OFFCURVE",
"253 0 OFFCURVE",
"311 0 CURVE SMOOTH"
);
},
{
closed = 1;
nodes = (
"1400 1233 OFFCURVE",
"1475 1300 OFFCURVE",
"1625 1300 CURVE SMOOTH",
"1775 1300 OFFCURVE",
"1850 1233 OFFCURVE",
"1850 1100 CURVE SMOOTH",
"1850 0 LINE",
"2050 0 LINE",
"2050 1100 LINE SMOOTH",
"2050 1367 OFFCURVE",
"1908 1500 OFFCURVE",
"1625 1500 CURVE SMOOTH",
"1342 1500 OFFCURVE",
"1200 1367 OFFCURVE",
"1200 1100 CURVE SMOOTH",
"1200 900 LINE",
"650 900 LINE",
"650 700 LINE",
"1200 700 LINE",
"1200 0 LINE",
"1400 0 LINE",
"1400 1100 LINE SMOOTH"
);
}
);
width = 2200;
}
);
note = uni17A4;
unicode = 17A4;
},
{
glyphname = uni17B6;
lastChange = "2021-04-30 12:39:39 +0000";
layers = (
{
layerId = "60F86E82-B86D-46D3-A6A0-C6D09B755248";
paths = (
{
closed = 1;
nodes = (
"350 1367 OFFCURVE",
"233 1500 OFFCURVE",
"0 1500 CURVE SMOOTH",
"-150 1500 LINE",
"-150 1300 LINE",
"0 1300 LINE SMOOTH",
"100 1300 OFFCURVE",
"150 1233 OFFCURVE",
"150 1100 CURVE SMOOTH",
"150 0 LINE",
"350 0 LINE",
"350 1100 LINE SMOOTH"
);
}
);
width = 500;
}
);
note = uni17B6;
unicode = 17B6;
},
{
glyphname = uni17BF;
lastChange = "2021-04-30 12:39:39 +0000";
layers = (
{
layerId = "60F86E82-B86D-46D3-A6A0-C6D09B755248";
paths = (
{
closed = 1;
nodes = (
"80 1995 LINE",
"42 2022 OFFCURVE",
"2 2047 OFFCURVE",
"-39 2070 CURVE",
"-40 2200 LINE",
"-160 2200 LINE",
"-159 2122 LINE",
"-218 2141 OFFCURVE",
"-279 2150 OFFCURVE",
"-340 2150 CURVE SMOOTH",
"-460 2150 OFFCURVE",
"-550 2125 OFFCURVE",
"-610 2075 CURVE SMOOTH",
"-670 2025 OFFCURVE",
"-700 1967 OFFCURVE",
"-700 1900 CURVE SMOOTH",
"-700 1800 OFFCURVE",
"-650 1750 OFFCURVE",
"-550 1750 CURVE SMOOTH",
"0 1750 LINE SMOOTH",
"100 1750 OFFCURVE",
"150 1683 OFFCURVE",
"150 1550 CURVE SMOOTH",
"150 -400 LINE SMOOTH",
"150 -467 OFFCURVE",
"92 -500 OFFCURVE",
"-25 -500 CURVE SMOOTH",
"-142 -500 OFFCURVE",
"-200 -467 OFFCURVE",
"-200 -400 CURVE SMOOTH",
"-200 -300 LINE",
"-150 -300 LINE",
"-150 -100 LINE",
"-400 -100 LINE",
"-400 -400 LINE SMOOTH",
"-400 -600 OFFCURVE",
"-275 -700 OFFCURVE",
"-25 -700 CURVE SMOOTH",
"225 -700 OFFCURVE",
"350 -600 OFFCURVE",
"350 -400 CURVE SMOOTH",
"350 1550 LINE SMOOTH",
"350 1725 OFFCURVE",
"300 1842 OFFCURVE",
"200 1902 CURVE",
"200 2200 LINE",
"80 2200 LINE"
);
},
{
closed = 1;
nodes = (
"-442 1992 OFFCURVE",
"-405 2000 OFFCURVE",
"-355 2000 CURVE SMOOTH",
"-305 2000 OFFCURVE",
"-251 1992 OFFCURVE",
"-192 1975 CURVE SMOOTH",
"-133 1958 OFFCURVE",
"-80 1933 OFFCURVE",
"-32 1900 CURVE",
"-500 1900 LINE",
"-500 1933 OFFCURVE",
"-488 1958 OFFCURVE",
"-465 1975 CURVE SMOOTH"
);
}
);
width = 500;
}
);
note = uni17BF;
unicode = 17BF;
},
{
glyphname = uni17C0;
lastChange = "2021-04-30 12:39:39 +0000";
layers = (
{
layerId = "60F86E82-B86D-46D3-A6A0-C6D09B755248";
paths = (
{
closed = 1;
nodes = (
"-150 1767 OFFCURVE",
"-100 1800 OFFCURVE",
"0 1800 CURVE SMOOTH",
"100 1800 OFFCURVE",
"150 1733 OFFCURVE",
"150 1600 CURVE SMOOTH",
"150 -400 LINE SMOOTH",
"150 -467 OFFCURVE",
"92 -500 OFFCURVE",
"-25 -500 CURVE SMOOTH",
"-142 -500 OFFCURVE",
"-200 -467 OFFCURVE",
"-200 -400 CURVE SMOOTH",
"-200 -300 LINE",
"-150 -300 LINE",
"-150 -100 LINE",
"-400 -100 LINE",
"-400 -400 LINE SMOOTH",
"-400 -600 OFFCURVE",
"-275 -700 OFFCURVE",
"-25 -700 CURVE SMOOTH",
"225 -700 OFFCURVE",
"350 -600 OFFCURVE",
"350 -400 CURVE SMOOTH",
"350 1600 LINE SMOOTH",
"350 1867 OFFCURVE",
"233 2000 OFFCURVE",
"0 2000 CURVE SMOOTH",
"-57 2000 OFFCURVE",
"-107 1994 OFFCURVE",
"-150 1982 CURVE",
"-150 2350 LINE",
"-350 2350 LINE",
"-350 1700 LINE",
"-150 1700 LINE"
);
}
);
width = 500;
}
);
note = uni17C0;
unicode = 17C0;
},
{
glyphname = uni17C1;
lastChange = "2021-04-30 12:39:39 +0000";
layers = (
{
layerId = "60F86E82-B86D-46D3-A6A0-C6D09B755248";
paths = (
{
closed = 1;
nodes = (
"150 141 OFFCURVE",
"308 0 OFFCURVE",
"439 0 CURVE SMOOTH",
"497 0 OFFCURVE",
"554 27 OFFCURVE",
"610 82 CURVE SMOOTH",
"670 141 OFFCURVE",
"700 200 OFFCURVE",
"700 260 CURVE SMOOTH",
"700 378 OFFCURVE",
"671 467 OFFCURVE",
"613 526 CURVE",
"546 610 LINE",
"392 503 LINE",
"451 405 LINE SMOOTH",
"480 352 OFFCURVE",
"494 310 OFFCURVE",
"494 279 CURVE SMOOTH",
"494 260 OFFCURVE",
"488 245 OFFCURVE",
"477 234 CURVE SMOOTH",
"464 221 OFFCURVE",
"452 214 OFFCURVE",
"439 214 CURVE SMOOTH",
"423 214 OFFCURVE",
"407 224 OFFCURVE",
"392 244 CURVE SMOOTH",
"364 279 OFFCURVE",
"350 331 OFFCURVE",
"350 400 CURVE SMOOTH",
"350 1100 LINE SMOOTH",
"350 1233 OFFCURVE",
"450 1300 OFFCURVE",
"650 1300 CURVE",
"650 1500 LINE",
"317 1500 OFFCURVE",
"150 1367 OFFCURVE",
"150 1100 CURVE SMOOTH",
"150 400 LINE SMOOTH"
);
}
);
width = 750;
}
);
note = uni17C1;
unicode = 17C1;
},
{
glyphname = uni17C2;
lastChange = "2021-04-30 12:39:39 +0000";
layers = (
{
layerId = "60F86E82-B86D-46D3-A6A0-C6D09B755248";
paths = (
{
closed = 1;
nodes = (
"583 1600 OFFCURVE",
"700 1750 OFFCURVE",
"700 2049 CURVE",
"500 2049 LINE",
"500 1883 OFFCURVE",
"450 1800 OFFCURVE",
"350 1800 CURVE",
"350 2050 LINE",
"150 2050 LINE",
"150 1600 LINE",
"350 1600 LINE SMOOTH"
);
},
{
closed = 1;
nodes = (
"150 141 OFFCURVE",
"308 0 OFFCURVE",
"439 0 CURVE SMOOTH",
"497 0 OFFCURVE",
"554 27 OFFCURVE",
"610 82 CURVE SMOOTH",
"670 141 OFFCURVE",
"700 200 OFFCURVE",
"700 260 CURVE SMOOTH",
"700 378 OFFCURVE",
"671 467 OFFCURVE",
"613 526 CURVE",
"546 610 LINE",
"392 503 LINE",
"451 405 LINE SMOOTH",
"480 352 OFFCURVE",
"494 310 OFFCURVE",
"494 279 CURVE SMOOTH",
"494 260 OFFCURVE",
"488 245 OFFCURVE",
"477 234 CURVE SMOOTH",
"464 221 OFFCURVE",
"452 214 OFFCURVE",
"439 214 CURVE SMOOTH",
"423 214 OFFCURVE",
"407 224 OFFCURVE",
"392 244 CURVE SMOOTH",
"364 279 OFFCURVE",
"350 331 OFFCURVE",
"350 400 CURVE SMOOTH",
"350 1100 LINE SMOOTH",
"350 1233 OFFCURVE",
"450 1300 OFFCURVE",
"650 1300 CURVE",
"650 1500 LINE",
"317 1500 OFFCURVE",
"150 1367 OFFCURVE",
"150 1100 CURVE SMOOTH",
"150 400 LINE SMOOTH"
);
}
);
width = 750;
}
);
note = uni17C2;
unicode = 17C2;
},
{
glyphname = uni17C3;
lastChange = "2021-04-30 12:39:39 +0000";
layers = (
{
layerId = "60F86E82-B86D-46D3-A6A0-C6D09B755248";
paths = (
{
closed = 1;
nodes = (
"650 1600 LINE",
"650 1825 LINE SMOOTH",
"650 1975 OFFCURVE",
"567 2050 OFFCURVE",
"400 2050 CURVE SMOOTH",
"350 2050 LINE",
"350 2100 LINE SMOOTH",
"350 2200 OFFCURVE",
"267 2250 OFFCURVE",
"100 2250 CURVE",
"100 2100 LINE",
"133 2100 OFFCURVE",
"150 2083 OFFCURVE",
"150 2050 CURVE SMOOTH",
"150 1850 LINE",
"350 1850 LINE",
"350 1900 LINE",
"400 1900 LINE SMOOTH",
"433 1900 OFFCURVE",
"450 1875 OFFCURVE",
"450 1825 CURVE SMOOTH",
"450 1750 LINE",
"150 1750 LINE",
"150 1600 LINE"
);
},
{
closed = 1;
nodes = (
"150 141 OFFCURVE",
"308 0 OFFCURVE",
"439 0 CURVE SMOOTH",
"497 0 OFFCURVE",
"554 27 OFFCURVE",
"610 82 CURVE SMOOTH",
"670 141 OFFCURVE",
"700 200 OFFCURVE",
"700 260 CURVE SMOOTH",
"700 378 OFFCURVE",
"671 467 OFFCURVE",
"613 526 CURVE",
"546 610 LINE",
"392 503 LINE",
"451 405 LINE SMOOTH",
"480 352 OFFCURVE",
"494 310 OFFCURVE",
"494 279 CURVE SMOOTH",
"494 260 OFFCURVE",
"488 245 OFFCURVE",
"477 234 CURVE SMOOTH",
"464 221 OFFCURVE",
"452 214 OFFCURVE",
"439 214 CURVE SMOOTH",
"423 214 OFFCURVE",
"407 224 OFFCURVE",
"392 244 CURVE SMOOTH",
"364 279 OFFCURVE",
"350 331 OFFCURVE",
"350 400 CURVE SMOOTH",
"350 1100 LINE SMOOTH",
"350 1233 OFFCURVE",
"450 1300 OFFCURVE",
"650 1300 CURVE",
"650 1500 LINE",
"317 1500 OFFCURVE",
"150 1367 OFFCURVE",
"150 1100 CURVE SMOOTH",
"150 400 LINE SMOOTH"
);
}
);
width = 750;
}
);
note = uni17C3;
unicode = 17C3;
},
{
glyphname = uni17C4;
lastChange = "2021-04-30 12:39:39 +0000";
layers = (
{
layerId = "60F86E82-B86D-46D3-A6A0-C6D09B755248";
paths = (
{
closed = 1;
nodes = (
"350 1367 OFFCURVE",
"233 1500 OFFCURVE",
"0 1500 CURVE SMOOTH",
"-150 1500 LINE",
"-150 1300 LINE",
"0 1300 LINE SMOOTH",
"100 1300 OFFCURVE",
"150 1233 OFFCURVE",
"150 1100 CURVE SMOOTH",
"150 0 LINE",
"350 0 LINE",
"350 1100 LINE SMOOTH"
);
}
);
width = 500;
}
);
note = uni17C4;
unicode = 17C4;
},
{
glyphname = uni17C5;
lastChange = "2021-04-30 12:39:39 +0000";
layers = (
{
layerId = "60F86E82-B86D-46D3-A6A0-C6D09B755248";
paths = (
{
closed = 1;
nodes = (
"350 2100 OFFCURVE",
"267 2200 OFFCURVE",
"100 2200 CURVE SMOOTH",
"0 2200 LINE",
"0 2000 LINE",
"100 2000 LINE SMOOTH",
"133 2000 OFFCURVE",
"150 1967 OFFCURVE",
"150 1900 CURVE SMOOTH",
"150 1500 LINE",
"350 1500 LINE",
"350 1900 LINE SMOOTH"
);
},
{
closed = 1;
nodes = (
"350 1367 OFFCURVE",
"233 1500 OFFCURVE",
"0 1500 CURVE SMOOTH",
"-150 1500 LINE",
"-150 1300 LINE",
"0 1300 LINE SMOOTH",
"100 1300 OFFCURVE",
"150 1233 OFFCURVE",
"150 1100 CURVE SMOOTH",
"150 0 LINE",
"350 0 LINE",
"350 1100 LINE SMOOTH"
);
}
);
width = 500;
}
);
note = uni17C5;
unicode = 17C5;
},
{
glyphname = uni17C7;
lastChange = "2021-04-30 12:39:39 +0000";
layers = (
{
layerId = "60F86E82-B86D-46D3-A6A0-C6D09B755248";
paths = (
{
closed = 1;
nodes = (
"349 1500 OFFCURVE",
"245 1447 OFFCURVE",
"191 1351 CURVE SMOOTH",
"164 1302 OFFCURVE",
"150 1252 OFFCURVE",
"150 1200 CURVE SMOOTH",
"150 1096 OFFCURVE",
"205 992 OFFCURVE",
"301 940 CURVE SMOOTH",
"348 913 OFFCURVE",
"398 900 OFFCURVE",
"450 900 CURVE SMOOTH",
"554 900 OFFCURVE",
"658 955 OFFCURVE",
"711 1051 CURVE SMOOTH",
"737 1098 OFFCURVE",
"750 1148 OFFCURVE",
"750 1200 CURVE SMOOTH",
"750 1304 OFFCURVE",
"693 1410 OFFCURVE",
"597 1462 CURVE SMOOTH",
"549 1487 OFFCURVE",
"500 1500 OFFCURVE",
"450 1500 CURVE SMOOTH"
);
},
{
closed = 1;
nodes = (
"504 1300 OFFCURVE",
"550 1255 OFFCURVE",
"550 1200 CURVE SMOOTH",
"550 1144 OFFCURVE",
"506 1100 OFFCURVE",
"450 1100 CURVE SMOOTH",
"394 1100 OFFCURVE",
"350 1144 OFFCURVE",
"350 1200 CURVE SMOOTH",
"350 1255 OFFCURVE",
"396 1300 OFFCURVE",
"450 1300 CURVE SMOOTH"
);
},
{
closed = 1;
nodes = (
"349 600 OFFCURVE",
"245 547 OFFCURVE",
"191 451 CURVE SMOOTH",
"164 402 OFFCURVE",
"150 352 OFFCURVE",
"150 300 CURVE SMOOTH",
"150 196 OFFCURVE",
"205 92 OFFCURVE",
"301 40 CURVE SMOOTH",
"348 13 OFFCURVE",
"398 0 OFFCURVE",
"450 0 CURVE SMOOTH",
"554 0 OFFCURVE",
"658 55 OFFCURVE",
"711 151 CURVE SMOOTH",
"737 198 OFFCURVE",
"750 248 OFFCURVE",
"750 300 CURVE SMOOTH",
"750 404 OFFCURVE",
"693 510 OFFCURVE",
"597 562 CURVE SMOOTH",
"549 587 OFFCURVE",
"500 600 OFFCURVE",
"450 600 CURVE SMOOTH"
);
},
{
closed = 1;
nodes = (
"504 400 OFFCURVE",
"550 355 OFFCURVE",
"550 300 CURVE SMOOTH",
"550 244 OFFCURVE",
"506 200 OFFCURVE",
"450 200 CURVE SMOOTH",
"394 200 OFFCURVE",
"350 244 OFFCURVE",
"350 300 CURVE SMOOTH",
"350 355 OFFCURVE",
"396 400 OFFCURVE",
"450 400 CURVE SMOOTH"
);
}
);
width = 900;
}
);
note = uni17C7;
unicode = 17C7;
},
{
glyphname = uni17C8;
lastChange = "2021-04-30 12:39:39 +0000";
layers = (
{
layerId = "60F86E82-B86D-46D3-A6A0-C6D09B755248";
paths = (
{
closed = 1;
nodes = (
"249 1350 OFFCURVE",
"197 1323 OFFCURVE",
"170 1275 CURVE SMOOTH",
"157 1251 OFFCURVE",
"150 1226 OFFCURVE",
"150 1200 CURVE SMOOTH",
"150 1148 OFFCURVE",
"178 1097 OFFCURVE",
"226 1070 CURVE SMOOTH",
"249 1057 OFFCURVE",
"274 1050 OFFCURVE",
"300 1050 CURVE SMOOTH",
"352 1050 OFFCURVE",
"403 1078 OFFCURVE",
"430 1126 CURVE SMOOTH",
"443 1149 OFFCURVE",
"450 1174 OFFCURVE",
"450 1200 CURVE SMOOTH",
"450 1252 OFFCURVE",
"421 1305 OFFCURVE",
"374 1331 CURVE SMOOTH",
"350 1344 OFFCURVE",
"325 1350 OFFCURVE",
"300 1350 CURVE SMOOTH"
);
},
{
closed = 1;
nodes = (
"249 450 OFFCURVE",
"197 423 OFFCURVE",
"170 375 CURVE SMOOTH",
"157 351 OFFCURVE",
"150 326 OFFCURVE",
"150 300 CURVE SMOOTH",
"150 248 OFFCURVE",
"178 197 OFFCURVE",
"226 170 CURVE SMOOTH",
"249 157 OFFCURVE",
"274 150 OFFCURVE",
"300 150 CURVE SMOOTH",
"352 150 OFFCURVE",
"403 178 OFFCURVE",
"430 226 CURVE SMOOTH",
"443 249 OFFCURVE",
"450 274 OFFCURVE",
"450 300 CURVE SMOOTH",
"450 352 OFFCURVE",
"421 405 OFFCURVE",
"374 431 CURVE SMOOTH",
"350 444 OFFCURVE",
"325 450 OFFCURVE",
"300 450 CURVE SMOOTH"
);
}
);
width = 600;
}
);
note = uni17C8;
unicode = 17C8;
},
{
glyphname = uni17DC;
lastChange = "2021-04-30 12:39:39 +0000";
layers = (
{
layerId = "60F86E82-B86D-46D3-A6A0-C6D09B755248";
paths = (
{
closed = 1;
nodes = (
"988 -10 OFFCURVE",
"1150 123 OFFCURVE",
"1150 359 CURVE SMOOTH",
"1150 564 OFFCURVE",
"994 658 OFFCURVE",
"675 658 CURVE SMOOTH",
"543 658 OFFCURVE",
"466 671 OFFCURVE",
"422 724 CURVE SMOOTH",
"399 751 OFFCURVE",
"388 790 OFFCURVE",
"388 842 CURVE SMOOTH",
"388 974 OFFCURVE",
"487 1055 OFFCURVE",
"675 1055 CURVE SMOOTH",
"864 1055 OFFCURVE",
"963 1002 OFFCURVE",
"963 910 CURVE SMOOTH",
"963 871 OFFCURVE",
"949 851 OFFCURVE",
"922 851 CURVE SMOOTH",
"882 851 OFFCURVE",
"862 832 OFFCURVE",
"862 793 CURVE SMOOTH",
"862 754 OFFCURVE",
"882 734 OFFCURVE",
"922 734 CURVE SMOOTH",
"1027 734 OFFCURVE",
"1091 750 OFFCURVE",
"1125 802 CURVE SMOOTH",
"1142 827 OFFCURVE",
"1150 863 OFFCURVE",
"1150 910 CURVE SMOOTH",
"1150 1106 OFFCURVE",
"990 1210 OFFCURVE",
"675 1210 CURVE SMOOTH",
"362 1210 OFFCURVE",
"200 1078 OFFCURVE",
"200 842 CURVE SMOOTH",
"200 637 OFFCURVE",
"356 543 OFFCURVE",
"675 543 CURVE SMOOTH",
"808 543 OFFCURVE",
"884 531 OFFCURVE",
"929 478 CURVE SMOOTH",
"952 451 OFFCURVE",
"963 412 OFFCURVE",
"963 360 CURVE SMOOTH",
"963 227 OFFCURVE",
"864 146 OFFCURVE",
"675 146 CURVE SMOOTH",
"486 146 OFFCURVE",
"388 199 OFFCURVE",
"388 292 CURVE SMOOTH",
"388 331 OFFCURVE",
"402 350 OFFCURVE",
"429 350 CURVE SMOOTH",
"468 350 OFFCURVE",
"489 371 OFFCURVE",
"489 408 CURVE SMOOTH",
"489 448 OFFCURVE",
"469 468 OFFCURVE",
"429 468 CURVE SMOOTH",
"324 468 OFFCURVE",
"260 452 OFFCURVE",
"226 401 CURVE SMOOTH",
"209 376 OFFCURVE",
"200 340 OFFCURVE",
"200 293 CURVE SMOOTH",
"200 96 OFFCURVE",
"359 -10 OFFCURVE",
"675 -10 CURVE SMOOTH"
);
}
);
userData = {
assembly = "NPUSHB[ ]	/* 86 values pushed */\0120 8 5 7 5 8 7 128 0 9 6 4 6 9 4 128 0 4 1 6 4 1 126 0 3 2 0 2 3 0 128 0 7 0 6 9 7 6 105 0 1 0 2 3 1 2 105 0 5 5 0 97 10 1 0 0 19 0 78 1 0 54 52 47 45 42 40 38 36 31 29 25 23 18 16 13 11 8 6 0 58 1 58 11 7 22 \012CALL[ ]	/* CallFunction */";
};
width = 1350;
}
);
note = uni17DC;
unicode = 17DC;
},
{
glyphname = uni1789.a;
lastChange = "2021-04-30 12:39:40 +0000";
layers = (
{
layerId = "60F86E82-B86D-46D3-A6A0-C6D09B755248";
paths = (
{
closed = 1;
nodes = (
"1550 1300 OFFCURVE",
"1600 1233 OFFCURVE",
"1600 1100 CURVE SMOOTH",
"1600 0 LINE",
"1800 0 LINE",
"1800 1100 LINE SMOOTH",
"1800 1367 OFFCURVE",
"1683 1500 OFFCURVE",
"1450 1500 CURVE SMOOTH",
"893 1500 LINE",
"650 1265 LINE",
"407 1500 LINE",
"150 1500 LINE",
"150 1100 LINE SMOOTH",
"150 978 OFFCURVE",
"196 895 OFFCURVE",
"287 850 CURVE",
"196 772 OFFCURVE",
"150 622 OFFCURVE",
"150 400 CURVE SMOOTH",
"150 141 OFFCURVE",
"308 0 OFFCURVE",
"439 0 CURVE SMOOTH",
"497 0 OFFCURVE",
"554 27 OFFCURVE",
"610 82 CURVE SMOOTH",
"670 141 OFFCURVE",
"700 200 OFFCURVE",
"700 260 CURVE SMOOTH",
"700 378 OFFCURVE",
"671 467 OFFCURVE",
"613 526 CURVE",
"546 610 LINE",
"392 503 LINE",
"451 405 LINE SMOOTH",
"480 352 OFFCURVE",
"494 310 OFFCURVE",
"494 279 CURVE SMOOTH",
"494 260 OFFCURVE",
"488 245 OFFCURVE",
"477 234 CURVE SMOOTH",
"464 221 OFFCURVE",
"452 214 OFFCURVE",
"439 214 CURVE SMOOTH",
"423 214 OFFCURVE",
"407 224 OFFCURVE",
"392 244 CURVE SMOOTH",
"364 279 OFFCURVE",
"350 331 OFFCURVE",
"350 400 CURVE SMOOTH",
"350 653 OFFCURVE",
"429 780 OFFCURVE",
"588 780 CURVE SMOOTH",
"600 780 LINE",
"600 980 LINE",
"433 987 OFFCURVE",
"350 1027 OFFCURVE",
"350 1100 CURVE SMOOTH",
"350 1277 LINE",
"559 1075 LINE",
"741 1075 LINE",
"950 1277 LINE",
"950 0 LINE",
"1150 0 LINE",
"1150 1300 LINE",
"1450 1300 LINE SMOOTH"
);
}
);
width = 1950;
}
);
note = uni1789.a;
},
{
glyphname = uni17BF.b;
lastChange = "2021-04-30 12:39:40 +0000";
layers = (
{
layerId = "60F86E82-B86D-46D3-A6A0-C6D09B755248";
paths = (
{
closed = 1;
nodes = (
"350 1725 OFFCURVE",
"300 1842 OFFCURVE",
"200 1902 CURVE",
"200 2200 LINE",
"80 2200 LINE",
"80 1995 LINE",
"42 2022 OFFCURVE",
"2 2047 OFFCURVE",
"-39 2070 CURVE",
"-40 2200 LINE",
"-160 2200 LINE",
"-159 2122 LINE",
"-218 2141 OFFCURVE",
"-279 2150 OFFCURVE",
"-340 2150 CURVE SMOOTH",
"-460 2150 OFFCURVE",
"-550 2125 OFFCURVE",
"-610 2075 CURVE SMOOTH",
"-670 2025 OFFCURVE",
"-700 1967 OFFCURVE",
"-700 1900 CURVE SMOOTH",
"-700 1800 OFFCURVE",
"-650 1750 OFFCURVE",
"-550 1750 CURVE SMOOTH",
"0 1750 LINE SMOOTH",
"100 1750 OFFCURVE",
"150 1683 OFFCURVE",
"150 1550 CURVE SMOOTH",
"150 -900 LINE SMOOTH",
"150 -967 OFFCURVE",
"92 -1000 OFFCURVE",
"-25 -1000 CURVE SMOOTH",
"-142 -1000 OFFCURVE",
"-200 -967 OFFCURVE",
"-200 -900 CURVE SMOOTH",
"-200 -850 LINE",
"-150 -850 LINE",
"-150 -750 LINE",
"-400 -750 LINE",
"-400 -900 LINE SMOOTH",
"-400 -1100 OFFCURVE",
"-275 -1200 OFFCURVE",
"-25 -1200 CURVE SMOOTH",
"225 -1200 OFFCURVE",
"350 -1100 OFFCURVE",
"350 -900 CURVE SMOOTH",
"350 1550 LINE SMOOTH"
);
},
{
closed = 1;
nodes = (
"-442 1992 OFFCURVE",
"-405 2000 OFFCURVE",
"-355 2000 CURVE SMOOTH",
"-305 2000 OFFCURVE",
"-251 1992 OFFCURVE",
"-192 1975 CURVE SMOOTH",
"-133 1958 OFFCURVE",
"-80 1933 OFFCURVE",
"-32 1900 CURVE",
"-500 1900 LINE",
"-500 1933 OFFCURVE",
"-488 1958 OFFCURVE",
"-465 1975 CURVE SMOOTH"
);
}
);
width = 500;
}
);
note = uni17BF.b;
},
{
glyphname = uni17C0.b;
lastChange = "2021-04-30 12:39:40 +0000";
layers = (
{
layerId = "60F86E82-B86D-46D3-A6A0-C6D09B755248";
paths = (
{
closed = 1;
nodes = (
"150 -967 OFFCURVE",
"92 -1000 OFFCURVE",
"-25 -1000 CURVE SMOOTH",
"-142 -1000 OFFCURVE",
"-200 -967 OFFCURVE",
"-200 -900 CURVE SMOOTH",
"-200 -850 LINE",
"-150 -850 LINE",
"-150 -750 LINE",
"-400 -750 LINE",
"-400 -900 LINE SMOOTH",
"-400 -1100 OFFCURVE",
"-275 -1200 OFFCURVE",
"-25 -1200 CURVE SMOOTH",
"225 -1200 OFFCURVE",
"350 -1100 OFFCURVE",
"350 -900 CURVE SMOOTH",
"350 1600 LINE SMOOTH",
"350 1867 OFFCURVE",
"233 2000 OFFCURVE",
"0 2000 CURVE SMOOTH",
"-57 2000 OFFCURVE",
"-107 1994 OFFCURVE",
"-150 1982 CURVE",
"-150 2350 LINE",
"-350 2350 LINE",
"-350 1700 LINE",
"-150 1700 LINE",
"-150 1767 OFFCURVE",
"-100 1800 OFFCURVE",
"0 1800 CURVE SMOOTH",
"100 1800 OFFCURVE",
"150 1733 OFFCURVE",
"150 1600 CURVE SMOOTH",
"150 -900 LINE SMOOTH"
);
}
);
width = 500;
}
);
note = uni17C0.b;
},
{
glyphname = uni1780_17B6;
lastChange = "2021-10-28 13:38:07 +0000";
layers = (
{
layerId = "60F86E82-B86D-46D3-A6A0-C6D09B755248";
paths = (
{
closed = 1;
nodes = (
"1350 1300 LINE SMOOTH",
"1517 1300 OFFCURVE",
"1600 1233 OFFCURVE",
"1600 1100 CURVE SMOOTH",
"1600 0 LINE",
"1800 0 LINE",
"1800 1100 LINE SMOOTH",
"1800 1367 OFFCURVE",
"1650 1500 OFFCURVE",
"1350 1500 CURVE SMOOTH",
"150 1500 LINE",
"150 1300 LINE"
);
},
{
closed = 1;
nodes = (
"1150 967 OFFCURVE",
"983 1100 OFFCURVE",
"650 1100 CURVE SMOOTH",
"317 1100 OFFCURVE",
"150 967 OFFCURVE",
"150 700 CURVE SMOOTH",
"150 0 LINE",
"350 0 LINE",
"350 700 LINE SMOOTH",
"350 833 OFFCURVE",
"450 900 OFFCURVE",
"650 900 CURVE SMOOTH",
"850 900 OFFCURVE",
"950 833 OFFCURVE",
"950 700 CURVE SMOOTH",
"950 0 LINE",
"1150 0 LINE",
"1150 700 LINE SMOOTH"
);
}
);
width = 1950;
}
);
note = uni1780_17B6;
rightMetricsKey = uni17B6;
},
{
glyphname = uni1780_17C5;
lastChange = "2021-04-30 12:39:40 +0000";
layers = (
{
layerId = "60F86E82-B86D-46D3-A6A0-C6D09B755248";
paths = (
{
closed = 1;
nodes = (
"1800 2100 OFFCURVE",
"1717 2200 OFFCURVE",
"1550 2200 CURVE SMOOTH",
"1450 2200 LINE",
"1450 2000 LINE",
"1550 2000 LINE SMOOTH",
"1583 2000 OFFCURVE",
"1600 1967 OFFCURVE",
"1600 1900 CURVE SMOOTH",
"1600 1500 LINE",
"1800 1500 LINE",
"1800 1900 LINE SMOOTH"
);
},
{
closed = 1;
nodes = (
"1350 1300 LINE SMOOTH",
"1517 1300 OFFCURVE",
"1600 1233 OFFCURVE",
"1600 1100 CURVE SMOOTH",
"1600 0 LINE",
"1800 0 LINE",
"1800 1100 LINE SMOOTH",
"1800 1367 OFFCURVE",
"1650 1500 OFFCURVE",
"1350 1500 CURVE SMOOTH",
"150 1500 LINE",
"150 1300 LINE"
);
},
{
closed = 1;
nodes = (
"1150 967 OFFCURVE",
"983 1100 OFFCURVE",
"650 1100 CURVE SMOOTH",
"317 1100 OFFCURVE",
"150 967 OFFCURVE",
"150 700 CURVE SMOOTH",
"150 0 LINE",
"350 0 LINE",
"350 700 LINE SMOOTH",
"350 833 OFFCURVE",
"450 900 OFFCURVE",
"650 900 CURVE SMOOTH",
"850 900 OFFCURVE",
"950 833 OFFCURVE",
"950 700 CURVE SMOOTH",
"950 0 LINE",
"1150 0 LINE",
"1150 700 LINE SMOOTH"
);
}
);
width = 1300;
}
);
note = uni1780_17C5;
},
{
glyphname = uni1781_17B6;
lastChange = "2021-10-28 13:38:07 +0000";
layers = (
{
layerId = "60F86E82-B86D-46D3-A6A0-C6D09B755248";
paths = (
{
closed = 1;
nodes = (
"1150 1233 OFFCURVE",
"1225 1300 OFFCURVE",
"1375 1300 CURVE SMOOTH",
"1525 1300 OFFCURVE",
"1600 1233 OFFCURVE",
"1600 1100 CURVE SMOOTH",
"1600 0 LINE",
"1800 0 LINE",
"1800 1100 LINE SMOOTH",
"1800 1367 OFFCURVE",
"1658 1500 OFFCURVE",
"1375 1500 CURVE SMOOTH",
"1224 1500 OFFCURVE",
"1113 1462 OFFCURVE",
"1042 1386 CURVE",
"959 1462 OFFCURVE",
"829 1500 OFFCURVE",
"650 1500 CURVE SMOOTH",
"317 1500 OFFCURVE",
"150 1367 OFFCURVE",
"150 1100 CURVE SMOOTH",
"150 1050 LINE SMOOTH",
"150 950 OFFCURVE",
"200 900 OFFCURVE",
"300 900 CURVE SMOOTH",
"450 900 LINE",
"450 1100 LINE",
"350 1100 LINE",
"350 1233 OFFCURVE",
"450 1300 OFFCURVE",
"650 1300 CURVE SMOOTH",
"850 1300 OFFCURVE",
"950 1233 OFFCURVE",
"950 1100 CURVE SMOOTH",
"950 942 OFFCURVE",
"767 818 OFFCURVE",
"400 729 CURVE SMOOTH",
"150 668 LINE",
"150 400 LINE SMOOTH",
"150 133 OFFCURVE",
"317 0 OFFCURVE",
"650 0 CURVE SMOOTH",
"983 0 OFFCURVE",
"1150 133 OFFCURVE",
"1150 400 CURVE SMOOTH",
"1150 600 LINE",
"950 600 LINE",
"950 400 LINE SMOOTH",
"950 267 OFFCURVE",
"850 200 OFFCURVE",
"650 200 CURVE SMOOTH",
"450 200 OFFCURVE",
"350 267 OFFCURVE",
"350 400 CURVE SMOOTH",
"350 511 LINE",
"450 536 LINE SMOOTH",
"917 650 OFFCURVE",
"1150 838 OFFCURVE",
"1150 1100 CURVE SMOOTH"
);
}
);
width = 1950;
}
);
note = uni1781_17B6;
rightMetricsKey = uni17B6;
},
{
glyphname = uni1781_17C5;
lastChange = "2021-04-30 12:39:40 +0000";
layers = (
{
layerId = "60F86E82-B86D-46D3-A6A0-C6D09B755248";
paths = (
{
closed = 1;
nodes = (
"1800 2100 OFFCURVE",
"1717 2200 OFFCURVE",
"1550 2200 CURVE SMOOTH",
"1450 2200 LINE",
"1450 2000 LINE",
"1550 2000 LINE SMOOTH",
"1583 2000 OFFCURVE",
"1600 1967 OFFCURVE",
"1600 1900 CURVE SMOOTH",
"1600 1500 LINE",
"1800 1500 LINE",
"1800 1900 LINE SMOOTH"
);
},
{
closed = 1;
nodes = (
"1150 1233 OFFCURVE",
"1225 1300 OFFCURVE",
"1375 1300 CURVE SMOOTH",
"1525 1300 OFFCURVE",
"1600 1233 OFFCURVE",
"1600 1100 CURVE SMOOTH",
"1600 0 LINE",
"1800 0 LINE",
"1800 1100 LINE SMOOTH",
"1800 1367 OFFCURVE",
"1658 1500 OFFCURVE",
"1375 1500 CURVE SMOOTH",
"1224 1500 OFFCURVE",
"1113 1462 OFFCURVE",
"1042 1386 CURVE",
"959 1462 OFFCURVE",
"829 1500 OFFCURVE",
"650 1500 CURVE SMOOTH",
"317 1500 OFFCURVE",
"150 1367 OFFCURVE",
"150 1100 CURVE SMOOTH",
"150 1050 LINE SMOOTH",
"150 950 OFFCURVE",
"200 900 OFFCURVE",
"300 900 CURVE SMOOTH",
"450 900 LINE",
"450 1100 LINE",
"350 1100 LINE",
"350 1233 OFFCURVE",
"450 1300 OFFCURVE",
"650 1300 CURVE SMOOTH",
"850 1300 OFFCURVE",
"950 1233 OFFCURVE",
"950 1100 CURVE SMOOTH",
"950 942 OFFCURVE",
"767 818 OFFCURVE",
"400 729 CURVE SMOOTH",
"150 668 LINE",
"150 400 LINE SMOOTH",
"150 133 OFFCURVE",
"317 0 OFFCURVE",
"650 0 CURVE SMOOTH",
"983 0 OFFCURVE",
"1150 133 OFFCURVE",
"1150 400 CURVE SMOOTH",
"1150 600 LINE",
"950 600 LINE",
"950 400 LINE SMOOTH",
"950 267 OFFCURVE",
"850 200 OFFCURVE",
"650 200 CURVE SMOOTH",
"450 200 OFFCURVE",
"350 267 OFFCURVE",
"350 400 CURVE SMOOTH",
"350 511 LINE",
"450 536 LINE SMOOTH",
"917 650 OFFCURVE",
"1150 838 OFFCURVE",
"1150 1100 CURVE SMOOTH"
);
}
);
width = 1300;
}
);
note = uni1781_17C5;
},
{
glyphname = uni1782_17B6;
lastChange = "2021-10-28 13:38:07 +0000";
layers = (
{
layerId = "60F86E82-B86D-46D3-A6A0-C6D09B755248";
paths = (
{
closed = 1;
nodes = (
"1350 1300 LINE SMOOTH",
"1517 1300 OFFCURVE",
"1600 1233 OFFCURVE",
"1600 1100 CURVE SMOOTH",
"1600 0 LINE",
"1800 0 LINE",
"1800 1100 LINE SMOOTH",
"1800 1367 OFFCURVE",
"1650 1500 OFFCURVE",
"1350 1500 CURVE SMOOTH",
"150 1500 LINE",
"150 1300 LINE"
);
},
{
closed = 1;
nodes = (
"350 354 LINE",
"350 700 LINE SMOOTH",
"350 833 OFFCURVE",
"450 900 OFFCURVE",
"650 900 CURVE SMOOTH",
"850 900 OFFCURVE",
"950 833 OFFCURVE",
"950 700 CURVE SMOOTH",
"950 0 LINE",
"1150 0 LINE",
"1150 700 LINE SMOOTH",
"1150 967 OFFCURVE",
"983 1100 OFFCURVE",
"650 1100 CURVE SMOOTH",
"317 1100 OFFCURVE",
"150 967 OFFCURVE",
"150 700 CURVE SMOOTH",
"150 0 LINE",
"350 0 LINE",
"350 30 LINE",
"700 476 LINE",
"543 600 LINE"
);
}
);
width = 1950;
}
);
note = uni1782_17B6;
rightMetricsKey = uni17B6;
},
{
glyphname = uni1782_17C5;
lastChange = "2021-04-30 12:39:40 +0000";
layers = (
{
layerId = "60F86E82-B86D-46D3-A6A0-C6D09B755248";
paths = (
{
closed = 1;
nodes = (
"1800 2100 OFFCURVE",
"1717 2200 OFFCURVE",
"1550 2200 CURVE SMOOTH",
"1450 2200 LINE",
"1450 2000 LINE",
"1550 2000 LINE SMOOTH",
"1583 2000 OFFCURVE",
"1600 1967 OFFCURVE",
"1600 1900 CURVE SMOOTH",
"1600 1500 LINE",
"1800 1500 LINE",
"1800 1900 LINE SMOOTH"
);
},
{
closed = 1;
nodes = (
"1350 1300 LINE SMOOTH",
"1517 1300 OFFCURVE",
"1600 1233 OFFCURVE",
"1600 1100 CURVE SMOOTH",
"1600 0 LINE",
"1800 0 LINE",
"1800 1100 LINE SMOOTH",
"1800 1367 OFFCURVE",
"1650 1500 OFFCURVE",
"1350 1500 CURVE SMOOTH",
"150 1500 LINE",
"150 1300 LINE"
);
},
{
closed = 1;
nodes = (
"350 354 LINE",
"350 700 LINE SMOOTH",
"350 833 OFFCURVE",
"450 900 OFFCURVE",
"650 900 CURVE SMOOTH",
"850 900 OFFCURVE",
"950 833 OFFCURVE",
"950 700 CURVE SMOOTH",
"950 0 LINE",
"1150 0 LINE",
"1150 700 LINE SMOOTH",
"1150 967 OFFCURVE",
"983 1100 OFFCURVE",
"650 1100 CURVE SMOOTH",
"317 1100 OFFCURVE",
"150 967 OFFCURVE",
"150 700 CURVE SMOOTH",
"150 0 LINE",
"350 0 LINE",
"350 30 LINE",
"700 476 LINE",
"543 600 LINE"
);
}
);
width = 1300;
}
);
note = uni1782_17C5;
},
{
glyphname = uni1783_17B6;
lastChange = "2021-10-28 13:38:07 +0000";
layers = (
{
layerId = "60F86E82-B86D-46D3-A6A0-C6D09B755248";
paths = (
{
closed = 1;
nodes = (
"1875 1233 OFFCURVE",
"1950 1300 OFFCURVE",
"2100 1300 CURVE SMOOTH",
"2250 1300 OFFCURVE",
"2325 1233 OFFCURVE",
"2325 1100 CURVE SMOOTH",
"2325 0 LINE",
"2525 0 LINE",
"2525 1100 LINE SMOOTH",
"2525 1367 OFFCURVE",
"2383 1500 OFFCURVE",
"2100 1500 CURVE SMOOTH",
"1817 1500 OFFCURVE",
"1675 1367 OFFCURVE",
"1675 1100 CURVE SMOOTH",
"1675 400 LINE SMOOTH",
"1675 267 OFFCURVE",
"1588 200 OFFCURVE",
"1413 200 CURVE SMOOTH",
"1238 200 OFFCURVE",
"1150 267 OFFCURVE",
"1150 400 CURVE SMOOTH",
"1150 1500 LINE",
"950 1500 LINE",
"950 400 LINE SMOOTH",
"950 267 OFFCURVE",
"850 200 OFFCURVE",
"650 200 CURVE SMOOTH",
"454 200 OFFCURVE",
"354 264 OFFCURVE",
"350 392 CURVE",
"550 577 OFFCURVE",
"650 813 OFFCURVE",
"650 1100 CURVE SMOOTH",
"650 1359 OFFCURVE",
"492 1500 OFFCURVE",
"361 1500 CURVE SMOOTH",
"303 1500 OFFCURVE",
"246 1473 OFFCURVE",
"190 1418 CURVE SMOOTH",
"130 1359 OFFCURVE",
"100 1300 OFFCURVE",
"100 1240 CURVE SMOOTH",
"100 1122 OFFCURVE",
"129 1033 OFFCURVE",
"187 974 CURVE",
"254 890 LINE",
"408 997 LINE",
"349 1095 LINE SMOOTH",
"320 1148 OFFCURVE",
"306 1190 OFFCURVE",
"306 1221 CURVE SMOOTH",
"306 1240 OFFCURVE",
"312 1256 OFFCURVE",
"323 1267 CURVE SMOOTH",
"336 1280 OFFCURVE",
"348 1286 OFFCURVE",
"361 1286 CURVE SMOOTH",
"377 1286 OFFCURVE",
"393 1276 OFFCURVE",
"408 1257 CURVE SMOOTH",
"436 1221 OFFCURVE",
"450 1169 OFFCURVE",
"450 1100 CURVE SMOOTH",
"450 887 OFFCURVE",
"350 677 OFFCURVE",
"150 470 CURVE",
"150 400 LINE SMOOTH",
"150 133 OFFCURVE",
"317 0 OFFCURVE",
"650 0 CURVE SMOOTH",
"831 0 OFFCURVE",
"963 39 OFFCURVE",
"1046 118 CURVE",
"1123 39 OFFCURVE",
"1245 0 OFFCURVE",
"1413 0 CURVE SMOOTH",
"1721 0 OFFCURVE",
"1875 133 OFFCURVE",
"1875 400 CURVE SMOOTH",
"1875 1100 LINE SMOOTH"
);
}
);
width = 2675;
}
);
note = uni1783_17B6;
rightMetricsKey = uni17B6;
},
{
glyphname = uni1783_17C5;
lastChange = "2021-04-30 12:39:40 +0000";
layers = (
{
layerId = "60F86E82-B86D-46D3-A6A0-C6D09B755248";
paths = (
{
closed = 1;
nodes = (
"2525 2100 OFFCURVE",
"2442 2200 OFFCURVE",
"2275 2200 CURVE SMOOTH",
"2175 2200 LINE",
"2175 2000 LINE",
"2275 2000 LINE SMOOTH",
"2308 2000 OFFCURVE",
"2325 1967 OFFCURVE",
"2325 1900 CURVE SMOOTH",
"2325 1500 LINE",
"2525 1500 LINE",
"2525 1900 LINE SMOOTH"
);
},
{
closed = 1;
nodes = (
"1875 1233 OFFCURVE",
"1950 1300 OFFCURVE",
"2100 1300 CURVE SMOOTH",
"2250 1300 OFFCURVE",
"2325 1233 OFFCURVE",
"2325 1100 CURVE SMOOTH",
"2325 0 LINE",
"2525 0 LINE",
"2525 1100 LINE SMOOTH",
"2525 1367 OFFCURVE",
"2383 1500 OFFCURVE",
"2100 1500 CURVE SMOOTH",
"1817 1500 OFFCURVE",
"1675 1367 OFFCURVE",
"1675 1100 CURVE SMOOTH",
"1675 400 LINE SMOOTH",
"1675 267 OFFCURVE",
"1588 200 OFFCURVE",
"1413 200 CURVE SMOOTH",
"1238 200 OFFCURVE",
"1150 267 OFFCURVE",
"1150 400 CURVE SMOOTH",
"1150 1500 LINE",
"950 1500 LINE",
"950 400 LINE SMOOTH",
"950 267 OFFCURVE",
"850 200 OFFCURVE",
"650 200 CURVE SMOOTH",
"454 200 OFFCURVE",
"354 264 OFFCURVE",
"350 392 CURVE",
"550 577 OFFCURVE",
"650 813 OFFCURVE",
"650 1100 CURVE SMOOTH",
"650 1359 OFFCURVE",
"492 1500 OFFCURVE",
"361 1500 CURVE SMOOTH",
"303 1500 OFFCURVE",
"246 1473 OFFCURVE",
"190 1418 CURVE SMOOTH",
"130 1359 OFFCURVE",
"100 1300 OFFCURVE",
"100 1240 CURVE SMOOTH",
"100 1122 OFFCURVE",
"129 1033 OFFCURVE",
"187 974 CURVE",
"254 890 LINE",
"408 997 LINE",
"349 1095 LINE SMOOTH",
"320 1148 OFFCURVE",
"306 1190 OFFCURVE",
"306 1221 CURVE SMOOTH",
"306 1240 OFFCURVE",
"312 1256 OFFCURVE",
"323 1267 CURVE SMOOTH",
"336 1280 OFFCURVE",
"348 1286 OFFCURVE",
"361 1286 CURVE SMOOTH",
"377 1286 OFFCURVE",
"393 1276 OFFCURVE",
"408 1257 CURVE SMOOTH",
"436 1221 OFFCURVE",
"450 1169 OFFCURVE",
"450 1100 CURVE SMOOTH",
"450 887 OFFCURVE",
"350 677 OFFCURVE",
"150 470 CURVE",
"150 400 LINE SMOOTH",
"150 133 OFFCURVE",
"317 0 OFFCURVE",
"650 0 CURVE SMOOTH",
"831 0 OFFCURVE",
"963 39 OFFCURVE",
"1046 118 CURVE",
"1123 39 OFFCURVE",
"1245 0 OFFCURVE",
"1413 0 CURVE SMOOTH",
"1721 0 OFFCURVE",
"1875 133 OFFCURVE",
"1875 400 CURVE SMOOTH",
"1875 1100 LINE SMOOTH"
);
}
);
width = 2025;
}
);
note = uni1783_17C5;
},
{
glyphname = uni1784_17B6;
lastChange = "2021-10-28 13:38:07 +0000";
layers = (
{
layerId = "60F86E82-B86D-46D3-A6A0-C6D09B755248";
paths = (
{
closed = 1;
nodes = (
"1189 1281 OFFCURVE",
"1267 1300 OFFCURVE",
"1375 1300 CURVE SMOOTH",
"1525 1300 OFFCURVE",
"1600 1233 OFFCURVE",
"1600 1100 CURVE SMOOTH",
"1600 0 LINE",
"1800 0 LINE",
"1800 1100 LINE SMOOTH",
"1800 1367 OFFCURVE",
"1658 1500 OFFCURVE",
"1375 1500 CURVE SMOOTH",
"1266 1500 OFFCURVE",
"1175 1485 OFFCURVE",
"1103 1454 CURVE",
"1074 1485 OFFCURVE",
"1031 1500 OFFCURVE",
"975 1500 CURVE SMOOTH",
"858 1500 OFFCURVE",
"800 1433 OFFCURVE",
"800 1300 CURVE",
"500 1300 LINE SMOOTH",
"400 1300 OFFCURVE",
"350 1333 OFFCURVE",
"350 1400 CURVE SMOOTH",
"350 1600 LINE",
"150 1600 LINE",
"150 1400 LINE SMOOTH",
"150 1200 OFFCURVE",
"267 1100 OFFCURVE",
"500 1100 CURVE SMOOTH",
"800 1100 LINE SMOOTH",
"815 1100 OFFCURVE",
"829 1100 OFFCURVE",
"843 1101 CURVE",
"914 1045 OFFCURVE",
"950 978 OFFCURVE",
"950 900 CURVE SMOOTH",
"950 287 LINE",
"650 596 LINE",
"350 287 LINE",
"350 1000 LINE",
"100 1000 LINE",
"100 800 LINE",
"150 800 LINE",
"150 0 LINE",
"350 0 LINE",
"650 309 LINE",
"950 0 LINE",
"1150 0 LINE",
"1150 900 LINE SMOOTH",
"1150 996 OFFCURVE",
"1120 1079 OFFCURVE",
"1059 1148 CURVE",
"1101 1171 OFFCURVE",
"1129 1203 OFFCURVE",
"1142 1243 CURVE"
);
}
);
width = 1950;
}
);
note = uni1784_17B6;
rightMetricsKey = uni17B6;
},
{
glyphname = uni1784_17C5;
lastChange = "2021-04-30 12:39:40 +0000";
layers = (
{
layerId = "60F86E82-B86D-46D3-A6A0-C6D09B755248";
paths = (
{
closed = 1;
nodes = (
"1800 2100 OFFCURVE",
"1717 2200 OFFCURVE",
"1550 2200 CURVE SMOOTH",
"1450 2200 LINE",
"1450 2000 LINE",
"1550 2000 LINE SMOOTH",
"1583 2000 OFFCURVE",
"1600 1967 OFFCURVE",
"1600 1900 CURVE SMOOTH",
"1600 1500 LINE",
"1800 1500 LINE",
"1800 1900 LINE SMOOTH"
);
},
{
closed = 1;
nodes = (
"1189 1281 OFFCURVE",
"1267 1300 OFFCURVE",
"1375 1300 CURVE SMOOTH",
"1525 1300 OFFCURVE",
"1600 1233 OFFCURVE",
"1600 1100 CURVE SMOOTH",
"1600 0 LINE",
"1800 0 LINE",
"1800 1100 LINE SMOOTH",
"1800 1367 OFFCURVE",
"1658 1500 OFFCURVE",
"1375 1500 CURVE SMOOTH",
"1266 1500 OFFCURVE",
"1175 1485 OFFCURVE",
"1103 1454 CURVE",
"1074 1485 OFFCURVE",
"1031 1500 OFFCURVE",
"975 1500 CURVE SMOOTH",
"858 1500 OFFCURVE",
"800 1433 OFFCURVE",
"800 1300 CURVE",
"500 1300 LINE SMOOTH",
"400 1300 OFFCURVE",
"350 1333 OFFCURVE",
"350 1400 CURVE SMOOTH",
"350 1600 LINE",
"150 1600 LINE",
"150 1400 LINE SMOOTH",
"150 1200 OFFCURVE",
"267 1100 OFFCURVE",
"500 1100 CURVE SMOOTH",
"800 1100 LINE SMOOTH",
"815 1100 OFFCURVE",
"829 1100 OFFCURVE",
"843 1101 CURVE",
"914 1045 OFFCURVE",
"950 978 OFFCURVE",
"950 900 CURVE SMOOTH",
"950 287 LINE",
"650 596 LINE",
"350 287 LINE",
"350 1000 LINE",
"100 1000 LINE",
"100 800 LINE",
"150 800 LINE",
"150 0 LINE",
"350 0 LINE",
"650 309 LINE",
"950 0 LINE",
"1150 0 LINE",
"1150 900 LINE SMOOTH",
"1150 996 OFFCURVE",
"1120 1079 OFFCURVE",
"1059 1148 CURVE",
"1101 1171 OFFCURVE",
"1129 1203 OFFCURVE",
"1142 1243 CURVE"
);
}
);
width = 1300;
}
);
note = uni1784_17C5;
},
{
glyphname = uni1785_17B6;
lastChange = "2021-10-28 13:38:07 +0000";
layers = (
{
layerId = "60F86E82-B86D-46D3-A6A0-C6D09B755248";
paths = (
{
closed = 1;
nodes = (
"100 1103 OFFCURVE",
"144 1022 OFFCURVE",
"233 981 CURVE",
"178 912 OFFCURVE",
"150 839 OFFCURVE",
"150 760 CURVE SMOOTH",
"150 400 LINE SMOOTH",
"150 133 OFFCURVE",
"317 0 OFFCURVE",
"650 0 CURVE SMOOTH",
"983 0 OFFCURVE",
"1150 133 OFFCURVE",
"1150 400 CURVE SMOOTH",
"1150 875 LINE SMOOTH",
"1150 1025 OFFCURVE",
"1075 1100 OFFCURVE",
"925 1100 CURVE SMOOTH",
"775 1100 OFFCURVE",
"700 1025 OFFCURVE",
"700 875 CURVE SMOOTH",
"700 725 OFFCURVE",
"775 650 OFFCURVE",
"925 650 CURVE SMOOTH",
"934 650 OFFCURVE",
"942 650 OFFCURVE",
"950 651 CURVE",
"950 400 LINE SMOOTH",
"950 267 OFFCURVE",
"850 200 OFFCURVE",
"650 200 CURVE SMOOTH",
"450 200 OFFCURVE",
"350 267 OFFCURVE",
"350 400 CURVE SMOOTH",
"350 760 LINE SMOOTH",
"350 853 OFFCURVE",
"400 929 OFFCURVE",
"500 990 CURVE",
"500 1110 LINE",
"400 1130 LINE SMOOTH",
"333 1143 OFFCURVE",
"300 1175 OFFCURVE",
"300 1225 CURVE SMOOTH",
"300 1300 LINE",
"1350 1300 LINE SMOOTH",
"1517 1300 OFFCURVE",
"1600 1233 OFFCURVE",
"1600 1100 CURVE SMOOTH",
"1600 0 LINE",
"1800 0 LINE",
"1800 1100 LINE SMOOTH",
"1800 1367 OFFCURVE",
"1650 1500 OFFCURVE",
"1350 1500 CURVE SMOOTH",
"100 1500 LINE",
"100 1225 LINE SMOOTH"
);
},
{
closed = 1;
nodes = (
"875 800 OFFCURVE",
"850 825 OFFCURVE",
"850 875 CURVE SMOOTH",
"850 925 OFFCURVE",
"875 950 OFFCURVE",
"925 950 CURVE SMOOTH",
"975 950 OFFCURVE",
"1000 925 OFFCURVE",
"1000 875 CURVE SMOOTH",
"1000 825 OFFCURVE",
"975 800 OFFCURVE",
"925 800 CURVE SMOOTH"
);
}
);
width = 1950;
}
);
note = uni1785_17B6;
rightMetricsKey = uni17B6;
},
{
glyphname = uni1785_17C5;
lastChange = "2021-04-30 12:39:40 +0000";
layers = (
{
layerId = "60F86E82-B86D-46D3-A6A0-C6D09B755248";
paths = (
{
closed = 1;
nodes = (
"1800 2100 OFFCURVE",
"1717 2200 OFFCURVE",
"1550 2200 CURVE SMOOTH",
"1450 2200 LINE",
"1450 2000 LINE",
"1550 2000 LINE SMOOTH",
"1583 2000 OFFCURVE",
"1600 1967 OFFCURVE",
"1600 1900 CURVE SMOOTH",
"1600 1500 LINE",
"1800 1500 LINE",
"1800 1900 LINE SMOOTH"
);
},
{
closed = 1;
nodes = (
"100 1103 OFFCURVE",
"144 1022 OFFCURVE",
"233 981 CURVE",
"178 912 OFFCURVE",
"150 839 OFFCURVE",
"150 760 CURVE SMOOTH",
"150 400 LINE SMOOTH",
"150 133 OFFCURVE",
"317 0 OFFCURVE",
"650 0 CURVE SMOOTH",
"983 0 OFFCURVE",
"1150 133 OFFCURVE",
"1150 400 CURVE SMOOTH",
"1150 875 LINE SMOOTH",
"1150 1025 OFFCURVE",
"1075 1100 OFFCURVE",
"925 1100 CURVE SMOOTH",
"775 1100 OFFCURVE",
"700 1025 OFFCURVE",
"700 875 CURVE SMOOTH",
"700 725 OFFCURVE",
"775 650 OFFCURVE",
"925 650 CURVE SMOOTH",
"934 650 OFFCURVE",
"942 650 OFFCURVE",
"950 651 CURVE",
"950 400 LINE SMOOTH",
"950 267 OFFCURVE",
"850 200 OFFCURVE",
"650 200 CURVE SMOOTH",
"450 200 OFFCURVE",
"350 267 OFFCURVE",
"350 400 CURVE SMOOTH",
"350 760 LINE SMOOTH",
"350 853 OFFCURVE",
"400 929 OFFCURVE",
"500 990 CURVE",
"500 1110 LINE",
"400 1130 LINE SMOOTH",
"333 1143 OFFCURVE",
"300 1175 OFFCURVE",
"300 1225 CURVE SMOOTH",
"300 1300 LINE",
"1350 1300 LINE SMOOTH",
"1517 1300 OFFCURVE",
"1600 1233 OFFCURVE",
"1600 1100 CURVE SMOOTH",
"1600 0 LINE",
"1800 0 LINE",
"1800 1100 LINE SMOOTH",
"1800 1367 OFFCURVE",
"1650 1500 OFFCURVE",
"1350 1500 CURVE SMOOTH",
"100 1500 LINE",
"100 1225 LINE SMOOTH"
);
},
{
closed = 1;
nodes = (
"875 800 OFFCURVE",
"850 825 OFFCURVE",
"850 875 CURVE SMOOTH",
"850 925 OFFCURVE",
"875 950 OFFCURVE",
"925 950 CURVE SMOOTH",
"975 950 OFFCURVE",
"1000 925 OFFCURVE",
"1000 875 CURVE SMOOTH",
"1000 825 OFFCURVE",
"975 800 OFFCURVE",
"925 800 CURVE SMOOTH"
);
}
);
width = 1300;
}
);
note = uni1785_17C5;
},
{
glyphname = uni1786_17B6;
lastChange = "2021-10-28 13:38:07 +0000";
layers = (
{
layerId = "60F86E82-B86D-46D3-A6A0-C6D09B755248";
paths = (
{
closed = 1;
nodes = (
"600 835 OFFCURVE",
"545 1135 OFFCURVE",
"435 1300 CURVE",
"1550 1300 LINE SMOOTH",
"1717 1300 OFFCURVE",
"1800 1233 OFFCURVE",
"1800 1100 CURVE SMOOTH",
"1800 0 LINE",
"2000 0 LINE",
"2000 1100 LINE SMOOTH",
"2000 1367 OFFCURVE",
"1850 1500 OFFCURVE",
"1550 1500 CURVE SMOOTH",
"50 1500 LINE",
"50 1300 LINE",
"60 1300 LINE SMOOTH",
"253 1300 OFFCURVE",
"363 1083 OFFCURVE",
"392 650 CURVE",
"269 627 OFFCURVE",
"184 586 OFFCURVE",
"137 526 CURVE",
"79 467 OFFCURVE",
"50 378 OFFCURVE",
"50 260 CURVE SMOOTH",
"50 200 OFFCURVE",
"80 141 OFFCURVE",
"140 82 CURVE SMOOTH",
"196 27 OFFCURVE",
"253 0 OFFCURVE",
"311 0 CURVE SMOOTH",
"442 0 OFFCURVE",
"600 141 OFFCURVE",
"600 400 CURVE SMOOTH"
);
},
{
closed = 1;
nodes = (
"1400 1025 OFFCURVE",
"1325 1100 OFFCURVE",
"1175 1100 CURVE SMOOTH",
"1025 1100 OFFCURVE",
"950 1025 OFFCURVE",
"950 875 CURVE SMOOTH",
"950 725 OFFCURVE",
"1025 650 OFFCURVE",
"1175 650 CURVE SMOOTH",
"1184 650 OFFCURVE",
"1192 650 OFFCURVE",
"1200 651 CURVE",
"1200 513 LINE",
"1075 618 OFFCURVE",
"892 670 OFFCURVE",
"650 670 CURVE",
"650 470 LINE",
"1017 470 OFFCURVE",
"1200 313 OFFCURVE",
"1200 0 CURVE",
"1400 0 LINE",
"1400 875 LINE SMOOTH"
);
},
{
closed = 1;
nodes = (
"1125 800 OFFCURVE",
"1100 825 OFFCURVE",
"1100 875 CURVE SMOOTH",
"1100 925 OFFCURVE",
"1125 950 OFFCURVE",
"1175 950 CURVE SMOOTH",
"1225 950 OFFCURVE",
"1250 925 OFFCURVE",
"1250 875 CURVE SMOOTH",
"1250 825 OFFCURVE",
"1225 800 OFFCURVE",
"1175 800 CURVE SMOOTH"
);
},
{
closed = 1;
nodes = (
"400 331 OFFCURVE",
"386 279 OFFCURVE",
"358 244 CURVE SMOOTH",
"343 224 OFFCURVE",
"327 214 OFFCURVE",
"311 214 CURVE SMOOTH",
"298 214 OFFCURVE",
"286 221 OFFCURVE",
"273 234 CURVE SMOOTH",
"262 245 OFFCURVE",
"256 260 OFFCURVE",
"256 279 CURVE SMOOTH",
"256 310 OFFCURVE",
"270 352 OFFCURVE",
"299 405 CURVE",
"318 432 OFFCURVE",
"351 450 OFFCURVE",
"400 460 CURVE",
"400 400 LINE SMOOTH"
);
}
);
width = 2150;
}
);
note = uni1786_17B6;
rightMetricsKey = uni17B6;
},
{
glyphname = uni1786_17C5;
lastChange = "2021-04-30 12:39:40 +0000";
layers = (
{
layerId = "60F86E82-B86D-46D3-A6A0-C6D09B755248";
paths = (
{
closed = 1;
nodes = (
"2000 2100 OFFCURVE",
"1917 2200 OFFCURVE",
"1750 2200 CURVE SMOOTH",
"1650 2200 LINE",
"1650 2000 LINE",
"1750 2000 LINE SMOOTH",
"1783 2000 OFFCURVE",
"1800 1967 OFFCURVE",
"1800 1900 CURVE SMOOTH",
"1800 1500 LINE",
"2000 1500 LINE",
"2000 1900 LINE SMOOTH"
);
},
{
closed = 1;
nodes = (
"600 835 OFFCURVE",
"545 1135 OFFCURVE",
"435 1300 CURVE",
"1550 1300 LINE SMOOTH",
"1717 1300 OFFCURVE",
"1800 1233 OFFCURVE",
"1800 1100 CURVE SMOOTH",
"1800 0 LINE",
"2000 0 LINE",
"2000 1100 LINE SMOOTH",
"2000 1367 OFFCURVE",
"1850 1500 OFFCURVE",
"1550 1500 CURVE SMOOTH",
"50 1500 LINE",
"50 1300 LINE",
"60 1300 LINE SMOOTH",
"253 1300 OFFCURVE",
"363 1083 OFFCURVE",
"392 650 CURVE",
"269 627 OFFCURVE",
"184 586 OFFCURVE",
"137 526 CURVE",
"79 467 OFFCURVE",
"50 378 OFFCURVE",
"50 260 CURVE SMOOTH",
"50 200 OFFCURVE",
"80 141 OFFCURVE",
"140 82 CURVE SMOOTH",
"196 27 OFFCURVE",
"253 0 OFFCURVE",
"311 0 CURVE SMOOTH",
"442 0 OFFCURVE",
"600 141 OFFCURVE",
"600 400 CURVE SMOOTH"
);
},
{
closed = 1;
nodes = (
"1400 1025 OFFCURVE",
"1325 1100 OFFCURVE",
"1175 1100 CURVE SMOOTH",
"1025 1100 OFFCURVE",
"950 1025 OFFCURVE",
"950 875 CURVE SMOOTH",
"950 725 OFFCURVE",
"1025 650 OFFCURVE",
"1175 650 CURVE SMOOTH",
"1184 650 OFFCURVE",
"1192 650 OFFCURVE",
"1200 651 CURVE",
"1200 513 LINE",
"1075 618 OFFCURVE",
"892 670 OFFCURVE",
"650 670 CURVE",
"650 470 LINE",
"1017 470 OFFCURVE",
"1200 313 OFFCURVE",
"1200 0 CURVE",
"1400 0 LINE",
"1400 875 LINE SMOOTH"
);
},
{
closed = 1;
nodes = (
"1125 800 OFFCURVE",
"1100 825 OFFCURVE",
"1100 875 CURVE SMOOTH",
"1100 925 OFFCURVE",
"1125 950 OFFCURVE",
"1175 950 CURVE SMOOTH",
"1225 950 OFFCURVE",
"1250 925 OFFCURVE",
"1250 875 CURVE SMOOTH",
"1250 825 OFFCURVE",
"1225 800 OFFCURVE",
"1175 800 CURVE SMOOTH"
);
},
{
closed = 1;
nodes = (
"400 331 OFFCURVE",
"386 279 OFFCURVE",
"358 244 CURVE SMOOTH",
"343 224 OFFCURVE",
"327 214 OFFCURVE",
"311 214 CURVE SMOOTH",
"298 214 OFFCURVE",
"286 221 OFFCURVE",
"273 234 CURVE SMOOTH",
"262 245 OFFCURVE",
"256 260 OFFCURVE",
"256 279 CURVE SMOOTH",
"256 310 OFFCURVE",
"270 352 OFFCURVE",
"299 405 CURVE",
"318 432 OFFCURVE",
"351 450 OFFCURVE",
"400 460 CURVE",
"400 400 LINE SMOOTH"
);
}
);
width = 1500;
}
);
note = uni1786_17C5;
},
{
glyphname = uni1787_17B6;
lastChange = "2021-10-28 13:38:07 +0000";
layers = (
{
layerId = "60F86E82-B86D-46D3-A6A0-C6D09B755248";
paths = (
{
closed = 1;
nodes = (
"639 1450 OFFCURVE",
"548 1458 OFFCURVE",
"479 1475 CURVE SMOOTH",
"410 1492 OFFCURVE",
"357 1500 OFFCURVE",
"320 1500 CURVE SMOOTH",
"100 1500 LINE",
"100 1225 LINE SMOOTH",
"100 1103 OFFCURVE",
"144 1022 OFFCURVE",
"233 981 CURVE",
"178 912 OFFCURVE",
"150 839 OFFCURVE",
"150 760 CURVE SMOOTH",
"150 0 LINE",
"350 0 LINE",
"650 309 LINE",
"950 0 LINE",
"1150 0 LINE",
"1150 1100 LINE",
"950 1100 LINE",
"950 287 LINE",
"650 596 LINE",
"350 287 LINE",
"350 760 LINE SMOOTH",
"350 853 OFFCURVE",
"400 929 OFFCURVE",
"500 990 CURVE",
"500 1110 LINE",
"400 1130 LINE SMOOTH",
"333 1143 OFFCURVE",
"300 1175 OFFCURVE",
"300 1225 CURVE SMOOTH",
"300 1300 LINE",
"360 1300 LINE",
"449 1272 OFFCURVE",
"594 1250 OFFCURVE",
"750 1250 CURVE SMOOTH",
"859 1250 OFFCURVE",
"945 1267 OFFCURVE",
"1010 1300 CURVE",
"1350 1300 LINE SMOOTH",
"1517 1300 OFFCURVE",
"1600 1233 OFFCURVE",
"1600 1100 CURVE SMOOTH",
"1600 0 LINE",
"1800 0 LINE",
"1800 1100 LINE SMOOTH",
"1800 1367 OFFCURVE",
"1650 1500 OFFCURVE",
"1350 1500 CURVE SMOOTH",
"1147 1500 LINE",
"1149 1516 OFFCURVE",
"1150 1533 OFFCURVE",
"1150 1550 CURVE SMOOTH",
"1150 1600 LINE",
"950 1600 LINE",
"950 1550 LINE SMOOTH",
"950 1483 OFFCURVE",
"883 1450 OFFCURVE",
"750 1450 CURVE SMOOTH"
);
}
);
width = 1950;
}
);
note = uni1787_17B6;
rightMetricsKey = uni17B6;
},
{
glyphname = uni1787_17C5;
lastChange = "2021-04-30 12:39:40 +0000";
layers = (
{
layerId = "60F86E82-B86D-46D3-A6A0-C6D09B755248";
paths = (
{
closed = 1;
nodes = (
"1800 2100 OFFCURVE",
"1717 2200 OFFCURVE",
"1550 2200 CURVE SMOOTH",
"1450 2200 LINE",
"1450 2000 LINE",
"1550 2000 LINE SMOOTH",
"1583 2000 OFFCURVE",
"1600 1967 OFFCURVE",
"1600 1900 CURVE SMOOTH",
"1600 1500 LINE",
"1800 1500 LINE",
"1800 1900 LINE SMOOTH"
);
},
{
closed = 1;
nodes = (
"639 1450 OFFCURVE",
"548 1458 OFFCURVE",
"479 1475 CURVE SMOOTH",
"410 1492 OFFCURVE",
"357 1500 OFFCURVE",
"320 1500 CURVE SMOOTH",
"100 1500 LINE",
"100 1225 LINE SMOOTH",
"100 1103 OFFCURVE",
"144 1022 OFFCURVE",
"233 981 CURVE",
"178 912 OFFCURVE",
"150 839 OFFCURVE",
"150 760 CURVE SMOOTH",
"150 0 LINE",
"350 0 LINE",
"650 309 LINE",
"950 0 LINE",
"1150 0 LINE",
"1150 1100 LINE",
"950 1100 LINE",
"950 287 LINE",
"650 596 LINE",
"350 287 LINE",
"350 760 LINE SMOOTH",
"350 853 OFFCURVE",
"400 929 OFFCURVE",
"500 990 CURVE",
"500 1110 LINE",
"400 1130 LINE SMOOTH",
"333 1143 OFFCURVE",
"300 1175 OFFCURVE",
"300 1225 CURVE SMOOTH",
"300 1300 LINE",
"360 1300 LINE",
"449 1272 OFFCURVE",
"594 1250 OFFCURVE",
"750 1250 CURVE SMOOTH",
"859 1250 OFFCURVE",
"945 1267 OFFCURVE",
"1010 1300 CURVE",
"1350 1300 LINE SMOOTH",
"1517 1300 OFFCURVE",
"1600 1233 OFFCURVE",
"1600 1100 CURVE SMOOTH",
"1600 0 LINE",
"1800 0 LINE",
"1800 1100 LINE SMOOTH",
"1800 1367 OFFCURVE",
"1650 1500 OFFCURVE",
"1350 1500 CURVE SMOOTH",
"1147 1500 LINE",
"1149 1516 OFFCURVE",
"1150 1533 OFFCURVE",
"1150 1550 CURVE SMOOTH",
"1150 1600 LINE",
"950 1600 LINE",
"950 1550 LINE SMOOTH",
"950 1483 OFFCURVE",
"883 1450 OFFCURVE",
"750 1450 CURVE SMOOTH"
);
}
);
width = 1300;
}
);
note = uni1787_17C5;
},
{
glyphname = uni1788_17B6;
lastChange = "2021-10-28 13:38:07 +0000";
layers = (
{
layerId = "60F86E82-B86D-46D3-A6A0-C6D09B755248";
paths = (
{
closed = 1;
nodes = (
"2525 1233 OFFCURVE",
"2600 1300 OFFCURVE",
"2750 1300 CURVE SMOOTH",
"2900 1300 OFFCURVE",
"2975 1233 OFFCURVE",
"2975 1100 CURVE SMOOTH",
"2975 0 LINE",
"3175 0 LINE",
"3175 1100 LINE SMOOTH",
"3175 1367 OFFCURVE",
"3033 1500 OFFCURVE",
"2750 1500 CURVE SMOOTH",
"2467 1500 OFFCURVE",
"2325 1367 OFFCURVE",
"2325 1100 CURVE SMOOTH",
"2325 400 LINE SMOOTH",
"2325 267 OFFCURVE",
"2244 200 OFFCURVE",
"2081 200 CURVE SMOOTH",
"1919 200 OFFCURVE",
"1838 267 OFFCURVE",
"1838 400 CURVE SMOOTH",
"1838 1500 LINE",
"1638 1500 LINE",
"1638 400 LINE SMOOTH",
"1638 267 OFFCURVE",
"1557 200 OFFCURVE",
"1394 200 CURVE SMOOTH",
"1231 200 OFFCURVE",
"1150 267 OFFCURVE",
"1150 400 CURVE SMOOTH",
"1150 1100 LINE SMOOTH",
"1150 1367 OFFCURVE",
"983 1500 OFFCURVE",
"650 1500 CURVE SMOOTH",
"317 1500 OFFCURVE",
"150 1367 OFFCURVE",
"150 1100 CURVE SMOOTH",
"150 1005 OFFCURVE",
"196 935 OFFCURVE",
"287 890 CURVE",
"196 785 OFFCURVE",
"150 622 OFFCURVE",
"150 400 CURVE SMOOTH",
"150 141 OFFCURVE",
"308 0 OFFCURVE",
"439 0 CURVE SMOOTH",
"497 0 OFFCURVE",
"554 27 OFFCURVE",
"610 82 CURVE SMOOTH",
"670 141 OFFCURVE",
"700 200 OFFCURVE",
"700 260 CURVE SMOOTH",
"700 378 OFFCURVE",
"671 467 OFFCURVE",
"613 526 CURVE",
"546 610 LINE",
"392 503 LINE",
"451 405 LINE SMOOTH",
"480 352 OFFCURVE",
"494 310 OFFCURVE",
"494 279 CURVE SMOOTH",
"494 260 OFFCURVE",
"488 245 OFFCURVE",
"477 234 CURVE SMOOTH",
"464 221 OFFCURVE",
"452 214 OFFCURVE",
"439 214 CURVE SMOOTH",
"423 214 OFFCURVE",
"407 224 OFFCURVE",
"392 244 CURVE SMOOTH",
"364 279 OFFCURVE",
"350 331 OFFCURVE",
"350 400 CURVE SMOOTH",
"350 687 OFFCURVE",
"447 830 OFFCURVE",
"640 830 CURVE",
"640 1030 LINE",
"447 1030 OFFCURVE",
"350 1053 OFFCURVE",
"350 1100 CURVE SMOOTH",
"350 1233 OFFCURVE",
"450 1300 OFFCURVE",
"650 1300 CURVE SMOOTH",
"850 1300 OFFCURVE",
"950 1233 OFFCURVE",
"950 1100 CURVE SMOOTH",
"950 400 LINE SMOOTH",
"950 133 OFFCURVE",
"1098 0 OFFCURVE",
"1394 0 CURVE SMOOTH",
"1549 0 OFFCURVE",
"1664 37 OFFCURVE",
"1738 110 CURVE",
"1811 37 OFFCURVE",
"1926 0 OFFCURVE",
"2081 0 CURVE SMOOTH",
"2377 0 OFFCURVE",
"2525 133 OFFCURVE",
"2525 400 CURVE SMOOTH",
"2525 1100 LINE SMOOTH"
);
}
);
width = 3325;
}
);
note = uni1788_17B6;
rightMetricsKey = uni17B6;
},
{
glyphname = uni1788_17C5;
lastChange = "2021-04-30 12:39:40 +0000";
layers = (
{
layerId = "60F86E82-B86D-46D3-A6A0-C6D09B755248";
paths = (
{
closed = 1;
nodes = (
"3175 2100 OFFCURVE",
"3092 2200 OFFCURVE",
"2925 2200 CURVE SMOOTH",
"2825 2200 LINE",
"2825 2000 LINE",
"2925 2000 LINE SMOOTH",
"2958 2000 OFFCURVE",
"2975 1967 OFFCURVE",
"2975 1900 CURVE SMOOTH",
"2975 1500 LINE",
"3175 1500 LINE",
"3175 1900 LINE SMOOTH"
);
},
{
closed = 1;
nodes = (
"2525 1233 OFFCURVE",
"2600 1300 OFFCURVE",
"2750 1300 CURVE SMOOTH",
"2900 1300 OFFCURVE",
"2975 1233 OFFCURVE",
"2975 1100 CURVE SMOOTH",
"2975 0 LINE",
"3175 0 LINE",
"3175 1100 LINE SMOOTH",
"3175 1367 OFFCURVE",
"3033 1500 OFFCURVE",
"2750 1500 CURVE SMOOTH",
"2467 1500 OFFCURVE",
"2325 1367 OFFCURVE",
"2325 1100 CURVE SMOOTH",
"2325 400 LINE SMOOTH",
"2325 267 OFFCURVE",
"2244 200 OFFCURVE",
"2081 200 CURVE SMOOTH",
"1919 200 OFFCURVE",
"1838 267 OFFCURVE",
"1838 400 CURVE SMOOTH",
"1838 1500 LINE",
"1638 1500 LINE",
"1638 400 LINE SMOOTH",
"1638 267 OFFCURVE",
"1557 200 OFFCURVE",
"1394 200 CURVE SMOOTH",
"1231 200 OFFCURVE",
"1150 267 OFFCURVE",
"1150 400 CURVE SMOOTH",
"1150 1100 LINE SMOOTH",
"1150 1367 OFFCURVE",
"983 1500 OFFCURVE",
"650 1500 CURVE SMOOTH",
"317 1500 OFFCURVE",
"150 1367 OFFCURVE",
"150 1100 CURVE SMOOTH",
"150 1005 OFFCURVE",
"196 935 OFFCURVE",
"287 890 CURVE",
"196 785 OFFCURVE",
"150 622 OFFCURVE",
"150 400 CURVE SMOOTH",
"150 141 OFFCURVE",
"308 0 OFFCURVE",
"439 0 CURVE SMOOTH",
"497 0 OFFCURVE",
"554 27 OFFCURVE",
"610 82 CURVE SMOOTH",
"670 141 OFFCURVE",
"700 200 OFFCURVE",
"700 260 CURVE SMOOTH",
"700 378 OFFCURVE",
"671 467 OFFCURVE",
"613 526 CURVE",
"546 610 LINE",
"392 503 LINE",
"451 405 LINE SMOOTH",
"480 352 OFFCURVE",
"494 310 OFFCURVE",
"494 279 CURVE SMOOTH",
"494 260 OFFCURVE",
"488 245 OFFCURVE",
"477 234 CURVE SMOOTH",
"464 221 OFFCURVE",
"452 214 OFFCURVE",
"439 214 CURVE SMOOTH",
"423 214 OFFCURVE",
"407 224 OFFCURVE",
"392 244 CURVE SMOOTH",
"364 279 OFFCURVE",
"350 331 OFFCURVE",
"350 400 CURVE SMOOTH",
"350 687 OFFCURVE",
"447 830 OFFCURVE",
"640 830 CURVE",
"640 1030 LINE",
"447 1030 OFFCURVE",
"350 1053 OFFCURVE",
"350 1100 CURVE SMOOTH",
"350 1233 OFFCURVE",
"450 1300 OFFCURVE",
"650 1300 CURVE SMOOTH",
"850 1300 OFFCURVE",
"950 1233 OFFCURVE",
"950 1100 CURVE SMOOTH",
"950 400 LINE SMOOTH",
"950 133 OFFCURVE",
"1098 0 OFFCURVE",
"1394 0 CURVE SMOOTH",
"1549 0 OFFCURVE",
"1664 37 OFFCURVE",
"1738 110 CURVE",
"1811 37 OFFCURVE",
"1926 0 OFFCURVE",
"2081 0 CURVE SMOOTH",
"2377 0 OFFCURVE",
"2525 133 OFFCURVE",
"2525 400 CURVE SMOOTH",
"2525 1100 LINE SMOOTH"
);
}
);
width = 2675;
}
);
note = uni1788_17C5;
},
{
glyphname = uni1789_17B6;
lastChange = "2021-10-28 13:38:07 +0000";
layers = (
{
layerId = "60F86E82-B86D-46D3-A6A0-C6D09B755248";
paths = (
{
closed = 1;
nodes = (
"1800 1100 LINE SMOOTH",
"1800 1233 OFFCURVE",
"1875 1300 OFFCURVE",
"2025 1300 CURVE SMOOTH",
"2175 1300 OFFCURVE",
"2250 1233 OFFCURVE",
"2250 1100 CURVE SMOOTH",
"2250 0 LINE",
"2450 0 LINE",
"2450 1100 LINE SMOOTH",
"2450 1367 OFFCURVE",
"2308 1500 OFFCURVE",
"2025 1500 CURVE SMOOTH",
"1886 1500 OFFCURVE",
"1781 1468 OFFCURVE",
"1710 1403 CURVE",
"1651 1468 OFFCURVE",
"1565 1500 OFFCURVE",
"1450 1500 CURVE SMOOTH",
"893 1500 LINE",
"650 1265 LINE",
"407 1500 LINE",
"150 1500 LINE",
"150 1100 LINE SMOOTH",
"150 978 OFFCURVE",
"196 895 OFFCURVE",
"287 850 CURVE",
"196 772 OFFCURVE",
"150 622 OFFCURVE",
"150 400 CURVE SMOOTH",
"150 141 OFFCURVE",
"308 0 OFFCURVE",
"439 0 CURVE SMOOTH",
"497 0 OFFCURVE",
"554 27 OFFCURVE",
"610 82 CURVE SMOOTH",
"670 141 OFFCURVE",
"700 200 OFFCURVE",
"700 260 CURVE SMOOTH",
"700 378 OFFCURVE",
"671 467 OFFCURVE",
"613 526 CURVE",
"546 610 LINE",
"392 503 LINE",
"451 405 LINE SMOOTH",
"480 352 OFFCURVE",
"494 310 OFFCURVE",
"494 279 CURVE SMOOTH",
"494 260 OFFCURVE",
"488 245 OFFCURVE",
"477 234 CURVE SMOOTH",
"464 221 OFFCURVE",
"452 214 OFFCURVE",
"439 214 CURVE SMOOTH",
"423 214 OFFCURVE",
"407 224 OFFCURVE",
"392 244 CURVE SMOOTH",
"364 279 OFFCURVE",
"350 331 OFFCURVE",
"350 400 CURVE SMOOTH",
"350 653 OFFCURVE",
"429 780 OFFCURVE",
"588 780 CURVE SMOOTH",
"600 780 LINE",
"600 980 LINE",
"433 987 OFFCURVE",
"350 1027 OFFCURVE",
"350 1100 CURVE SMOOTH",
"350 1277 LINE",
"559 1075 LINE",
"741 1075 LINE",
"950 1277 LINE",
"950 0 LINE",
"1150 0 LINE",
"1150 1300 LINE",
"1450 1300 LINE SMOOTH",
"1550 1300 OFFCURVE",
"1600 1233 OFFCURVE",
"1600 1100 CURVE SMOOTH",
"1600 0 LINE",
"1800 0 LINE"
);
},
{
closed = 1;
nodes = (
"565 -400 OFFCURVE",
"693 -437 OFFCURVE",
"784 -512 CURVE SMOOTH",
"936 -637 OFFCURVE",
"1125 -700 OFFCURVE",
"1350 -700 CURVE SMOOTH",
"1650 -700 OFFCURVE",
"1800 -600 OFFCURVE",
"1800 -400 CURVE SMOOTH",
"1800 -200 OFFCURVE",
"1700 -100 OFFCURVE",
"1500 -100 CURVE SMOOTH",
"1300 -100 LINE",
"1300 -300 LINE",
"1500 -300 LINE SMOOTH",
"1567 -300 OFFCURVE",
"1600 -333 OFFCURVE",
"1600 -400 CURVE SMOOTH",
"1600 -467 OFFCURVE",
"1517 -500 OFFCURVE",
"1350 -500 CURVE SMOOTH",
"1186 -500 OFFCURVE",
"1045 -450 OFFCURVE",
"926 -350 CURVE SMOOTH",
"807 -250 OFFCURVE",
"632 -200 OFFCURVE",
"400 -200 CURVE SMOOTH",
"150 -200 LINE",
"150 -400 LINE",
"400 -400 LINE SMOOTH"
);
}
);
width = 2600;
}
);
note = uni1789_17B6;
rightMetricsKey = uni17B6;
},
{
glyphname = uni1789_17C5;
lastChange = "2021-04-30 12:39:40 +0000";
layers = (
{
layerId = "60F86E82-B86D-46D3-A6A0-C6D09B755248";
paths = (
{
closed = 1;
nodes = (
"2450 2100 OFFCURVE",
"2367 2200 OFFCURVE",
"2200 2200 CURVE SMOOTH",
"2100 2200 LINE",
"2100 2000 LINE",
"2200 2000 LINE SMOOTH",
"2233 2000 OFFCURVE",
"2250 1967 OFFCURVE",
"2250 1900 CURVE SMOOTH",
"2250 1500 LINE",
"2450 1500 LINE",
"2450 1900 LINE SMOOTH"
);
},
{
closed = 1;
nodes = (
"1800 1100 LINE SMOOTH",
"1800 1233 OFFCURVE",
"1875 1300 OFFCURVE",
"2025 1300 CURVE SMOOTH",
"2175 1300 OFFCURVE",
"2250 1233 OFFCURVE",
"2250 1100 CURVE SMOOTH",
"2250 0 LINE",
"2450 0 LINE",
"2450 1100 LINE SMOOTH",
"2450 1367 OFFCURVE",
"2308 1500 OFFCURVE",
"2025 1500 CURVE SMOOTH",
"1886 1500 OFFCURVE",
"1781 1468 OFFCURVE",
"1710 1403 CURVE",
"1651 1468 OFFCURVE",
"1565 1500 OFFCURVE",
"1450 1500 CURVE SMOOTH",
"893 1500 LINE",
"650 1265 LINE",
"407 1500 LINE",
"150 1500 LINE",
"150 1100 LINE SMOOTH",
"150 978 OFFCURVE",
"196 895 OFFCURVE",
"287 850 CURVE",
"196 772 OFFCURVE",
"150 622 OFFCURVE",
"150 400 CURVE SMOOTH",
"150 141 OFFCURVE",
"308 0 OFFCURVE",
"439 0 CURVE SMOOTH",
"497 0 OFFCURVE",
"554 27 OFFCURVE",
"610 82 CURVE SMOOTH",
"670 141 OFFCURVE",
"700 200 OFFCURVE",
"700 260 CURVE SMOOTH",
"700 378 OFFCURVE",
"671 467 OFFCURVE",
"613 526 CURVE",
"546 610 LINE",
"392 503 LINE",
"451 405 LINE SMOOTH",
"480 352 OFFCURVE",
"494 310 OFFCURVE",
"494 279 CURVE SMOOTH",
"494 260 OFFCURVE",
"488 245 OFFCURVE",
"477 234 CURVE SMOOTH",
"464 221 OFFCURVE",
"452 214 OFFCURVE",
"439 214 CURVE SMOOTH",
"423 214 OFFCURVE",
"407 224 OFFCURVE",
"392 244 CURVE SMOOTH",
"364 279 OFFCURVE",
"350 331 OFFCURVE",
"350 400 CURVE SMOOTH",
"350 653 OFFCURVE",
"429 780 OFFCURVE",
"588 780 CURVE SMOOTH",
"600 780 LINE",
"600 980 LINE",
"433 987 OFFCURVE",
"350 1027 OFFCURVE",
"350 1100 CURVE SMOOTH",
"350 1277 LINE",
"559 1075 LINE",
"741 1075 LINE",
"950 1277 LINE",
"950 0 LINE",
"1150 0 LINE",
"1150 1300 LINE",
"1450 1300 LINE SMOOTH",
"1550 1300 OFFCURVE",
"1600 1233 OFFCURVE",
"1600 1100 CURVE SMOOTH",
"1600 0 LINE",
"1800 0 LINE"
);
},
{
closed = 1;
nodes = (
"565 -400 OFFCURVE",
"693 -437 OFFCURVE",
"784 -512 CURVE SMOOTH",
"936 -637 OFFCURVE",
"1125 -700 OFFCURVE",
"1350 -700 CURVE SMOOTH",
"1650 -700 OFFCURVE",
"1800 -600 OFFCURVE",
"1800 -400 CURVE SMOOTH",
"1800 -200 OFFCURVE",
"1700 -100 OFFCURVE",
"1500 -100 CURVE SMOOTH",
"1300 -100 LINE",
"1300 -300 LINE",
"1500 -300 LINE SMOOTH",
"1567 -300 OFFCURVE",
"1600 -333 OFFCURVE",
"1600 -400 CURVE SMOOTH",
"1600 -467 OFFCURVE",
"1517 -500 OFFCURVE",
"1350 -500 CURVE SMOOTH",
"1186 -500 OFFCURVE",
"1045 -450 OFFCURVE",
"926 -350 CURVE SMOOTH",
"807 -250 OFFCURVE",
"632 -200 OFFCURVE",
"400 -200 CURVE SMOOTH",
"150 -200 LINE",
"150 -400 LINE",
"400 -400 LINE SMOOTH"
);
}
);
width = 1950;
}
);
note = uni1789_17C5;
},
{
glyphname = uni178A_17B6;
lastChange = "2021-10-28 13:38:07 +0000";
layers = (
{
layerId = "60F86E82-B86D-46D3-A6A0-C6D09B755248";
paths = (
{
closed = 1;
nodes = (
"1517 1300 OFFCURVE",
"1600 1233 OFFCURVE",
"1600 1100 CURVE SMOOTH",
"1600 0 LINE",
"1800 0 LINE",
"1800 1100 LINE SMOOTH",
"1800 1367 OFFCURVE",
"1650 1500 OFFCURVE",
"1350 1500 CURVE SMOOTH",
"1150 1500 LINE",
"1150 1600 LINE",
"950 1600 LINE",
"950 1500 LINE SMOOTH",
"950 1400 OFFCURVE",
"900 1350 OFFCURVE",
"800 1350 CURVE SMOOTH",
"350 1350 LINE",
"350 1500 LINE",
"150 1500 LINE",
"150 1150 LINE",
"800 1150 LINE SMOOTH",
"953 1150 OFFCURVE",
"1055 1200 OFFCURVE",
"1108 1300 CURVE",
"1350 1300 LINE SMOOTH"
);
},
{
closed = 1;
nodes = (
"350 0 LINE",
"650 309 LINE",
"950 0 LINE",
"1150 0 LINE",
"1150 1000 LINE",
"950 1000 LINE",
"950 287 LINE",
"650 596 LINE",
"350 287 LINE",
"350 1000 LINE",
"150 1000 LINE",
"150 0 LINE"
);
}
);
width = 1950;
}
);
note = uni178A_17B6;
rightMetricsKey = uni17B6;
},
{
glyphname = uni178A_17C5;
lastChange = "2021-04-30 12:39:40 +0000";
layers = (
{
layerId = "60F86E82-B86D-46D3-A6A0-C6D09B755248";
paths = (
{
closed = 1;
nodes = (
"1800 2100 OFFCURVE",
"1717 2200 OFFCURVE",
"1550 2200 CURVE SMOOTH",
"1450 2200 LINE",
"1450 2000 LINE",
"1550 2000 LINE SMOOTH",
"1583 2000 OFFCURVE",
"1600 1967 OFFCURVE",
"1600 1900 CURVE SMOOTH",
"1600 1500 LINE",
"1800 1500 LINE",
"1800 1900 LINE SMOOTH"
);
},
{
closed = 1;
nodes = (
"1517 1300 OFFCURVE",
"1600 1233 OFFCURVE",
"1600 1100 CURVE SMOOTH",
"1600 0 LINE",
"1800 0 LINE",
"1800 1100 LINE SMOOTH",
"1800 1367 OFFCURVE",
"1650 1500 OFFCURVE",
"1350 1500 CURVE SMOOTH",
"1150 1500 LINE",
"1150 1600 LINE",
"950 1600 LINE",
"950 1500 LINE SMOOTH",
"950 1400 OFFCURVE",
"900 1350 OFFCURVE",
"800 1350 CURVE SMOOTH",
"350 1350 LINE",
"350 1500 LINE",
"150 1500 LINE",
"150 1150 LINE",
"800 1150 LINE SMOOTH",
"953 1150 OFFCURVE",
"1055 1200 OFFCURVE",
"1108 1300 CURVE",
"1350 1300 LINE SMOOTH"
);
},
{
closed = 1;
nodes = (
"350 0 LINE",
"650 309 LINE",
"950 0 LINE",
"1150 0 LINE",
"1150 1000 LINE",
"950 1000 LINE",
"950 287 LINE",
"650 596 LINE",
"350 287 LINE",
"350 1000 LINE",
"150 1000 LINE",
"150 0 LINE"
);
}
);
width = 1300;
}
);
note = uni178A_17C5;
},
{
glyphname = uni178B_17B6;
lastChange = "2021-10-28 13:38:07 +0000";
layers = (
{
layerId = "60F86E82-B86D-46D3-A6A0-C6D09B755248";
paths = (
{
closed = 1;
nodes = (
"1517 1300 OFFCURVE",
"1600 1233 OFFCURVE",
"1600 1100 CURVE SMOOTH",
"1600 0 LINE",
"1800 0 LINE",
"1800 1100 LINE SMOOTH",
"1800 1367 OFFCURVE",
"1650 1500 OFFCURVE",
"1350 1500 CURVE SMOOTH",
"1200 1500 LINE",
"1200 1600 LINE",
"1000 1600 LINE",
"1000 1500 LINE",
"600 1500 LINE",
"600 1300 LINE",
"610 1300 LINE SMOOTH",
"837 1300 OFFCURVE",
"950 1000 OFFCURVE",
"950 400 CURVE SMOOTH",
"950 267 OFFCURVE",
"850 200 OFFCURVE",
"650 200 CURVE SMOOTH",
"450 200 OFFCURVE",
"350 267 OFFCURVE",
"350 400 CURVE SMOOTH",
"350 1500 LINE",
"100 1500 LINE",
"100 1300 LINE",
"150 1300 LINE",
"150 400 LINE SMOOTH",
"150 133 OFFCURVE",
"317 0 OFFCURVE",
"650 0 CURVE SMOOTH",
"983 0 OFFCURVE",
"1150 133 OFFCURVE",
"1150 400 CURVE SMOOTH",
"1150 835 OFFCURVE",
"1095 1135 OFFCURVE",
"985 1300 CURVE",
"1350 1300 LINE SMOOTH"
);
}
);
width = 1950;
}
);
note = uni178B_17B6;
rightMetricsKey = uni17B6;
},
{
glyphname = uni178B_17C5;
lastChange = "2021-04-30 12:39:40 +0000";
layers = (
{
layerId = "60F86E82-B86D-46D3-A6A0-C6D09B755248";
paths = (
{
closed = 1;
nodes = (
"1800 2100 OFFCURVE",
"1717 2200 OFFCURVE",
"1550 2200 CURVE SMOOTH",
"1450 2200 LINE",
"1450 2000 LINE",
"1550 2000 LINE SMOOTH",
"1583 2000 OFFCURVE",
"1600 1967 OFFCURVE",
"1600 1900 CURVE SMOOTH",
"1600 1500 LINE",
"1800 1500 LINE",
"1800 1900 LINE SMOOTH"
);
},
{
closed = 1;
nodes = (
"1517 1300 OFFCURVE",
"1600 1233 OFFCURVE",
"1600 1100 CURVE SMOOTH",
"1600 0 LINE",
"1800 0 LINE",
"1800 1100 LINE SMOOTH",
"1800 1367 OFFCURVE",
"1650 1500 OFFCURVE",
"1350 1500 CURVE SMOOTH",
"1200 1500 LINE",
"1200 1600 LINE",
"1000 1600 LINE",
"1000 1500 LINE",
"600 1500 LINE",
"600 1300 LINE",
"610 1300 LINE SMOOTH",
"837 1300 OFFCURVE",
"950 1000 OFFCURVE",
"950 400 CURVE SMOOTH",
"950 267 OFFCURVE",
"850 200 OFFCURVE",
"650 200 CURVE SMOOTH",
"450 200 OFFCURVE",
"350 267 OFFCURVE",
"350 400 CURVE SMOOTH",
"350 1500 LINE",
"100 1500 LINE",
"100 1300 LINE",
"150 1300 LINE",
"150 400 LINE SMOOTH",
"150 133 OFFCURVE",
"317 0 OFFCURVE",
"650 0 CURVE SMOOTH",
"983 0 OFFCURVE",
"1150 133 OFFCURVE",
"1150 400 CURVE SMOOTH",
"1150 835 OFFCURVE",
"1095 1135 OFFCURVE",
"985 1300 CURVE",
"1350 1300 LINE SMOOTH"
);
}
);
width = 1300;
}
);
note = uni178B_17C5;
},
{
glyphname = uni178C_17B6;
lastChange = "2021-10-28 13:38:07 +0000";
layers = (
{
layerId = "60F86E82-B86D-46D3-A6A0-C6D09B755248";
paths = (
{
closed = 1;
nodes = (
"1517 1300 OFFCURVE",
"1600 1233 OFFCURVE",
"1600 1100 CURVE SMOOTH",
"1600 0 LINE",
"1800 0 LINE",
"1800 1100 LINE SMOOTH",
"1800 1367 OFFCURVE",
"1650 1500 OFFCURVE",
"1350 1500 CURVE SMOOTH",
"893 1500 LINE",
"650 1265 LINE",
"407 1500 LINE",
"150 1500 LINE",
"150 1050 LINE SMOOTH",
"150 950 OFFCURVE",
"200 900 OFFCURVE",
"300 900 CURVE SMOOTH",
"450 900 LINE",
"450 1100 LINE",
"350 1100 LINE",
"350 1277 LINE",
"559 1075 LINE",
"741 1075 LINE",
"950 1277 LINE",
"950 1100 LINE SMOOTH",
"950 942 OFFCURVE",
"767 818 OFFCURVE",
"400 729 CURVE SMOOTH",
"150 668 LINE",
"150 400 LINE SMOOTH",
"150 133 OFFCURVE",
"250 0 OFFCURVE",
"450 0 CURVE",
"663 51 OFFCURVE",
"830 126 OFFCURVE",
"950 225 CURVE",
"950 0 LINE",
"1150 0 LINE",
"1150 600 LINE",
"950 600 LINE",
"950 510 LINE",
"897 397 OFFCURVE",
"730 293 OFFCURVE",
"450 200 CURVE",
"383 200 OFFCURVE",
"350 267 OFFCURVE",
"350 400 CURVE SMOOTH",
"350 511 LINE",
"450 536 LINE SMOOTH",
"917 650 OFFCURVE",
"1150 838 OFFCURVE",
"1150 1100 CURVE SMOOTH",
"1150 1300 LINE",
"1350 1300 LINE SMOOTH"
);
}
);
width = 1950;
}
);
note = uni178C_17B6;
rightMetricsKey = uni17B6;
},
{
glyphname = uni178C_17C5;
lastChange = "2021-04-30 12:39:40 +0000";
layers = (
{
layerId = "60F86E82-B86D-46D3-A6A0-C6D09B755248";
paths = (
{
closed = 1;
nodes = (
"1800 2100 OFFCURVE",
"1717 2200 OFFCURVE",
"1550 2200 CURVE SMOOTH",
"1450 2200 LINE",
"1450 2000 LINE",
"1550 2000 LINE SMOOTH",
"1583 2000 OFFCURVE",
"1600 1967 OFFCURVE",
"1600 1900 CURVE SMOOTH",
"1600 1500 LINE",
"1800 1500 LINE",
"1800 1900 LINE SMOOTH"
);
},
{
closed = 1;
nodes = (
"1517 1300 OFFCURVE",
"1600 1233 OFFCURVE",
"1600 1100 CURVE SMOOTH",
"1600 0 LINE",
"1800 0 LINE",
"1800 1100 LINE SMOOTH",
"1800 1367 OFFCURVE",
"1650 1500 OFFCURVE",
"1350 1500 CURVE SMOOTH",
"893 1500 LINE",
"650 1265 LINE",
"407 1500 LINE",
"150 1500 LINE",
"150 1050 LINE SMOOTH",
"150 950 OFFCURVE",
"200 900 OFFCURVE",
"300 900 CURVE SMOOTH",
"450 900 LINE",
"450 1100 LINE",
"350 1100 LINE",
"350 1277 LINE",
"559 1075 LINE",
"741 1075 LINE",
"950 1277 LINE",
"950 1100 LINE SMOOTH",
"950 942 OFFCURVE",
"767 818 OFFCURVE",
"400 729 CURVE SMOOTH",
"150 668 LINE",
"150 400 LINE SMOOTH",
"150 133 OFFCURVE",
"250 0 OFFCURVE",
"450 0 CURVE",
"663 51 OFFCURVE",
"830 126 OFFCURVE",
"950 225 CURVE",
"950 0 LINE",
"1150 0 LINE",
"1150 600 LINE",
"950 600 LINE",
"950 510 LINE",
"897 397 OFFCURVE",
"730 293 OFFCURVE",
"450 200 CURVE",
"383 200 OFFCURVE",
"350 267 OFFCURVE",
"350 400 CURVE SMOOTH",
"350 511 LINE",
"450 536 LINE SMOOTH",
"917 650 OFFCURVE",
"1150 838 OFFCURVE",
"1150 1100 CURVE SMOOTH",
"1150 1300 LINE",
"1350 1300 LINE SMOOTH"
);
}
);
width = 1300;
}
);
note = uni178C_17C5;
},
{
glyphname = uni178D_17B6;
lastChange = "2021-10-28 13:38:07 +0000";
layers = (
{
layerId = "60F86E82-B86D-46D3-A6A0-C6D09B755248";
paths = (
{
closed = 1;
nodes = (
"1800 1233 OFFCURVE",
"1875 1300 OFFCURVE",
"2025 1300 CURVE SMOOTH",
"2175 1300 OFFCURVE",
"2250 1233 OFFCURVE",
"2250 1100 CURVE SMOOTH",
"2250 0 LINE",
"2450 0 LINE",
"2450 1100 LINE SMOOTH",
"2450 1367 OFFCURVE",
"2308 1500 OFFCURVE",
"2025 1500 CURVE SMOOTH",
"1742 1500 OFFCURVE",
"1600 1367 OFFCURVE",
"1600 1100 CURVE SMOOTH",
"1600 365 LINE",
"1491 455 OFFCURVE",
"1374 500 OFFCURVE",
"1250 500 CURVE SMOOTH",
"1150 500 LINE",
"1150 1500 LINE",
"893 1500 LINE",
"650 1265 LINE",
"407 1500 LINE",
"150 1500 LINE",
"150 1100 LINE SMOOTH",
"150 978 OFFCURVE",
"196 895 OFFCURVE",
"287 850 CURVE",
"196 772 OFFCURVE",
"150 622 OFFCURVE",
"150 400 CURVE SMOOTH",
"150 141 OFFCURVE",
"308 0 OFFCURVE",
"439 0 CURVE SMOOTH",
"497 0 OFFCURVE",
"554 27 OFFCURVE",
"610 82 CURVE SMOOTH",
"670 141 OFFCURVE",
"700 200 OFFCURVE",
"700 260 CURVE SMOOTH",
"700 378 OFFCURVE",
"671 467 OFFCURVE",
"613 526 CURVE",
"546 610 LINE",
"392 503 LINE",
"451 405 LINE SMOOTH",
"480 352 OFFCURVE",
"494 310 OFFCURVE",
"494 279 CURVE SMOOTH",
"494 260 OFFCURVE",
"488 245 OFFCURVE",
"477 234 CURVE SMOOTH",
"464 221 OFFCURVE",
"452 214 OFFCURVE",
"439 214 CURVE SMOOTH",
"423 214 OFFCURVE",
"407 224 OFFCURVE",
"392 244 CURVE SMOOTH",
"364 279 OFFCURVE",
"350 331 OFFCURVE",
"350 400 CURVE SMOOTH",
"350 653 OFFCURVE",
"429 780 OFFCURVE",
"588 780 CURVE SMOOTH",
"600 780 LINE",
"600 980 LINE",
"433 987 OFFCURVE",
"350 1027 OFFCURVE",
"350 1100 CURVE SMOOTH",
"350 1277 LINE",
"559 1075 LINE",
"741 1075 LINE",
"950 1277 LINE",
"950 472 LINE",
"883 439 OFFCURVE",
"850 371 OFFCURVE",
"850 270 CURVE SMOOTH",
"850 166 OFFCURVE",
"883 76 OFFCURVE",
"950 0 CURVE",
"1150 0 LINE",
"1150 300 LINE",
"1250 300 LINE SMOOTH",
"1417 300 OFFCURVE",
"1533 200 OFFCURVE",
"1600 0 CURVE",
"1800 0 LINE",
"1800 1100 LINE SMOOTH"
);
}
);
width = 2600;
}
);
note = uni178D_17B6;
rightMetricsKey = uni17B6;
},
{
glyphname = uni178D_17C5;
lastChange = "2021-04-30 12:39:40 +0000";
layers = (
{
layerId = "60F86E82-B86D-46D3-A6A0-C6D09B755248";
paths = (
{
closed = 1;
nodes = (
"2450 2100 OFFCURVE",
"2367 2200 OFFCURVE",
"2200 2200 CURVE SMOOTH",
"2100 2200 LINE",
"2100 2000 LINE",
"2200 2000 LINE SMOOTH",
"2233 2000 OFFCURVE",
"2250 1967 OFFCURVE",
"2250 1900 CURVE SMOOTH",
"2250 1500 LINE",
"2450 1500 LINE",
"2450 1900 LINE SMOOTH"
);
},
{
closed = 1;
nodes = (
"1800 1233 OFFCURVE",
"1875 1300 OFFCURVE",
"2025 1300 CURVE SMOOTH",
"2175 1300 OFFCURVE",
"2250 1233 OFFCURVE",
"2250 1100 CURVE SMOOTH",
"2250 0 LINE",
"2450 0 LINE",
"2450 1100 LINE SMOOTH",
"2450 1367 OFFCURVE",
"2308 1500 OFFCURVE",
"2025 1500 CURVE SMOOTH",
"1742 1500 OFFCURVE",
"1600 1367 OFFCURVE",
"1600 1100 CURVE SMOOTH",
"1600 365 LINE",
"1491 455 OFFCURVE",
"1374 500 OFFCURVE",
"1250 500 CURVE SMOOTH",
"1150 500 LINE",
"1150 1500 LINE",
"893 1500 LINE",
"650 1265 LINE",
"407 1500 LINE",
"150 1500 LINE",
"150 1100 LINE SMOOTH",
"150 978 OFFCURVE",
"196 895 OFFCURVE",
"287 850 CURVE",
"196 772 OFFCURVE",
"150 622 OFFCURVE",
"150 400 CURVE SMOOTH",
"150 141 OFFCURVE",
"308 0 OFFCURVE",
"439 0 CURVE SMOOTH",
"497 0 OFFCURVE",
"554 27 OFFCURVE",
"610 82 CURVE SMOOTH",
"670 141 OFFCURVE",
"700 200 OFFCURVE",
"700 260 CURVE SMOOTH",
"700 378 OFFCURVE",
"671 467 OFFCURVE",
"613 526 CURVE",
"546 610 LINE",
"392 503 LINE",
"451 405 LINE SMOOTH",
"480 352 OFFCURVE",
"494 310 OFFCURVE",
"494 279 CURVE SMOOTH",
"494 260 OFFCURVE",
"488 245 OFFCURVE",
"477 234 CURVE SMOOTH",
"464 221 OFFCURVE",
"452 214 OFFCURVE",
"439 214 CURVE SMOOTH",
"423 214 OFFCURVE",
"407 224 OFFCURVE",
"392 244 CURVE SMOOTH",
"364 279 OFFCURVE",
"350 331 OFFCURVE",
"350 400 CURVE SMOOTH",
"350 653 OFFCURVE",
"429 780 OFFCURVE",
"588 780 CURVE SMOOTH",
"600 780 LINE",
"600 980 LINE",
"433 987 OFFCURVE",
"350 1027 OFFCURVE",
"350 1100 CURVE SMOOTH",
"350 1277 LINE",
"559 1075 LINE",
"741 1075 LINE",
"950 1277 LINE",
"950 472 LINE",
"883 439 OFFCURVE",
"850 371 OFFCURVE",
"850 270 CURVE SMOOTH",
"850 166 OFFCURVE",
"883 76 OFFCURVE",
"950 0 CURVE",
"1150 0 LINE",
"1150 300 LINE",
"1250 300 LINE SMOOTH",
"1417 300 OFFCURVE",
"1533 200 OFFCURVE",
"1600 0 CURVE",
"1800 0 LINE",
"1800 1100 LINE SMOOTH"
);
}
);
width = 1950;
}
);
note = uni178D_17C5;
},
{
glyphname = uni178E_17B6;
lastChange = "2021-10-28 13:38:07 +0000";
layers = (
{
layerId = "60F86E82-B86D-46D3-A6A0-C6D09B755248";
paths = (
{
closed = 1;
nodes = (
"2550 1100 LINE SMOOTH",
"2550 1233 OFFCURVE",
"2625 1300 OFFCURVE",
"2775 1300 CURVE SMOOTH",
"2925 1300 OFFCURVE",
"3000 1233 OFFCURVE",
"3000 1100 CURVE SMOOTH",
"3000 0 LINE",
"3200 0 LINE",
"3200 1100 LINE SMOOTH",
"3200 1367 OFFCURVE",
"3058 1500 OFFCURVE",
"2775 1500 CURVE SMOOTH",
"2627 1500 OFFCURVE",
"2518 1464 OFFCURVE",
"2447 1391 CURVE",
"2372 1464 OFFCURVE",
"2257 1500 OFFCURVE",
"2100 1500 CURVE SMOOTH",
"1800 1500 OFFCURVE",
"1650 1367 OFFCURVE",
"1650 1100 CURVE SMOOTH",
"1650 287 LINE",
"1400 545 LINE",
"1150 287 LINE",
"1150 1100 LINE SMOOTH",
"1150 1367 OFFCURVE",
"983 1500 OFFCURVE",
"650 1500 CURVE SMOOTH",
"317 1500 OFFCURVE",
"150 1367 OFFCURVE",
"150 1100 CURVE SMOOTH",
"150 1005 OFFCURVE",
"196 935 OFFCURVE",
"287 890 CURVE",
"196 785 OFFCURVE",
"150 622 OFFCURVE",
"150 400 CURVE SMOOTH",
"150 141 OFFCURVE",
"308 0 OFFCURVE",
"439 0 CURVE SMOOTH",
"497 0 OFFCURVE",
"554 27 OFFCURVE",
"610 82 CURVE SMOOTH",
"670 141 OFFCURVE",
"700 200 OFFCURVE",
"700 260 CURVE SMOOTH",
"700 378 OFFCURVE",
"671 467 OFFCURVE",
"613 526 CURVE",
"546 610 LINE",
"392 503 LINE",
"451 405 LINE SMOOTH",
"480 352 OFFCURVE",
"494 310 OFFCURVE",
"494 279 CURVE SMOOTH",
"494 260 OFFCURVE",
"488 245 OFFCURVE",
"477 234 CURVE SMOOTH",
"464 221 OFFCURVE",
"452 214 OFFCURVE",
"439 214 CURVE SMOOTH",
"423 214 OFFCURVE",
"407 224 OFFCURVE",
"392 244 CURVE SMOOTH",
"364 279 OFFCURVE",
"350 331 OFFCURVE",
"350 400 CURVE SMOOTH",
"350 687 OFFCURVE",
"447 830 OFFCURVE",
"640 830 CURVE",
"640 1030 LINE",
"447 1030 OFFCURVE",
"350 1053 OFFCURVE",
"350 1100 CURVE SMOOTH",
"350 1233 OFFCURVE",
"450 1300 OFFCURVE",
"650 1300 CURVE SMOOTH",
"850 1300 OFFCURVE",
"950 1233 OFFCURVE",
"950 1100 CURVE SMOOTH",
"950 0 LINE",
"1150 0 LINE",
"1400 258 LINE",
"1650 0 LINE",
"1850 0 LINE",
"1850 1100 LINE SMOOTH",
"1850 1233 OFFCURVE",
"1933 1300 OFFCURVE",
"2100 1300 CURVE SMOOTH",
"2267 1300 OFFCURVE",
"2350 1233 OFFCURVE",
"2350 1100 CURVE SMOOTH",
"2350 0 LINE",
"2550 0 LINE"
);
}
);
width = 3350;
}
);
note = uni178E_17B6;
rightMetricsKey = uni17B6;
},
